M48
;DRILL file {Pcbnew (2012-01-19 BZR 3256)-stable} date 4/18/2012 11:58:37 PM
;FORMAT={-:-/ absolute / inch / decimal}
FMAT,2
INCH,TZ
T1C0.025
T2C0.032
T3C0.040
%
G90
G05
M72
T1
X2.600Y4.200
X2.700Y3.975
X2.750Y4.200
X2.800Y4.300
X3.075Y2.500
X3.075Y3.125
X3.100Y1.750
X3.125Y3.025
X3.135Y3.350
X3.150Y2.600
X3.150Y2.900
X3.150Y3.950
X3.150Y4.850
X3.175Y2.950
X3.200Y3.575
X3.240Y3.155
X3.250Y2.550
X3.250Y4.150
X3.250Y4.850
X3.250Y5.250
X3.275Y2.475
X3.350Y2.575
X3.400Y2.325
X3.400Y2.400
X3.400Y2.750
X3.450Y1.525
X3.450Y2.500
X3.450Y2.900
X3.475Y2.350
X3.500Y2.700
X3.500Y4.000
X3.500Y4.450
X3.550Y2.700
X3.550Y3.100
X3.550Y4.250
X3.550Y4.450
X3.550Y6.100
X3.625Y1.250
X3.650Y6.050
X3.700Y2.150
X3.750Y2.700
X3.750Y2.750
X3.750Y2.950
X3.750Y3.000
X3.750Y5.650
X3.800Y1.900
X3.800Y3.500
X3.800Y3.700
X3.800Y4.450
X3.850Y2.100
X3.850Y5.000
X3.850Y5.650
X3.850Y6.050
X3.850Y6.150
X3.875Y2.700
X3.900Y1.400
X3.900Y3.000
X3.900Y3.650
X3.900Y4.350
X3.900Y4.450
X3.900Y4.500
X3.900Y4.600
X3.900Y4.750
X3.900Y5.200
X3.950Y3.200
X3.950Y3.650
X3.950Y5.950
X3.975Y1.300
X4.000Y2.975
X4.000Y3.050
X4.050Y1.900
X4.050Y3.300
X4.050Y3.500
X4.050Y3.950
X4.050Y6.100
X4.100Y1.950
X4.100Y4.250
X4.150Y1.425
X4.150Y2.150
X4.150Y7.150
X4.150Y7.250
X4.200Y6.100
X4.225Y6.750
X4.325Y4.480
X4.350Y4.335
X4.350Y5.850
X4.375Y6.700
X4.385Y4.105
X4.475Y2.125
X4.475Y2.450
X4.515Y1.825
X4.535Y1.610
X4.550Y3.025
X4.565Y3.865
X4.575Y2.900
X4.600Y3.750
X4.650Y5.050
X4.675Y1.800
X4.675Y2.625
X4.700Y2.075
X4.700Y3.950
X4.700Y5.850
X4.725Y1.425
X4.800Y3.170
X4.800Y3.400
X4.805Y3.280
X4.835Y3.850
X4.840Y3.960
X4.850Y1.325
X4.875Y1.475
X4.950Y5.075
X4.975Y1.525
X4.975Y1.575
X5.000Y4.800
X5.000Y4.900
X5.025Y1.700
X5.050Y4.950
X5.050Y5.300
X5.100Y5.100
X5.150Y4.450
X5.150Y4.925
X5.250Y1.975
X5.300Y4.900
X5.400Y4.925
X5.450Y4.225
X5.500Y4.350
T2
X3.000Y3.200
X3.000Y3.300
X3.000Y3.400
X3.000Y3.500
X3.000Y3.600
X3.000Y3.700
X3.000Y3.800
X3.000Y3.900
X3.000Y4.100
X3.000Y4.200
X3.000Y4.300
X3.000Y4.400
X3.000Y4.500
X3.000Y4.600
X3.350Y3.050
X3.350Y3.150
X3.350Y3.250
X3.350Y3.350
X3.350Y3.450
X3.350Y3.550
X3.350Y3.650
X3.350Y3.750
X3.350Y3.850
X3.350Y3.950
X3.350Y4.250
X3.350Y4.350
X3.350Y4.450
X3.350Y4.550
X3.350Y4.650
X3.350Y4.750
X3.350Y4.850
X3.350Y4.950
X3.350Y5.050
X3.350Y5.150
X3.450Y1.700
X3.450Y7.000
X3.500Y5.450
X3.500Y5.750
X3.500Y6.200
X3.500Y6.500
X3.550Y2.000
X3.550Y2.300
X3.550Y2.550
X3.550Y2.850
X3.600Y5.450
X3.600Y5.750
X3.600Y6.200
X3.600Y6.500
X3.650Y2.000
X3.650Y2.300
X3.650Y2.550
X3.650Y2.850
X3.650Y3.050
X3.650Y3.150
X3.650Y3.250
X3.650Y3.350
X3.650Y3.450
X3.650Y3.550
X3.650Y3.650
X3.650Y3.750
X3.650Y3.850
X3.650Y3.950
X3.650Y4.250
X3.650Y4.350
X3.650Y4.450
X3.650Y4.550
X3.650Y4.650
X3.650Y4.750
X3.650Y4.850
X3.650Y4.950
X3.650Y5.050
X3.650Y5.150
X3.700Y5.450
X3.700Y5.750
X3.700Y6.200
X3.700Y6.500
X3.750Y2.000
X3.750Y2.300
X3.750Y2.550
X3.750Y2.850
X3.800Y5.450
X3.800Y5.750
X3.800Y6.200
X3.800Y6.500
X3.850Y2.000
X3.850Y2.300
X3.850Y2.550
X3.850Y2.850
X3.900Y5.450
X3.900Y5.750
X3.900Y6.200
X3.900Y6.500
X3.950Y2.000
X3.950Y2.300
X3.950Y2.550
X3.950Y2.850
X4.000Y5.450
X4.000Y5.750
X4.000Y6.200
X4.000Y6.500
X4.050Y2.000
X4.050Y2.300
X4.050Y2.550
X4.050Y2.850
X4.100Y5.450
X4.100Y5.750
X4.100Y6.200
X4.100Y6.500
X4.150Y2.000
X4.150Y2.300
X4.150Y2.550
X4.150Y2.850
X4.200Y3.250
X4.200Y3.350
X4.200Y3.450
X4.200Y3.550
X4.200Y3.650
X4.200Y3.750
X4.200Y3.850
X4.200Y3.950
X4.200Y4.350
X4.200Y4.450
X4.200Y4.550
X4.200Y4.650
X4.200Y4.750
X4.200Y4.850
X4.200Y4.950
X4.200Y5.050
X4.200Y5.450
X4.200Y5.750
X4.200Y6.200
X4.200Y6.500
X4.250Y2.000
X4.250Y2.300
X4.250Y2.550
X4.250Y2.850
X4.500Y3.250
X4.500Y3.350
X4.500Y3.450
X4.500Y3.550
X4.500Y3.650
X4.500Y3.750
X4.500Y3.850
X4.500Y3.950
X4.500Y4.350
X4.500Y4.450
X4.500Y4.550
X4.500Y4.650
X4.500Y4.750
X4.500Y4.850
X4.500Y4.950
X4.500Y5.050
X4.900Y2.840
X4.900Y2.940
X4.900Y3.040
X4.900Y3.140
X4.900Y3.240
X4.900Y3.340
X4.900Y3.440
X4.900Y3.540
X4.900Y3.640
X4.900Y3.740
X4.900Y3.900
X4.900Y4.000
X4.900Y4.100
X4.900Y4.200
X4.900Y4.300
X4.900Y4.400
X4.900Y4.500
X4.900Y4.600
T3
X3.450Y1.600
X3.450Y6.900
X3.550Y1.600
X3.550Y1.700
X3.550Y6.900
X3.550Y7.000
X3.650Y1.600
X3.650Y1.700
X3.650Y6.900
X3.650Y7.000
X3.750Y1.600
X3.750Y1.700
X3.750Y6.900
X3.750Y7.000
X3.850Y1.600
X3.850Y1.700
X3.850Y6.900
X3.850Y7.000
X3.950Y1.600
X3.950Y1.700
X3.950Y6.900
X3.950Y7.000
X4.050Y1.600
X4.050Y1.700
X4.050Y6.900
X4.050Y7.000
X4.150Y1.600
X4.150Y1.700
X4.150Y6.900
X4.150Y7.000
X4.250Y1.600
X4.250Y1.700
X4.250Y6.900
X4.250Y7.000
X4.350Y1.600
X4.350Y1.700
X4.350Y6.900
X4.350Y7.000
T0
M30
