G04 (created by PCBNEW-RS274X (2012-01-19 BZR 3256)-stable) date 4/18/2012 11:58:31 PM*
G01*
G70*
G90*
%MOIN*%
G04 Gerber Fmt 3.4, Leading zero omitted, Abs format*
%FSLAX34Y34*%
G04 APERTURE LIST*
%ADD10C,0.006000*%
%ADD11C,0.015000*%
%ADD12R,0.075000X0.075000*%
%ADD13C,0.075000*%
%ADD14R,0.080000X0.080000*%
%ADD15C,0.080000*%
G04 APERTURE END LIST*
G54D10*
G54D11*
X23350Y-11750D02*
X23350Y-73550D01*
X56600Y-11750D02*
X23350Y-11750D01*
X56600Y-73550D02*
X56600Y-11750D01*
X23400Y-73550D02*
X56600Y-73550D01*
G54D12*
X49000Y-39000D03*
G54D13*
X49000Y-40000D03*
X49000Y-41000D03*
X49000Y-42000D03*
X49000Y-43000D03*
X49000Y-44000D03*
X49000Y-45000D03*
X49000Y-46000D03*
G54D12*
X30000Y-32000D03*
G54D13*
X30000Y-33000D03*
X30000Y-34000D03*
X30000Y-35000D03*
X30000Y-36000D03*
X30000Y-37000D03*
X30000Y-38000D03*
X30000Y-39000D03*
G54D14*
X34500Y-17000D03*
G54D15*
X34500Y-16000D03*
X39500Y-17000D03*
X35500Y-16000D03*
X40500Y-17000D03*
X36500Y-16000D03*
X41500Y-17000D03*
X37500Y-16000D03*
X42500Y-17000D03*
X38500Y-16000D03*
X43500Y-17000D03*
X39500Y-16000D03*
X40500Y-16000D03*
X41500Y-16000D03*
X42500Y-16000D03*
X43500Y-16000D03*
X35500Y-17000D03*
X36500Y-17000D03*
X37500Y-17000D03*
X38500Y-17000D03*
G54D14*
X34500Y-70000D03*
G54D15*
X34500Y-69000D03*
X39500Y-70000D03*
X35500Y-69000D03*
X40500Y-70000D03*
X36500Y-69000D03*
X41500Y-70000D03*
X37500Y-69000D03*
X42500Y-70000D03*
X38500Y-69000D03*
X43500Y-70000D03*
X39500Y-69000D03*
X40500Y-69000D03*
X41500Y-69000D03*
X42500Y-69000D03*
X43500Y-69000D03*
X35500Y-70000D03*
X36500Y-70000D03*
X37500Y-70000D03*
X38500Y-70000D03*
G54D12*
X33500Y-30500D03*
G54D13*
X33500Y-31500D03*
X33500Y-32500D03*
X33500Y-33500D03*
X33500Y-34500D03*
X33500Y-35500D03*
X33500Y-36500D03*
X33500Y-37500D03*
X33500Y-38500D03*
X33500Y-39500D03*
X36500Y-39500D03*
X36500Y-38500D03*
X36500Y-37500D03*
X36500Y-36500D03*
X36500Y-35500D03*
X36500Y-34500D03*
X36500Y-33500D03*
X36500Y-32500D03*
X36500Y-31500D03*
X36500Y-30500D03*
G54D12*
X33500Y-42500D03*
G54D13*
X33500Y-43500D03*
X33500Y-44500D03*
X33500Y-45500D03*
X33500Y-46500D03*
X33500Y-47500D03*
X33500Y-48500D03*
X33500Y-49500D03*
X33500Y-50500D03*
X33500Y-51500D03*
X36500Y-51500D03*
X36500Y-50500D03*
X36500Y-49500D03*
X36500Y-48500D03*
X36500Y-47500D03*
X36500Y-46500D03*
X36500Y-45500D03*
X36500Y-44500D03*
X36500Y-43500D03*
X36500Y-42500D03*
G54D12*
X35500Y-23000D03*
G54D13*
X36500Y-23000D03*
X37500Y-23000D03*
X38500Y-23000D03*
X39500Y-23000D03*
X40500Y-23000D03*
X41500Y-23000D03*
X42500Y-23000D03*
X42500Y-20000D03*
X41500Y-20000D03*
X40500Y-20000D03*
X39500Y-20000D03*
X38500Y-20000D03*
X37500Y-20000D03*
X36500Y-20000D03*
X35500Y-20000D03*
G54D12*
X42000Y-32500D03*
G54D13*
X42000Y-33500D03*
X42000Y-34500D03*
X42000Y-35500D03*
X42000Y-36500D03*
X42000Y-37500D03*
X42000Y-38500D03*
X42000Y-39500D03*
X45000Y-39500D03*
X45000Y-38500D03*
X45000Y-37500D03*
X45000Y-36500D03*
X45000Y-35500D03*
X45000Y-34500D03*
X45000Y-33500D03*
X45000Y-32500D03*
G54D12*
X42000Y-43500D03*
G54D13*
X42000Y-44500D03*
X42000Y-45500D03*
X42000Y-46500D03*
X42000Y-47500D03*
X42000Y-48500D03*
X42000Y-49500D03*
X42000Y-50500D03*
X45000Y-50500D03*
X45000Y-49500D03*
X45000Y-48500D03*
X45000Y-47500D03*
X45000Y-46500D03*
X45000Y-45500D03*
X45000Y-44500D03*
X45000Y-43500D03*
G54D12*
X35000Y-65000D03*
G54D13*
X36000Y-65000D03*
X37000Y-65000D03*
X38000Y-65000D03*
X39000Y-65000D03*
X40000Y-65000D03*
X41000Y-65000D03*
X42000Y-65000D03*
X42000Y-62000D03*
X41000Y-62000D03*
X40000Y-62000D03*
X39000Y-62000D03*
X38000Y-62000D03*
X37000Y-62000D03*
X36000Y-62000D03*
X35000Y-62000D03*
G54D12*
X35000Y-57500D03*
G54D13*
X36000Y-57500D03*
X37000Y-57500D03*
X38000Y-57500D03*
X39000Y-57500D03*
X40000Y-57500D03*
X41000Y-57500D03*
X42000Y-57500D03*
X42000Y-54500D03*
X41000Y-54500D03*
X40000Y-54500D03*
X39000Y-54500D03*
X38000Y-54500D03*
X37000Y-54500D03*
X36000Y-54500D03*
X35000Y-54500D03*
G54D12*
X35500Y-28500D03*
G54D13*
X36500Y-28500D03*
X37500Y-28500D03*
X38500Y-28500D03*
X39500Y-28500D03*
X40500Y-28500D03*
X41500Y-28500D03*
X42500Y-28500D03*
X42500Y-25500D03*
X41500Y-25500D03*
X40500Y-25500D03*
X39500Y-25500D03*
X38500Y-25500D03*
X37500Y-25500D03*
X36500Y-25500D03*
X35500Y-25500D03*
G54D12*
X49000Y-28400D03*
G54D13*
X49000Y-29400D03*
X49000Y-30400D03*
X49000Y-31400D03*
X49000Y-32400D03*
X49000Y-33400D03*
X49000Y-34400D03*
X49000Y-35400D03*
X49000Y-36400D03*
X49000Y-37400D03*
G54D12*
X30000Y-41000D03*
G54D13*
X30000Y-42000D03*
X30000Y-43000D03*
X30000Y-44000D03*
X30000Y-45000D03*
X30000Y-46000D03*
M02*
