G04 (created by PCBNEW-RS274X (2012-01-19 BZR 3256)-stable) date 4/18/2012 11:58:31 PM*
G01*
G70*
G90*
%MOIN*%
G04 Gerber Fmt 3.4, Leading zero omitted, Abs format*
%FSLAX34Y34*%
G04 APERTURE LIST*
%ADD10C,0.006000*%
%ADD11C,0.015000*%
%ADD12C,0.012000*%
%ADD13C,0.010700*%
%ADD14C,0.010000*%
%ADD15C,0.008000*%
%ADD16C,0.011300*%
G04 APERTURE END LIST*
G54D10*
G54D11*
X23350Y-11750D02*
X23350Y-73550D01*
X56600Y-11750D02*
X23350Y-11750D01*
X56600Y-73550D02*
X56600Y-11750D01*
X23400Y-73550D02*
X56600Y-73550D01*
G54D12*
X40405Y-46041D02*
X40443Y-45955D01*
X40481Y-45927D01*
X40557Y-45898D01*
X40671Y-45898D01*
X40748Y-45927D01*
X40786Y-45955D01*
X40824Y-46013D01*
X40824Y-46241D01*
X40024Y-46241D01*
X40024Y-46041D01*
X40062Y-45984D01*
X40100Y-45955D01*
X40176Y-45927D01*
X40252Y-45927D01*
X40329Y-45955D01*
X40367Y-45984D01*
X40405Y-46041D01*
X40405Y-46241D01*
X40824Y-45641D02*
X40290Y-45641D01*
X40443Y-45641D02*
X40367Y-45613D01*
X40329Y-45584D01*
X40290Y-45527D01*
X40290Y-45470D01*
X40824Y-45184D02*
X40786Y-45242D01*
X40748Y-45270D01*
X40671Y-45299D01*
X40443Y-45299D01*
X40367Y-45270D01*
X40329Y-45242D01*
X40290Y-45184D01*
X40290Y-45099D01*
X40329Y-45042D01*
X40367Y-45013D01*
X40443Y-44984D01*
X40671Y-44984D01*
X40748Y-45013D01*
X40786Y-45042D01*
X40824Y-45099D01*
X40824Y-45184D01*
X40786Y-44470D02*
X40824Y-44527D01*
X40824Y-44641D01*
X40786Y-44699D01*
X40748Y-44727D01*
X40671Y-44756D01*
X40443Y-44756D01*
X40367Y-44727D01*
X40329Y-44699D01*
X40290Y-44641D01*
X40290Y-44527D01*
X40329Y-44470D01*
X40824Y-44213D02*
X40024Y-44213D01*
X40519Y-44156D02*
X40824Y-43985D01*
X40290Y-43985D02*
X40595Y-44213D01*
X40595Y-43299D02*
X40595Y-43013D01*
X40824Y-43356D02*
X40024Y-43156D01*
X40824Y-42956D01*
X40290Y-42756D02*
X40824Y-42756D01*
X40367Y-42756D02*
X40329Y-42728D01*
X40290Y-42670D01*
X40290Y-42585D01*
X40329Y-42528D01*
X40405Y-42499D01*
X40824Y-42499D01*
X40824Y-41956D02*
X40024Y-41956D01*
X40786Y-41956D02*
X40824Y-42013D01*
X40824Y-42127D01*
X40786Y-42185D01*
X40748Y-42213D01*
X40671Y-42242D01*
X40443Y-42242D01*
X40367Y-42213D01*
X40329Y-42185D01*
X40290Y-42127D01*
X40290Y-42013D01*
X40329Y-41956D01*
X40786Y-41442D02*
X40824Y-41499D01*
X40824Y-41613D01*
X40786Y-41670D01*
X40710Y-41699D01*
X40405Y-41699D01*
X40329Y-41670D01*
X40290Y-41613D01*
X40290Y-41499D01*
X40329Y-41442D01*
X40405Y-41413D01*
X40481Y-41413D01*
X40557Y-41699D01*
X40824Y-41156D02*
X40290Y-41156D01*
X40443Y-41156D02*
X40367Y-41128D01*
X40329Y-41099D01*
X40290Y-41042D01*
X40290Y-40985D01*
X40786Y-40814D02*
X40824Y-40757D01*
X40824Y-40642D01*
X40786Y-40585D01*
X40710Y-40557D01*
X40671Y-40557D01*
X40595Y-40585D01*
X40557Y-40642D01*
X40557Y-40728D01*
X40519Y-40785D01*
X40443Y-40814D01*
X40405Y-40814D01*
X40329Y-40785D01*
X40290Y-40728D01*
X40290Y-40642D01*
X40329Y-40585D01*
X40824Y-40213D02*
X40786Y-40271D01*
X40748Y-40299D01*
X40671Y-40328D01*
X40443Y-40328D01*
X40367Y-40299D01*
X40329Y-40271D01*
X40290Y-40213D01*
X40290Y-40128D01*
X40329Y-40071D01*
X40367Y-40042D01*
X40443Y-40013D01*
X40671Y-40013D01*
X40748Y-40042D01*
X40786Y-40071D01*
X40824Y-40128D01*
X40824Y-40213D01*
X40290Y-39756D02*
X40824Y-39756D01*
X40367Y-39756D02*
X40329Y-39728D01*
X40290Y-39670D01*
X40290Y-39585D01*
X40329Y-39528D01*
X40405Y-39499D01*
X40824Y-39499D01*
X40100Y-38785D02*
X40062Y-38756D01*
X40024Y-38699D01*
X40024Y-38556D01*
X40062Y-38499D01*
X40100Y-38470D01*
X40176Y-38442D01*
X40252Y-38442D01*
X40367Y-38470D01*
X40824Y-38813D01*
X40824Y-38442D01*
X40024Y-38071D02*
X40024Y-38014D01*
X40062Y-37957D01*
X40100Y-37928D01*
X40176Y-37899D01*
X40329Y-37871D01*
X40519Y-37871D01*
X40671Y-37899D01*
X40748Y-37928D01*
X40786Y-37957D01*
X40824Y-38014D01*
X40824Y-38071D01*
X40786Y-38128D01*
X40748Y-38157D01*
X40671Y-38185D01*
X40519Y-38214D01*
X40329Y-38214D01*
X40176Y-38185D01*
X40100Y-38157D01*
X40062Y-38128D01*
X40024Y-38071D01*
X40824Y-37300D02*
X40824Y-37643D01*
X40824Y-37471D02*
X40024Y-37471D01*
X40138Y-37528D01*
X40214Y-37586D01*
X40252Y-37643D01*
X40100Y-37072D02*
X40062Y-37043D01*
X40024Y-36986D01*
X40024Y-36843D01*
X40062Y-36786D01*
X40100Y-36757D01*
X40176Y-36729D01*
X40252Y-36729D01*
X40367Y-36757D01*
X40824Y-37100D01*
X40824Y-36729D01*
X38405Y-44543D02*
X38405Y-44343D01*
X38824Y-44257D02*
X38824Y-44543D01*
X38024Y-44543D01*
X38024Y-44257D01*
X38786Y-43743D02*
X38824Y-43800D01*
X38824Y-43914D01*
X38786Y-43972D01*
X38748Y-44000D01*
X38671Y-44029D01*
X38443Y-44029D01*
X38367Y-44000D01*
X38329Y-43972D01*
X38290Y-43914D01*
X38290Y-43800D01*
X38329Y-43743D01*
X38824Y-43400D02*
X38786Y-43458D01*
X38748Y-43486D01*
X38671Y-43515D01*
X38443Y-43515D01*
X38367Y-43486D01*
X38329Y-43458D01*
X38290Y-43400D01*
X38290Y-43315D01*
X38329Y-43258D01*
X38367Y-43229D01*
X38443Y-43200D01*
X38671Y-43200D01*
X38748Y-43229D01*
X38786Y-43258D01*
X38824Y-43315D01*
X38824Y-43400D01*
X38824Y-42857D02*
X38786Y-42915D01*
X38710Y-42943D01*
X38024Y-42943D01*
X38824Y-42629D02*
X38290Y-42629D01*
X38024Y-42629D02*
X38062Y-42658D01*
X38100Y-42629D01*
X38062Y-42601D01*
X38024Y-42629D01*
X38100Y-42629D01*
X38290Y-42343D02*
X38824Y-42343D01*
X38367Y-42343D02*
X38329Y-42315D01*
X38290Y-42257D01*
X38290Y-42172D01*
X38329Y-42115D01*
X38405Y-42086D01*
X38824Y-42086D01*
X38824Y-41714D02*
X38786Y-41772D01*
X38748Y-41800D01*
X38671Y-41829D01*
X38443Y-41829D01*
X38367Y-41800D01*
X38329Y-41772D01*
X38290Y-41714D01*
X38290Y-41629D01*
X38329Y-41572D01*
X38367Y-41543D01*
X38443Y-41514D01*
X38671Y-41514D01*
X38748Y-41543D01*
X38786Y-41572D01*
X38824Y-41629D01*
X38824Y-41714D01*
X38824Y-40800D02*
X38024Y-40800D01*
X38405Y-40800D02*
X38405Y-40457D01*
X38824Y-40457D02*
X38024Y-40457D01*
X38824Y-40171D02*
X38290Y-40171D01*
X38024Y-40171D02*
X38062Y-40200D01*
X38100Y-40171D01*
X38062Y-40143D01*
X38024Y-40171D01*
X38100Y-40171D01*
X38290Y-39885D02*
X38976Y-39885D01*
X39052Y-39914D01*
X39090Y-39971D01*
X39090Y-39999D01*
X38024Y-39885D02*
X38062Y-39914D01*
X38100Y-39885D01*
X38062Y-39857D01*
X38024Y-39885D01*
X38100Y-39885D01*
X38824Y-39342D02*
X38405Y-39342D01*
X38329Y-39371D01*
X38290Y-39428D01*
X38290Y-39542D01*
X38329Y-39599D01*
X38786Y-39342D02*
X38824Y-39399D01*
X38824Y-39542D01*
X38786Y-39599D01*
X38710Y-39628D01*
X38633Y-39628D01*
X38557Y-39599D01*
X38519Y-39542D01*
X38519Y-39399D01*
X38481Y-39342D01*
X38786Y-38799D02*
X38824Y-38856D01*
X38824Y-38970D01*
X38786Y-39028D01*
X38748Y-39056D01*
X38671Y-39085D01*
X38443Y-39085D01*
X38367Y-39056D01*
X38329Y-39028D01*
X38290Y-38970D01*
X38290Y-38856D01*
X38329Y-38799D01*
X38824Y-38542D02*
X38024Y-38542D01*
X38519Y-38485D02*
X38824Y-38314D01*
X38290Y-38314D02*
X38595Y-38542D01*
X38786Y-37828D02*
X38824Y-37885D01*
X38824Y-37999D01*
X38786Y-38056D01*
X38710Y-38085D01*
X38405Y-38085D01*
X38329Y-38056D01*
X38290Y-37999D01*
X38290Y-37885D01*
X38329Y-37828D01*
X38405Y-37799D01*
X38481Y-37799D01*
X38557Y-38085D01*
X38824Y-37542D02*
X38290Y-37542D01*
X38443Y-37542D02*
X38367Y-37514D01*
X38329Y-37485D01*
X38290Y-37428D01*
X38290Y-37371D01*
X49500Y-38500D02*
X49500Y-46500D01*
X49500Y-46500D02*
X48500Y-46500D01*
X48500Y-46500D02*
X48500Y-38500D01*
X48500Y-38500D02*
X49500Y-38500D01*
X48500Y-39500D02*
X49500Y-39500D01*
X30500Y-31500D02*
X30500Y-39500D01*
X30500Y-39500D02*
X29500Y-39500D01*
X29500Y-39500D02*
X29500Y-31500D01*
X29500Y-31500D02*
X30500Y-31500D01*
X29500Y-32500D02*
X30500Y-32500D01*
G54D11*
X34000Y-15500D02*
X44000Y-15500D01*
X44000Y-15500D02*
X44000Y-17500D01*
X44000Y-17500D02*
X34000Y-17500D01*
G54D12*
X34000Y-15500D02*
X34000Y-17500D01*
G54D11*
X34000Y-68500D02*
X44000Y-68500D01*
X44000Y-68500D02*
X44000Y-70500D01*
X44000Y-70500D02*
X34000Y-70500D01*
G54D12*
X34000Y-68500D02*
X34000Y-70500D01*
G54D11*
X35500Y-29500D02*
X35500Y-30000D01*
X35500Y-30000D02*
X34500Y-30000D01*
X34500Y-30000D02*
X34500Y-29500D01*
X36000Y-29500D02*
X36000Y-40500D01*
X36000Y-40500D02*
X34000Y-40500D01*
X34000Y-40500D02*
X34000Y-29500D01*
X34000Y-29500D02*
X36000Y-29500D01*
X35500Y-41500D02*
X35500Y-42000D01*
X35500Y-42000D02*
X34500Y-42000D01*
X34500Y-42000D02*
X34500Y-41500D01*
X36000Y-41500D02*
X36000Y-52500D01*
X36000Y-52500D02*
X34000Y-52500D01*
X34000Y-52500D02*
X34000Y-41500D01*
X34000Y-41500D02*
X36000Y-41500D01*
X34500Y-21000D02*
X34500Y-21000D01*
X34500Y-21000D02*
X35000Y-21000D01*
X35000Y-21000D02*
X35000Y-22000D01*
X35000Y-22000D02*
X34500Y-22000D01*
X34500Y-20500D02*
X43500Y-20500D01*
X43500Y-20500D02*
X43500Y-22500D01*
X43500Y-22500D02*
X34500Y-22500D01*
X34500Y-22500D02*
X34500Y-20500D01*
X44000Y-31500D02*
X44000Y-31500D01*
X44000Y-31500D02*
X44000Y-32000D01*
X44000Y-32000D02*
X43000Y-32000D01*
X43000Y-32000D02*
X43000Y-31500D01*
X44500Y-31500D02*
X44500Y-40500D01*
X44500Y-40500D02*
X42500Y-40500D01*
X42500Y-40500D02*
X42500Y-31500D01*
X42500Y-31500D02*
X44500Y-31500D01*
X44000Y-42500D02*
X44000Y-42500D01*
X44000Y-42500D02*
X44000Y-43000D01*
X44000Y-43000D02*
X43000Y-43000D01*
X43000Y-43000D02*
X43000Y-42500D01*
X44500Y-42500D02*
X44500Y-51500D01*
X44500Y-51500D02*
X42500Y-51500D01*
X42500Y-51500D02*
X42500Y-42500D01*
X42500Y-42500D02*
X44500Y-42500D01*
X34000Y-63000D02*
X34000Y-63000D01*
X34000Y-63000D02*
X34500Y-63000D01*
X34500Y-63000D02*
X34500Y-64000D01*
X34500Y-64000D02*
X34000Y-64000D01*
X34000Y-62500D02*
X43000Y-62500D01*
X43000Y-62500D02*
X43000Y-64500D01*
X43000Y-64500D02*
X34000Y-64500D01*
X34000Y-64500D02*
X34000Y-62500D01*
X34000Y-55500D02*
X34000Y-55500D01*
X34000Y-55500D02*
X34500Y-55500D01*
X34500Y-55500D02*
X34500Y-56500D01*
X34500Y-56500D02*
X34000Y-56500D01*
X34000Y-55000D02*
X43000Y-55000D01*
X43000Y-55000D02*
X43000Y-57000D01*
X43000Y-57000D02*
X34000Y-57000D01*
X34000Y-57000D02*
X34000Y-55000D01*
X34500Y-26500D02*
X34500Y-26500D01*
X34500Y-26500D02*
X35000Y-26500D01*
X35000Y-26500D02*
X35000Y-27500D01*
X35000Y-27500D02*
X34500Y-27500D01*
X34500Y-26000D02*
X43500Y-26000D01*
X43500Y-26000D02*
X43500Y-28000D01*
X43500Y-28000D02*
X34500Y-28000D01*
X34500Y-28000D02*
X34500Y-26000D01*
G54D12*
X48500Y-27900D02*
X49500Y-27900D01*
X49500Y-27900D02*
X49500Y-37900D01*
X49500Y-37900D02*
X48500Y-37900D01*
X48500Y-37900D02*
X48500Y-27900D01*
X48500Y-28900D02*
X49500Y-28900D01*
X29500Y-40500D02*
X30500Y-40500D01*
X30500Y-40500D02*
X30500Y-46500D01*
X30500Y-46500D02*
X29500Y-46500D01*
X29500Y-46500D02*
X29500Y-40500D01*
X29500Y-41500D02*
X30500Y-41500D01*
G54D13*
X50275Y-40316D02*
X49594Y-40316D01*
X49594Y-40153D01*
X49627Y-40112D01*
X49659Y-40092D01*
X49724Y-40072D01*
X49821Y-40072D01*
X49886Y-40092D01*
X49918Y-40112D01*
X49951Y-40153D01*
X49951Y-40316D01*
X49594Y-39684D02*
X49594Y-39888D01*
X49918Y-39908D01*
X49886Y-39888D01*
X49854Y-39847D01*
X49854Y-39745D01*
X49886Y-39705D01*
X49918Y-39684D01*
X49983Y-39664D01*
X50145Y-39664D01*
X50210Y-39684D01*
X50243Y-39705D01*
X50275Y-39745D01*
X50275Y-39847D01*
X50243Y-39888D01*
X50210Y-39908D01*
G54D14*
X50186Y-46062D02*
X50214Y-46081D01*
X50243Y-46138D01*
X50243Y-46176D01*
X50214Y-46234D01*
X50157Y-46272D01*
X50100Y-46291D01*
X49986Y-46310D01*
X49900Y-46310D01*
X49786Y-46291D01*
X49729Y-46272D01*
X49671Y-46234D01*
X49643Y-46176D01*
X49643Y-46138D01*
X49671Y-46081D01*
X49700Y-46062D01*
X49643Y-45815D02*
X49643Y-45738D01*
X49671Y-45700D01*
X49729Y-45662D01*
X49843Y-45643D01*
X50043Y-45643D01*
X50157Y-45662D01*
X50214Y-45700D01*
X50243Y-45738D01*
X50243Y-45815D01*
X50214Y-45853D01*
X50157Y-45891D01*
X50043Y-45910D01*
X49843Y-45910D01*
X49729Y-45891D01*
X49671Y-45853D01*
X49643Y-45815D01*
X50243Y-45472D02*
X49643Y-45472D01*
X50243Y-45243D01*
X49643Y-45243D01*
X50243Y-45053D02*
X49643Y-45053D01*
X50243Y-44824D01*
X49643Y-44824D01*
X50300Y-44729D02*
X50300Y-44424D01*
X50243Y-44329D02*
X49643Y-44329D01*
X49643Y-44176D01*
X49671Y-44138D01*
X49700Y-44119D01*
X49757Y-44100D01*
X49843Y-44100D01*
X49900Y-44119D01*
X49929Y-44138D01*
X49957Y-44176D01*
X49957Y-44329D01*
X50243Y-43700D02*
X49957Y-43834D01*
X50243Y-43929D02*
X49643Y-43929D01*
X49643Y-43776D01*
X49671Y-43738D01*
X49700Y-43719D01*
X49757Y-43700D01*
X49843Y-43700D01*
X49900Y-43719D01*
X49929Y-43738D01*
X49957Y-43776D01*
X49957Y-43929D01*
X49643Y-43586D02*
X49643Y-43357D01*
X50243Y-43472D02*
X49643Y-43472D01*
X50300Y-43319D02*
X50300Y-43014D01*
X50243Y-42919D02*
X49643Y-42919D01*
X49643Y-42824D01*
X49671Y-42766D01*
X49729Y-42728D01*
X49786Y-42709D01*
X49900Y-42690D01*
X49986Y-42690D01*
X50100Y-42709D01*
X50157Y-42728D01*
X50214Y-42766D01*
X50243Y-42824D01*
X50243Y-42919D01*
G54D13*
X31275Y-33316D02*
X30594Y-33316D01*
X30594Y-33153D01*
X30627Y-33112D01*
X30659Y-33092D01*
X30724Y-33072D01*
X30821Y-33072D01*
X30886Y-33092D01*
X30918Y-33112D01*
X30951Y-33153D01*
X30951Y-33316D01*
X30594Y-32705D02*
X30594Y-32786D01*
X30627Y-32827D01*
X30659Y-32847D01*
X30756Y-32888D01*
X30886Y-32908D01*
X31145Y-32908D01*
X31210Y-32888D01*
X31243Y-32868D01*
X31275Y-32827D01*
X31275Y-32745D01*
X31243Y-32705D01*
X31210Y-32684D01*
X31145Y-32664D01*
X30983Y-32664D01*
X30918Y-32684D01*
X30886Y-32705D01*
X30854Y-32745D01*
X30854Y-32827D01*
X30886Y-32868D01*
X30918Y-32888D01*
X30983Y-32908D01*
G54D14*
X31186Y-38785D02*
X31214Y-38804D01*
X31243Y-38861D01*
X31243Y-38899D01*
X31214Y-38957D01*
X31157Y-38995D01*
X31100Y-39014D01*
X30986Y-39033D01*
X30900Y-39033D01*
X30786Y-39014D01*
X30729Y-38995D01*
X30671Y-38957D01*
X30643Y-38899D01*
X30643Y-38861D01*
X30671Y-38804D01*
X30700Y-38785D01*
X30643Y-38538D02*
X30643Y-38461D01*
X30671Y-38423D01*
X30729Y-38385D01*
X30843Y-38366D01*
X31043Y-38366D01*
X31157Y-38385D01*
X31214Y-38423D01*
X31243Y-38461D01*
X31243Y-38538D01*
X31214Y-38576D01*
X31157Y-38614D01*
X31043Y-38633D01*
X30843Y-38633D01*
X30729Y-38614D01*
X30671Y-38576D01*
X30643Y-38538D01*
X31243Y-38195D02*
X30643Y-38195D01*
X31243Y-37966D01*
X30643Y-37966D01*
X31243Y-37776D02*
X30643Y-37776D01*
X31243Y-37547D01*
X30643Y-37547D01*
X31300Y-37452D02*
X31300Y-37147D01*
X31243Y-37052D02*
X30643Y-37052D01*
X30643Y-36899D01*
X30671Y-36861D01*
X30700Y-36842D01*
X30757Y-36823D01*
X30843Y-36823D01*
X30900Y-36842D01*
X30929Y-36861D01*
X30957Y-36899D01*
X30957Y-37052D01*
X30643Y-36690D02*
X31243Y-36595D01*
X30814Y-36518D01*
X31243Y-36442D01*
X30643Y-36347D01*
X31243Y-35966D02*
X30957Y-36100D01*
X31243Y-36195D02*
X30643Y-36195D01*
X30643Y-36042D01*
X30671Y-36004D01*
X30700Y-35985D01*
X30757Y-35966D01*
X30843Y-35966D01*
X30900Y-35985D01*
X30929Y-36004D01*
X30957Y-36042D01*
X30957Y-36195D01*
X38705Y-15162D02*
X38705Y-14762D01*
X38858Y-14762D01*
X38896Y-14781D01*
X38915Y-14800D01*
X38934Y-14838D01*
X38934Y-14895D01*
X38915Y-14933D01*
X38896Y-14952D01*
X38858Y-14971D01*
X38705Y-14971D01*
X39315Y-15162D02*
X39086Y-15162D01*
X39200Y-15162D02*
X39200Y-14762D01*
X39162Y-14819D01*
X39124Y-14857D01*
X39086Y-14876D01*
G54D15*
X36448Y-18124D02*
X36429Y-18143D01*
X36372Y-18162D01*
X36334Y-18162D01*
X36276Y-18143D01*
X36238Y-18105D01*
X36219Y-18067D01*
X36200Y-17990D01*
X36200Y-17933D01*
X36219Y-17857D01*
X36238Y-17819D01*
X36276Y-17781D01*
X36334Y-17762D01*
X36372Y-17762D01*
X36429Y-17781D01*
X36448Y-17800D01*
X36695Y-17762D02*
X36772Y-17762D01*
X36810Y-17781D01*
X36848Y-17819D01*
X36867Y-17895D01*
X36867Y-18029D01*
X36848Y-18105D01*
X36810Y-18143D01*
X36772Y-18162D01*
X36695Y-18162D01*
X36657Y-18143D01*
X36619Y-18105D01*
X36600Y-18029D01*
X36600Y-17895D01*
X36619Y-17819D01*
X36657Y-17781D01*
X36695Y-17762D01*
X37038Y-18162D02*
X37038Y-17762D01*
X37267Y-18162D01*
X37267Y-17762D01*
X37457Y-18162D02*
X37457Y-17762D01*
X37686Y-18162D01*
X37686Y-17762D01*
X37781Y-18200D02*
X38086Y-18200D01*
X38315Y-17952D02*
X38372Y-17971D01*
X38391Y-17990D01*
X38410Y-18029D01*
X38410Y-18086D01*
X38391Y-18124D01*
X38372Y-18143D01*
X38334Y-18162D01*
X38181Y-18162D01*
X38181Y-17762D01*
X38315Y-17762D01*
X38353Y-17781D01*
X38372Y-17800D01*
X38391Y-17838D01*
X38391Y-17876D01*
X38372Y-17914D01*
X38353Y-17933D01*
X38315Y-17952D01*
X38181Y-17952D01*
X38657Y-17762D02*
X38734Y-17762D01*
X38772Y-17781D01*
X38810Y-17819D01*
X38829Y-17895D01*
X38829Y-18029D01*
X38810Y-18105D01*
X38772Y-18143D01*
X38734Y-18162D01*
X38657Y-18162D01*
X38619Y-18143D01*
X38581Y-18105D01*
X38562Y-18029D01*
X38562Y-17895D01*
X38581Y-17819D01*
X38619Y-17781D01*
X38657Y-17762D01*
X38981Y-18048D02*
X39172Y-18048D01*
X38943Y-18162D02*
X39076Y-17762D01*
X39210Y-18162D01*
X39572Y-18162D02*
X39438Y-17971D01*
X39343Y-18162D02*
X39343Y-17762D01*
X39496Y-17762D01*
X39534Y-17781D01*
X39553Y-17800D01*
X39572Y-17838D01*
X39572Y-17895D01*
X39553Y-17933D01*
X39534Y-17952D01*
X39496Y-17971D01*
X39343Y-17971D01*
X39743Y-18162D02*
X39743Y-17762D01*
X39838Y-17762D01*
X39896Y-17781D01*
X39934Y-17819D01*
X39953Y-17857D01*
X39972Y-17933D01*
X39972Y-17990D01*
X39953Y-18067D01*
X39934Y-18105D01*
X39896Y-18143D01*
X39838Y-18162D01*
X39743Y-18162D01*
X40048Y-18200D02*
X40353Y-18200D01*
X40658Y-18162D02*
X40429Y-18162D01*
X40543Y-18162D02*
X40543Y-17762D01*
X40505Y-17819D01*
X40467Y-17857D01*
X40429Y-17876D01*
X40905Y-17762D02*
X40944Y-17762D01*
X40982Y-17781D01*
X41001Y-17800D01*
X41020Y-17838D01*
X41039Y-17914D01*
X41039Y-18010D01*
X41020Y-18086D01*
X41001Y-18124D01*
X40982Y-18143D01*
X40944Y-18162D01*
X40905Y-18162D01*
X40867Y-18143D01*
X40848Y-18124D01*
X40829Y-18086D01*
X40810Y-18010D01*
X40810Y-17914D01*
X40829Y-17838D01*
X40848Y-17800D01*
X40867Y-17781D01*
X40905Y-17762D01*
X41172Y-17762D02*
X41439Y-18162D01*
X41439Y-17762D02*
X41172Y-18162D01*
X41572Y-17800D02*
X41591Y-17781D01*
X41629Y-17762D01*
X41725Y-17762D01*
X41763Y-17781D01*
X41782Y-17800D01*
X41801Y-17838D01*
X41801Y-17876D01*
X41782Y-17933D01*
X41553Y-18162D01*
X41801Y-18162D01*
G54D14*
X38705Y-68162D02*
X38705Y-67762D01*
X38858Y-67762D01*
X38896Y-67781D01*
X38915Y-67800D01*
X38934Y-67838D01*
X38934Y-67895D01*
X38915Y-67933D01*
X38896Y-67952D01*
X38858Y-67971D01*
X38705Y-67971D01*
X39086Y-67800D02*
X39105Y-67781D01*
X39143Y-67762D01*
X39239Y-67762D01*
X39277Y-67781D01*
X39296Y-67800D01*
X39315Y-67838D01*
X39315Y-67876D01*
X39296Y-67933D01*
X39067Y-68162D01*
X39315Y-68162D01*
G54D15*
X36505Y-71124D02*
X36486Y-71143D01*
X36429Y-71162D01*
X36391Y-71162D01*
X36333Y-71143D01*
X36295Y-71105D01*
X36276Y-71067D01*
X36257Y-70990D01*
X36257Y-70933D01*
X36276Y-70857D01*
X36295Y-70819D01*
X36333Y-70781D01*
X36391Y-70762D01*
X36429Y-70762D01*
X36486Y-70781D01*
X36505Y-70800D01*
X36752Y-70762D02*
X36829Y-70762D01*
X36867Y-70781D01*
X36905Y-70819D01*
X36924Y-70895D01*
X36924Y-71029D01*
X36905Y-71105D01*
X36867Y-71143D01*
X36829Y-71162D01*
X36752Y-71162D01*
X36714Y-71143D01*
X36676Y-71105D01*
X36657Y-71029D01*
X36657Y-70895D01*
X36676Y-70819D01*
X36714Y-70781D01*
X36752Y-70762D01*
X37095Y-71162D02*
X37095Y-70762D01*
X37324Y-71162D01*
X37324Y-70762D01*
X37514Y-71162D02*
X37514Y-70762D01*
X37743Y-71162D01*
X37743Y-70762D01*
X37838Y-71200D02*
X38143Y-71200D01*
X38238Y-71162D02*
X38238Y-70762D01*
X38391Y-70762D01*
X38429Y-70781D01*
X38448Y-70800D01*
X38467Y-70838D01*
X38467Y-70895D01*
X38448Y-70933D01*
X38429Y-70952D01*
X38391Y-70971D01*
X38238Y-70971D01*
X38619Y-71048D02*
X38810Y-71048D01*
X38581Y-71162D02*
X38714Y-70762D01*
X38848Y-71162D01*
X38981Y-71162D02*
X38981Y-70762D01*
X39210Y-71162D01*
X39210Y-70762D01*
X39400Y-70952D02*
X39534Y-70952D01*
X39591Y-71162D02*
X39400Y-71162D01*
X39400Y-70762D01*
X39591Y-70762D01*
X39953Y-71162D02*
X39762Y-71162D01*
X39762Y-70762D01*
X39991Y-71200D02*
X40296Y-71200D01*
X40601Y-71162D02*
X40372Y-71162D01*
X40486Y-71162D02*
X40486Y-70762D01*
X40448Y-70819D01*
X40410Y-70857D01*
X40372Y-70876D01*
X40848Y-70762D02*
X40887Y-70762D01*
X40925Y-70781D01*
X40944Y-70800D01*
X40963Y-70838D01*
X40982Y-70914D01*
X40982Y-71010D01*
X40963Y-71086D01*
X40944Y-71124D01*
X40925Y-71143D01*
X40887Y-71162D01*
X40848Y-71162D01*
X40810Y-71143D01*
X40791Y-71124D01*
X40772Y-71086D01*
X40753Y-71010D01*
X40753Y-70914D01*
X40772Y-70838D01*
X40791Y-70800D01*
X40810Y-70781D01*
X40848Y-70762D01*
X41115Y-70762D02*
X41382Y-71162D01*
X41382Y-70762D02*
X41115Y-71162D01*
X41515Y-70800D02*
X41534Y-70781D01*
X41572Y-70762D01*
X41668Y-70762D01*
X41706Y-70781D01*
X41725Y-70800D01*
X41744Y-70838D01*
X41744Y-70876D01*
X41725Y-70933D01*
X41496Y-71162D01*
X41744Y-71162D01*
G54D16*
X35083Y-31843D02*
X35650Y-31843D01*
X35717Y-31821D01*
X35750Y-31800D01*
X35783Y-31757D01*
X35783Y-31671D01*
X35750Y-31629D01*
X35717Y-31607D01*
X35650Y-31586D01*
X35083Y-31586D01*
X35083Y-31158D02*
X35083Y-31372D01*
X35417Y-31393D01*
X35383Y-31372D01*
X35350Y-31329D01*
X35350Y-31222D01*
X35383Y-31179D01*
X35417Y-31158D01*
X35483Y-31136D01*
X35650Y-31136D01*
X35717Y-31158D01*
X35750Y-31179D01*
X35783Y-31222D01*
X35783Y-31329D01*
X35750Y-31372D01*
X35717Y-31393D01*
X34083Y-38905D02*
X34083Y-38605D01*
X34783Y-38798D01*
X34317Y-38240D02*
X34783Y-38240D01*
X34050Y-38347D02*
X34550Y-38454D01*
X34550Y-38176D01*
X34783Y-37790D02*
X34783Y-38004D01*
X34083Y-38004D01*
X34750Y-37661D02*
X34783Y-37597D01*
X34783Y-37490D01*
X34750Y-37447D01*
X34717Y-37426D01*
X34650Y-37404D01*
X34583Y-37404D01*
X34517Y-37426D01*
X34483Y-37447D01*
X34450Y-37490D01*
X34417Y-37576D01*
X34383Y-37618D01*
X34350Y-37640D01*
X34283Y-37661D01*
X34217Y-37661D01*
X34150Y-37640D01*
X34117Y-37618D01*
X34083Y-37576D01*
X34083Y-37468D01*
X34117Y-37404D01*
X34150Y-37232D02*
X34117Y-37211D01*
X34083Y-37168D01*
X34083Y-37061D01*
X34117Y-37018D01*
X34150Y-36997D01*
X34217Y-36975D01*
X34283Y-36975D01*
X34383Y-36997D01*
X34783Y-37254D01*
X34783Y-36975D01*
X34317Y-36589D02*
X34783Y-36589D01*
X34050Y-36696D02*
X34550Y-36803D01*
X34550Y-36525D01*
X34317Y-36160D02*
X34783Y-36160D01*
X34050Y-36267D02*
X34550Y-36374D01*
X34550Y-36096D01*
X35083Y-43843D02*
X35650Y-43843D01*
X35717Y-43821D01*
X35750Y-43800D01*
X35783Y-43757D01*
X35783Y-43671D01*
X35750Y-43629D01*
X35717Y-43607D01*
X35650Y-43586D01*
X35083Y-43586D01*
X35083Y-43179D02*
X35083Y-43265D01*
X35117Y-43308D01*
X35150Y-43329D01*
X35250Y-43372D01*
X35383Y-43393D01*
X35650Y-43393D01*
X35717Y-43372D01*
X35750Y-43350D01*
X35783Y-43308D01*
X35783Y-43222D01*
X35750Y-43179D01*
X35717Y-43158D01*
X35650Y-43136D01*
X35483Y-43136D01*
X35417Y-43158D01*
X35383Y-43179D01*
X35350Y-43222D01*
X35350Y-43308D01*
X35383Y-43350D01*
X35417Y-43372D01*
X35483Y-43393D01*
X34083Y-50905D02*
X34083Y-50605D01*
X34783Y-50798D01*
X34317Y-50240D02*
X34783Y-50240D01*
X34050Y-50347D02*
X34550Y-50454D01*
X34550Y-50176D01*
X34783Y-49790D02*
X34783Y-50004D01*
X34083Y-50004D01*
X34750Y-49661D02*
X34783Y-49597D01*
X34783Y-49490D01*
X34750Y-49447D01*
X34717Y-49426D01*
X34650Y-49404D01*
X34583Y-49404D01*
X34517Y-49426D01*
X34483Y-49447D01*
X34450Y-49490D01*
X34417Y-49576D01*
X34383Y-49618D01*
X34350Y-49640D01*
X34283Y-49661D01*
X34217Y-49661D01*
X34150Y-49640D01*
X34117Y-49618D01*
X34083Y-49576D01*
X34083Y-49468D01*
X34117Y-49404D01*
X34150Y-49232D02*
X34117Y-49211D01*
X34083Y-49168D01*
X34083Y-49061D01*
X34117Y-49018D01*
X34150Y-48997D01*
X34217Y-48975D01*
X34283Y-48975D01*
X34383Y-48997D01*
X34783Y-49254D01*
X34783Y-48975D01*
X34317Y-48589D02*
X34783Y-48589D01*
X34050Y-48696D02*
X34550Y-48803D01*
X34550Y-48525D01*
X34317Y-48160D02*
X34783Y-48160D01*
X34050Y-48267D02*
X34550Y-48374D01*
X34550Y-48096D01*
X36157Y-20643D02*
X36157Y-21129D01*
X36179Y-21186D01*
X36200Y-21214D01*
X36243Y-21243D01*
X36329Y-21243D01*
X36371Y-21214D01*
X36393Y-21186D01*
X36414Y-21129D01*
X36414Y-20643D01*
X36864Y-21243D02*
X36607Y-21243D01*
X36735Y-21243D02*
X36735Y-20643D01*
X36692Y-20729D01*
X36650Y-20786D01*
X36607Y-20814D01*
X37595Y-21143D02*
X37895Y-21143D01*
X37702Y-21743D01*
X38260Y-21343D02*
X38260Y-21743D01*
X38153Y-21114D02*
X38046Y-21543D01*
X38324Y-21543D01*
X38710Y-21743D02*
X38496Y-21743D01*
X38496Y-21143D01*
X38839Y-21714D02*
X38903Y-21743D01*
X39010Y-21743D01*
X39053Y-21714D01*
X39074Y-21686D01*
X39096Y-21629D01*
X39096Y-21571D01*
X39074Y-21514D01*
X39053Y-21486D01*
X39010Y-21457D01*
X38924Y-21429D01*
X38882Y-21400D01*
X38860Y-21371D01*
X38839Y-21314D01*
X38839Y-21257D01*
X38860Y-21200D01*
X38882Y-21171D01*
X38924Y-21143D01*
X39032Y-21143D01*
X39096Y-21171D01*
X39525Y-21743D02*
X39268Y-21743D01*
X39396Y-21743D02*
X39396Y-21143D01*
X39353Y-21229D01*
X39311Y-21286D01*
X39268Y-21314D01*
X39675Y-21143D02*
X39954Y-21143D01*
X39804Y-21371D01*
X39868Y-21371D01*
X39911Y-21400D01*
X39932Y-21429D01*
X39954Y-21486D01*
X39954Y-21629D01*
X39932Y-21686D01*
X39911Y-21714D01*
X39868Y-21743D01*
X39740Y-21743D01*
X39697Y-21714D01*
X39675Y-21686D01*
X40169Y-21743D02*
X40254Y-21743D01*
X40297Y-21714D01*
X40319Y-21686D01*
X40361Y-21600D01*
X40383Y-21486D01*
X40383Y-21257D01*
X40361Y-21200D01*
X40340Y-21171D01*
X40297Y-21143D01*
X40211Y-21143D01*
X40169Y-21171D01*
X40147Y-21200D01*
X40126Y-21257D01*
X40126Y-21400D01*
X40147Y-21457D01*
X40169Y-21486D01*
X40211Y-21514D01*
X40297Y-21514D01*
X40340Y-21486D01*
X40361Y-21457D01*
X40383Y-21400D01*
X43643Y-33843D02*
X44129Y-33843D01*
X44186Y-33821D01*
X44214Y-33800D01*
X44243Y-33757D01*
X44243Y-33671D01*
X44214Y-33629D01*
X44186Y-33607D01*
X44129Y-33586D01*
X43643Y-33586D01*
X43700Y-33393D02*
X43671Y-33372D01*
X43643Y-33329D01*
X43643Y-33222D01*
X43671Y-33179D01*
X43700Y-33158D01*
X43757Y-33136D01*
X43814Y-33136D01*
X43900Y-33158D01*
X44243Y-33415D01*
X44243Y-33136D01*
X42643Y-38405D02*
X42643Y-38105D01*
X43243Y-38298D01*
X42843Y-37740D02*
X43243Y-37740D01*
X42614Y-37847D02*
X43043Y-37954D01*
X43043Y-37676D01*
X43243Y-37290D02*
X43243Y-37504D01*
X42643Y-37504D01*
X43214Y-37161D02*
X43243Y-37097D01*
X43243Y-36990D01*
X43214Y-36947D01*
X43186Y-36926D01*
X43129Y-36904D01*
X43071Y-36904D01*
X43014Y-36926D01*
X42986Y-36947D01*
X42957Y-36990D01*
X42929Y-37076D01*
X42900Y-37118D01*
X42871Y-37140D01*
X42814Y-37161D01*
X42757Y-37161D01*
X42700Y-37140D01*
X42671Y-37118D01*
X42643Y-37076D01*
X42643Y-36968D01*
X42671Y-36904D01*
X42643Y-36497D02*
X42643Y-36711D01*
X42929Y-36732D01*
X42900Y-36711D01*
X42871Y-36668D01*
X42871Y-36561D01*
X42900Y-36518D01*
X42929Y-36497D01*
X42986Y-36475D01*
X43129Y-36475D01*
X43186Y-36497D01*
X43214Y-36518D01*
X43243Y-36561D01*
X43243Y-36668D01*
X43214Y-36711D01*
X43186Y-36732D01*
X43243Y-36260D02*
X43243Y-36175D01*
X43214Y-36132D01*
X43186Y-36110D01*
X43100Y-36068D01*
X42986Y-36046D01*
X42757Y-36046D01*
X42700Y-36068D01*
X42671Y-36089D01*
X42643Y-36132D01*
X42643Y-36218D01*
X42671Y-36260D01*
X42700Y-36282D01*
X42757Y-36303D01*
X42900Y-36303D01*
X42957Y-36282D01*
X42986Y-36260D01*
X43014Y-36218D01*
X43014Y-36132D01*
X42986Y-36089D01*
X42957Y-36068D01*
X42900Y-36046D01*
X42643Y-35639D02*
X42643Y-35853D01*
X42929Y-35874D01*
X42900Y-35853D01*
X42871Y-35810D01*
X42871Y-35703D01*
X42900Y-35660D01*
X42929Y-35639D01*
X42986Y-35617D01*
X43129Y-35617D01*
X43186Y-35639D01*
X43214Y-35660D01*
X43243Y-35703D01*
X43243Y-35810D01*
X43214Y-35853D01*
X43186Y-35874D01*
X43643Y-44843D02*
X44129Y-44843D01*
X44186Y-44821D01*
X44214Y-44800D01*
X44243Y-44757D01*
X44243Y-44671D01*
X44214Y-44629D01*
X44186Y-44607D01*
X44129Y-44586D01*
X43643Y-44586D01*
X43643Y-44415D02*
X43643Y-44136D01*
X43871Y-44286D01*
X43871Y-44222D01*
X43900Y-44179D01*
X43929Y-44158D01*
X43986Y-44136D01*
X44129Y-44136D01*
X44186Y-44158D01*
X44214Y-44179D01*
X44243Y-44222D01*
X44243Y-44350D01*
X44214Y-44393D01*
X44186Y-44415D01*
X42643Y-50405D02*
X42643Y-50105D01*
X43243Y-50298D01*
X42843Y-49740D02*
X43243Y-49740D01*
X42614Y-49847D02*
X43043Y-49954D01*
X43043Y-49676D01*
X43243Y-49290D02*
X43243Y-49504D01*
X42643Y-49504D01*
X43214Y-49161D02*
X43243Y-49097D01*
X43243Y-48990D01*
X43214Y-48947D01*
X43186Y-48926D01*
X43129Y-48904D01*
X43071Y-48904D01*
X43014Y-48926D01*
X42986Y-48947D01*
X42957Y-48990D01*
X42929Y-49076D01*
X42900Y-49118D01*
X42871Y-49140D01*
X42814Y-49161D01*
X42757Y-49161D01*
X42700Y-49140D01*
X42671Y-49118D01*
X42643Y-49076D01*
X42643Y-48968D01*
X42671Y-48904D01*
X42643Y-48497D02*
X42643Y-48711D01*
X42929Y-48732D01*
X42900Y-48711D01*
X42871Y-48668D01*
X42871Y-48561D01*
X42900Y-48518D01*
X42929Y-48497D01*
X42986Y-48475D01*
X43129Y-48475D01*
X43186Y-48497D01*
X43214Y-48518D01*
X43243Y-48561D01*
X43243Y-48668D01*
X43214Y-48711D01*
X43186Y-48732D01*
X43243Y-48260D02*
X43243Y-48175D01*
X43214Y-48132D01*
X43186Y-48110D01*
X43100Y-48068D01*
X42986Y-48046D01*
X42757Y-48046D01*
X42700Y-48068D01*
X42671Y-48089D01*
X42643Y-48132D01*
X42643Y-48218D01*
X42671Y-48260D01*
X42700Y-48282D01*
X42757Y-48303D01*
X42900Y-48303D01*
X42957Y-48282D01*
X42986Y-48260D01*
X43014Y-48218D01*
X43014Y-48132D01*
X42986Y-48089D01*
X42957Y-48068D01*
X42900Y-48046D01*
X42643Y-47639D02*
X42643Y-47853D01*
X42929Y-47874D01*
X42900Y-47853D01*
X42871Y-47810D01*
X42871Y-47703D01*
X42900Y-47660D01*
X42929Y-47639D01*
X42986Y-47617D01*
X43129Y-47617D01*
X43186Y-47639D01*
X43214Y-47660D01*
X43243Y-47703D01*
X43243Y-47810D01*
X43214Y-47853D01*
X43186Y-47874D01*
X35657Y-62643D02*
X35657Y-63129D01*
X35679Y-63186D01*
X35700Y-63214D01*
X35743Y-63243D01*
X35829Y-63243D01*
X35871Y-63214D01*
X35893Y-63186D01*
X35914Y-63129D01*
X35914Y-62643D01*
X36321Y-62843D02*
X36321Y-63243D01*
X36214Y-62614D02*
X36107Y-63043D01*
X36385Y-63043D01*
X38095Y-63643D02*
X38395Y-63643D01*
X38202Y-64243D01*
X38760Y-63843D02*
X38760Y-64243D01*
X38653Y-63614D02*
X38546Y-64043D01*
X38824Y-64043D01*
X39210Y-64243D02*
X38996Y-64243D01*
X38996Y-63643D01*
X39339Y-64214D02*
X39403Y-64243D01*
X39510Y-64243D01*
X39553Y-64214D01*
X39574Y-64186D01*
X39596Y-64129D01*
X39596Y-64071D01*
X39574Y-64014D01*
X39553Y-63986D01*
X39510Y-63957D01*
X39424Y-63929D01*
X39382Y-63900D01*
X39360Y-63871D01*
X39339Y-63814D01*
X39339Y-63757D01*
X39360Y-63700D01*
X39382Y-63671D01*
X39424Y-63643D01*
X39532Y-63643D01*
X39596Y-63671D01*
X40003Y-63643D02*
X39789Y-63643D01*
X39768Y-63929D01*
X39789Y-63900D01*
X39832Y-63871D01*
X39939Y-63871D01*
X39982Y-63900D01*
X40003Y-63929D01*
X40025Y-63986D01*
X40025Y-64129D01*
X40003Y-64186D01*
X39982Y-64214D01*
X39939Y-64243D01*
X39832Y-64243D01*
X39789Y-64214D01*
X39768Y-64186D01*
X40240Y-64243D02*
X40325Y-64243D01*
X40368Y-64214D01*
X40390Y-64186D01*
X40432Y-64100D01*
X40454Y-63986D01*
X40454Y-63757D01*
X40432Y-63700D01*
X40411Y-63671D01*
X40368Y-63643D01*
X40282Y-63643D01*
X40240Y-63671D01*
X40218Y-63700D01*
X40197Y-63757D01*
X40197Y-63900D01*
X40218Y-63957D01*
X40240Y-63986D01*
X40282Y-64014D01*
X40368Y-64014D01*
X40411Y-63986D01*
X40432Y-63957D01*
X40454Y-63900D01*
X40861Y-63643D02*
X40647Y-63643D01*
X40626Y-63929D01*
X40647Y-63900D01*
X40690Y-63871D01*
X40797Y-63871D01*
X40840Y-63900D01*
X40861Y-63929D01*
X40883Y-63986D01*
X40883Y-64129D01*
X40861Y-64186D01*
X40840Y-64214D01*
X40797Y-64243D01*
X40690Y-64243D01*
X40647Y-64214D01*
X40626Y-64186D01*
X35657Y-55143D02*
X35657Y-55629D01*
X35679Y-55686D01*
X35700Y-55714D01*
X35743Y-55743D01*
X35829Y-55743D01*
X35871Y-55714D01*
X35893Y-55686D01*
X35914Y-55629D01*
X35914Y-55143D01*
X36085Y-55143D02*
X36385Y-55143D01*
X36192Y-55743D01*
X38095Y-56143D02*
X38395Y-56143D01*
X38202Y-56743D01*
X38760Y-56343D02*
X38760Y-56743D01*
X38653Y-56114D02*
X38546Y-56543D01*
X38824Y-56543D01*
X39210Y-56743D02*
X38996Y-56743D01*
X38996Y-56143D01*
X39339Y-56714D02*
X39403Y-56743D01*
X39510Y-56743D01*
X39553Y-56714D01*
X39574Y-56686D01*
X39596Y-56629D01*
X39596Y-56571D01*
X39574Y-56514D01*
X39553Y-56486D01*
X39510Y-56457D01*
X39424Y-56429D01*
X39382Y-56400D01*
X39360Y-56371D01*
X39339Y-56314D01*
X39339Y-56257D01*
X39360Y-56200D01*
X39382Y-56171D01*
X39424Y-56143D01*
X39532Y-56143D01*
X39596Y-56171D01*
X40025Y-56743D02*
X39768Y-56743D01*
X39896Y-56743D02*
X39896Y-56143D01*
X39853Y-56229D01*
X39811Y-56286D01*
X39768Y-56314D01*
X40411Y-56143D02*
X40325Y-56143D01*
X40282Y-56171D01*
X40261Y-56200D01*
X40218Y-56286D01*
X40197Y-56400D01*
X40197Y-56629D01*
X40218Y-56686D01*
X40240Y-56714D01*
X40282Y-56743D01*
X40368Y-56743D01*
X40411Y-56714D01*
X40432Y-56686D01*
X40454Y-56629D01*
X40454Y-56486D01*
X40432Y-56429D01*
X40411Y-56400D01*
X40368Y-56371D01*
X40282Y-56371D01*
X40240Y-56400D01*
X40218Y-56429D01*
X40197Y-56486D01*
X40840Y-56143D02*
X40754Y-56143D01*
X40711Y-56171D01*
X40690Y-56200D01*
X40647Y-56286D01*
X40626Y-56400D01*
X40626Y-56629D01*
X40647Y-56686D01*
X40669Y-56714D01*
X40711Y-56743D01*
X40797Y-56743D01*
X40840Y-56714D01*
X40861Y-56686D01*
X40883Y-56629D01*
X40883Y-56486D01*
X40861Y-56429D01*
X40840Y-56400D01*
X40797Y-56371D01*
X40711Y-56371D01*
X40669Y-56400D01*
X40647Y-56429D01*
X40626Y-56486D01*
X36157Y-26143D02*
X36157Y-26629D01*
X36179Y-26686D01*
X36200Y-26714D01*
X36243Y-26743D01*
X36329Y-26743D01*
X36371Y-26714D01*
X36393Y-26686D01*
X36414Y-26629D01*
X36414Y-26143D01*
X36692Y-26400D02*
X36650Y-26371D01*
X36628Y-26343D01*
X36607Y-26286D01*
X36607Y-26257D01*
X36628Y-26200D01*
X36650Y-26171D01*
X36692Y-26143D01*
X36778Y-26143D01*
X36821Y-26171D01*
X36842Y-26200D01*
X36864Y-26257D01*
X36864Y-26286D01*
X36842Y-26343D01*
X36821Y-26371D01*
X36778Y-26400D01*
X36692Y-26400D01*
X36650Y-26429D01*
X36628Y-26457D01*
X36607Y-26514D01*
X36607Y-26629D01*
X36628Y-26686D01*
X36650Y-26714D01*
X36692Y-26743D01*
X36778Y-26743D01*
X36821Y-26714D01*
X36842Y-26686D01*
X36864Y-26629D01*
X36864Y-26514D01*
X36842Y-26457D01*
X36821Y-26429D01*
X36778Y-26400D01*
X38595Y-27143D02*
X38895Y-27143D01*
X38702Y-27743D01*
X39260Y-27343D02*
X39260Y-27743D01*
X39153Y-27114D02*
X39046Y-27543D01*
X39324Y-27543D01*
X39710Y-27743D02*
X39496Y-27743D01*
X39496Y-27143D01*
X39839Y-27714D02*
X39903Y-27743D01*
X40010Y-27743D01*
X40053Y-27714D01*
X40074Y-27686D01*
X40096Y-27629D01*
X40096Y-27571D01*
X40074Y-27514D01*
X40053Y-27486D01*
X40010Y-27457D01*
X39924Y-27429D01*
X39882Y-27400D01*
X39860Y-27371D01*
X39839Y-27314D01*
X39839Y-27257D01*
X39860Y-27200D01*
X39882Y-27171D01*
X39924Y-27143D01*
X40032Y-27143D01*
X40096Y-27171D01*
X40525Y-27743D02*
X40268Y-27743D01*
X40396Y-27743D02*
X40396Y-27143D01*
X40353Y-27229D01*
X40311Y-27286D01*
X40268Y-27314D01*
X40911Y-27143D02*
X40825Y-27143D01*
X40782Y-27171D01*
X40761Y-27200D01*
X40718Y-27286D01*
X40697Y-27400D01*
X40697Y-27629D01*
X40718Y-27686D01*
X40740Y-27714D01*
X40782Y-27743D01*
X40868Y-27743D01*
X40911Y-27714D01*
X40932Y-27686D01*
X40954Y-27629D01*
X40954Y-27486D01*
X40932Y-27429D01*
X40911Y-27400D01*
X40868Y-27371D01*
X40782Y-27371D01*
X40740Y-27400D01*
X40718Y-27429D01*
X40697Y-27486D01*
X41340Y-27143D02*
X41254Y-27143D01*
X41211Y-27171D01*
X41190Y-27200D01*
X41147Y-27286D01*
X41126Y-27400D01*
X41126Y-27629D01*
X41147Y-27686D01*
X41169Y-27714D01*
X41211Y-27743D01*
X41297Y-27743D01*
X41340Y-27714D01*
X41361Y-27686D01*
X41383Y-27629D01*
X41383Y-27486D01*
X41361Y-27429D01*
X41340Y-27400D01*
X41297Y-27371D01*
X41211Y-27371D01*
X41169Y-27400D01*
X41147Y-27429D01*
X41126Y-27486D01*
G54D13*
X50275Y-30716D02*
X49594Y-30716D01*
X49594Y-30553D01*
X49627Y-30512D01*
X49659Y-30492D01*
X49724Y-30472D01*
X49821Y-30472D01*
X49886Y-30492D01*
X49918Y-30512D01*
X49951Y-30553D01*
X49951Y-30716D01*
X49821Y-30105D02*
X50275Y-30105D01*
X49562Y-30207D02*
X50048Y-30308D01*
X50048Y-30044D01*
G54D14*
X50186Y-37171D02*
X50214Y-37190D01*
X50243Y-37247D01*
X50243Y-37285D01*
X50214Y-37343D01*
X50157Y-37381D01*
X50100Y-37400D01*
X49986Y-37419D01*
X49900Y-37419D01*
X49786Y-37400D01*
X49729Y-37381D01*
X49671Y-37343D01*
X49643Y-37285D01*
X49643Y-37247D01*
X49671Y-37190D01*
X49700Y-37171D01*
X49643Y-36924D02*
X49643Y-36847D01*
X49671Y-36809D01*
X49729Y-36771D01*
X49843Y-36752D01*
X50043Y-36752D01*
X50157Y-36771D01*
X50214Y-36809D01*
X50243Y-36847D01*
X50243Y-36924D01*
X50214Y-36962D01*
X50157Y-37000D01*
X50043Y-37019D01*
X49843Y-37019D01*
X49729Y-37000D01*
X49671Y-36962D01*
X49643Y-36924D01*
X50243Y-36581D02*
X49643Y-36581D01*
X50243Y-36352D01*
X49643Y-36352D01*
X50243Y-36162D02*
X49643Y-36162D01*
X50243Y-35933D01*
X49643Y-35933D01*
X50300Y-35838D02*
X50300Y-35533D01*
X50243Y-35438D02*
X49643Y-35438D01*
X49643Y-35285D01*
X49671Y-35247D01*
X49700Y-35228D01*
X49757Y-35209D01*
X49843Y-35209D01*
X49900Y-35228D01*
X49929Y-35247D01*
X49957Y-35285D01*
X49957Y-35438D01*
X49643Y-34962D02*
X49643Y-34885D01*
X49671Y-34847D01*
X49729Y-34809D01*
X49843Y-34790D01*
X50043Y-34790D01*
X50157Y-34809D01*
X50214Y-34847D01*
X50243Y-34885D01*
X50243Y-34962D01*
X50214Y-35000D01*
X50157Y-35038D01*
X50043Y-35057D01*
X49843Y-35057D01*
X49729Y-35038D01*
X49671Y-35000D01*
X49643Y-34962D01*
X50243Y-34390D02*
X49957Y-34524D01*
X50243Y-34619D02*
X49643Y-34619D01*
X49643Y-34466D01*
X49671Y-34428D01*
X49700Y-34409D01*
X49757Y-34390D01*
X49843Y-34390D01*
X49900Y-34409D01*
X49929Y-34428D01*
X49957Y-34466D01*
X49957Y-34619D01*
X49643Y-34276D02*
X49643Y-34047D01*
X50243Y-34162D02*
X49643Y-34162D01*
X50300Y-34009D02*
X50300Y-33704D01*
X49929Y-33475D02*
X49957Y-33418D01*
X49986Y-33399D01*
X50043Y-33380D01*
X50129Y-33380D01*
X50186Y-33399D01*
X50214Y-33418D01*
X50243Y-33456D01*
X50243Y-33609D01*
X49643Y-33609D01*
X49643Y-33475D01*
X49671Y-33437D01*
X49700Y-33418D01*
X49757Y-33399D01*
X49814Y-33399D01*
X49871Y-33418D01*
X49900Y-33437D01*
X49929Y-33475D01*
X49929Y-33609D01*
G54D13*
X31275Y-43816D02*
X30594Y-43816D01*
X30594Y-43653D01*
X30627Y-43612D01*
X30659Y-43592D01*
X30724Y-43572D01*
X30821Y-43572D01*
X30886Y-43592D01*
X30918Y-43612D01*
X30951Y-43653D01*
X30951Y-43816D01*
X30594Y-43429D02*
X30594Y-43164D01*
X30854Y-43307D01*
X30854Y-43245D01*
X30886Y-43205D01*
X30918Y-43184D01*
X30983Y-43164D01*
X31145Y-43164D01*
X31210Y-43184D01*
X31243Y-43205D01*
X31275Y-43245D01*
X31275Y-43368D01*
X31243Y-43408D01*
X31210Y-43429D01*
M02*
