G04 (created by PCBNEW-RS274X (2012-01-19 BZR 3256)-stable) date 4/18/2012 11:58:31 PM*
G01*
G70*
G90*
%MOIN*%
G04 Gerber Fmt 3.4, Leading zero omitted, Abs format*
%FSLAX34Y34*%
G04 APERTURE LIST*
%ADD10C,0.006000*%
%ADD11C,0.015000*%
%ADD12R,0.055000X0.055000*%
%ADD13C,0.055000*%
%ADD14R,0.060000X0.060000*%
%ADD15C,0.060000*%
%ADD16C,0.035000*%
%ADD17C,0.008000*%
%ADD18C,0.010000*%
G04 APERTURE END LIST*
G54D10*
G54D11*
X23350Y-11750D02*
X23350Y-73550D01*
X56600Y-11750D02*
X23350Y-11750D01*
X56600Y-73550D02*
X56600Y-11750D01*
X23400Y-73550D02*
X56600Y-73550D01*
G54D12*
X49000Y-39000D03*
G54D13*
X49000Y-40000D03*
X49000Y-41000D03*
X49000Y-42000D03*
X49000Y-43000D03*
X49000Y-44000D03*
X49000Y-45000D03*
X49000Y-46000D03*
G54D12*
X30000Y-32000D03*
G54D13*
X30000Y-33000D03*
X30000Y-34000D03*
X30000Y-35000D03*
X30000Y-36000D03*
X30000Y-37000D03*
X30000Y-38000D03*
X30000Y-39000D03*
G54D14*
X34500Y-17000D03*
G54D15*
X34500Y-16000D03*
X39500Y-17000D03*
X35500Y-16000D03*
X40500Y-17000D03*
X36500Y-16000D03*
X41500Y-17000D03*
X37500Y-16000D03*
X42500Y-17000D03*
X38500Y-16000D03*
X43500Y-17000D03*
X39500Y-16000D03*
X40500Y-16000D03*
X41500Y-16000D03*
X42500Y-16000D03*
X43500Y-16000D03*
X35500Y-17000D03*
X36500Y-17000D03*
X37500Y-17000D03*
X38500Y-17000D03*
G54D14*
X34500Y-70000D03*
G54D15*
X34500Y-69000D03*
X39500Y-70000D03*
X35500Y-69000D03*
X40500Y-70000D03*
X36500Y-69000D03*
X41500Y-70000D03*
X37500Y-69000D03*
X42500Y-70000D03*
X38500Y-69000D03*
X43500Y-70000D03*
X39500Y-69000D03*
X40500Y-69000D03*
X41500Y-69000D03*
X42500Y-69000D03*
X43500Y-69000D03*
X35500Y-70000D03*
X36500Y-70000D03*
X37500Y-70000D03*
X38500Y-70000D03*
G54D12*
X33500Y-30500D03*
G54D13*
X33500Y-31500D03*
X33500Y-32500D03*
X33500Y-33500D03*
X33500Y-34500D03*
X33500Y-35500D03*
X33500Y-36500D03*
X33500Y-37500D03*
X33500Y-38500D03*
X33500Y-39500D03*
X36500Y-39500D03*
X36500Y-38500D03*
X36500Y-37500D03*
X36500Y-36500D03*
X36500Y-35500D03*
X36500Y-34500D03*
X36500Y-33500D03*
X36500Y-32500D03*
X36500Y-31500D03*
X36500Y-30500D03*
G54D12*
X33500Y-42500D03*
G54D13*
X33500Y-43500D03*
X33500Y-44500D03*
X33500Y-45500D03*
X33500Y-46500D03*
X33500Y-47500D03*
X33500Y-48500D03*
X33500Y-49500D03*
X33500Y-50500D03*
X33500Y-51500D03*
X36500Y-51500D03*
X36500Y-50500D03*
X36500Y-49500D03*
X36500Y-48500D03*
X36500Y-47500D03*
X36500Y-46500D03*
X36500Y-45500D03*
X36500Y-44500D03*
X36500Y-43500D03*
X36500Y-42500D03*
G54D12*
X35500Y-23000D03*
G54D13*
X36500Y-23000D03*
X37500Y-23000D03*
X38500Y-23000D03*
X39500Y-23000D03*
X40500Y-23000D03*
X41500Y-23000D03*
X42500Y-23000D03*
X42500Y-20000D03*
X41500Y-20000D03*
X40500Y-20000D03*
X39500Y-20000D03*
X38500Y-20000D03*
X37500Y-20000D03*
X36500Y-20000D03*
X35500Y-20000D03*
G54D12*
X42000Y-32500D03*
G54D13*
X42000Y-33500D03*
X42000Y-34500D03*
X42000Y-35500D03*
X42000Y-36500D03*
X42000Y-37500D03*
X42000Y-38500D03*
X42000Y-39500D03*
X45000Y-39500D03*
X45000Y-38500D03*
X45000Y-37500D03*
X45000Y-36500D03*
X45000Y-35500D03*
X45000Y-34500D03*
X45000Y-33500D03*
X45000Y-32500D03*
G54D12*
X42000Y-43500D03*
G54D13*
X42000Y-44500D03*
X42000Y-45500D03*
X42000Y-46500D03*
X42000Y-47500D03*
X42000Y-48500D03*
X42000Y-49500D03*
X42000Y-50500D03*
X45000Y-50500D03*
X45000Y-49500D03*
X45000Y-48500D03*
X45000Y-47500D03*
X45000Y-46500D03*
X45000Y-45500D03*
X45000Y-44500D03*
X45000Y-43500D03*
G54D12*
X35000Y-65000D03*
G54D13*
X36000Y-65000D03*
X37000Y-65000D03*
X38000Y-65000D03*
X39000Y-65000D03*
X40000Y-65000D03*
X41000Y-65000D03*
X42000Y-65000D03*
X42000Y-62000D03*
X41000Y-62000D03*
X40000Y-62000D03*
X39000Y-62000D03*
X38000Y-62000D03*
X37000Y-62000D03*
X36000Y-62000D03*
X35000Y-62000D03*
G54D12*
X35000Y-57500D03*
G54D13*
X36000Y-57500D03*
X37000Y-57500D03*
X38000Y-57500D03*
X39000Y-57500D03*
X40000Y-57500D03*
X41000Y-57500D03*
X42000Y-57500D03*
X42000Y-54500D03*
X41000Y-54500D03*
X40000Y-54500D03*
X39000Y-54500D03*
X38000Y-54500D03*
X37000Y-54500D03*
X36000Y-54500D03*
X35000Y-54500D03*
G54D12*
X35500Y-28500D03*
G54D13*
X36500Y-28500D03*
X37500Y-28500D03*
X38500Y-28500D03*
X39500Y-28500D03*
X40500Y-28500D03*
X41500Y-28500D03*
X42500Y-28500D03*
X42500Y-25500D03*
X41500Y-25500D03*
X40500Y-25500D03*
X39500Y-25500D03*
X38500Y-25500D03*
X37500Y-25500D03*
X36500Y-25500D03*
X35500Y-25500D03*
G54D12*
X49000Y-28400D03*
G54D13*
X49000Y-29400D03*
X49000Y-30400D03*
X49000Y-31400D03*
X49000Y-32400D03*
X49000Y-33400D03*
X49000Y-34400D03*
X49000Y-35400D03*
X49000Y-36400D03*
X49000Y-37400D03*
G54D12*
X30000Y-41000D03*
G54D13*
X30000Y-42000D03*
X30000Y-43000D03*
X30000Y-44000D03*
X30000Y-45000D03*
X30000Y-46000D03*
G54D16*
X48000Y-31700D03*
X48050Y-32800D03*
X48400Y-39600D03*
X48350Y-38500D03*
X37500Y-30000D03*
X39500Y-32000D03*
X40500Y-35000D03*
X35000Y-27000D03*
X39500Y-36500D03*
X38000Y-35000D03*
X40500Y-39500D03*
X44750Y-24500D03*
X38000Y-37000D03*
X44750Y-21250D03*
X38750Y-27000D03*
X48750Y-14750D03*
X40000Y-30500D03*
X47250Y-14250D03*
X45750Y-29000D03*
X38500Y-50000D03*
X46750Y-26250D03*
X46750Y-18000D03*
X34500Y-15250D03*
X36250Y-12500D03*
X41500Y-14250D03*
X47000Y-20750D03*
X35000Y-44500D03*
X40500Y-19000D03*
X35000Y-40000D03*
X34000Y-23250D03*
X31500Y-48500D03*
X32500Y-48500D03*
X31500Y-29000D03*
X39000Y-14000D03*
X41500Y-21500D03*
X32000Y-35750D03*
X32750Y-24750D03*
X39750Y-13000D03*
X31500Y-39500D03*
X30750Y-25000D03*
X32500Y-41500D03*
X41000Y-19500D03*
X37500Y-27000D03*
X35500Y-27000D03*
X49750Y-15250D03*
X50500Y-53000D03*
X48500Y-13250D03*
X54000Y-49250D03*
X52500Y-19750D03*
X49750Y-15750D03*
X53000Y-49000D03*
X51000Y-51000D03*
X50250Y-17000D03*
X35500Y-61000D03*
X36500Y-60500D03*
X38500Y-56500D03*
X38500Y-61500D03*
X37500Y-56500D03*
X40500Y-61000D03*
X38500Y-21000D03*
X37000Y-21500D03*
X27000Y-39750D03*
X43500Y-58500D03*
X47000Y-58500D03*
X46500Y-50500D03*
X50500Y-49500D03*
X37500Y-27500D03*
X42250Y-67500D03*
X50000Y-49000D03*
X50000Y-48000D03*
X55000Y-43500D03*
X41500Y-72500D03*
X41500Y-71500D03*
X54500Y-42250D03*
X51500Y-44500D03*
X51500Y-49250D03*
X43750Y-67000D03*
X49500Y-50750D03*
X39500Y-59500D03*
X38500Y-60500D03*
X47000Y-39500D03*
X35500Y-44500D03*
X35500Y-42500D03*
X26000Y-42000D03*
X31000Y-17500D03*
X28000Y-43000D03*
X27500Y-42000D03*
X31500Y-26000D03*
X32500Y-25500D03*
X34000Y-24000D03*
X38000Y-19000D03*
X45650Y-38650D03*
X43250Y-44800D03*
X43500Y-43350D03*
X45150Y-18250D03*
X45350Y-16100D03*
X31350Y-33500D03*
X43850Y-41050D03*
X42000Y-61000D03*
X32400Y-31550D03*
X39000Y-36500D03*
X40500Y-33000D03*
X35500Y-31000D03*
X41000Y-42500D03*
X39000Y-43500D03*
X38000Y-44500D03*
X39000Y-44500D03*
X39000Y-45000D03*
X39000Y-46000D03*
X39000Y-47500D03*
X37500Y-29500D03*
X32500Y-52500D03*
X46000Y-37500D03*
X48000Y-34000D03*
X39000Y-52000D03*
X34750Y-23500D03*
X33500Y-25750D03*
X34500Y-25000D03*
X34500Y-29000D03*
X45500Y-30250D03*
X34000Y-27500D03*
X31750Y-29500D03*
X31250Y-30250D03*
X39000Y-30000D03*
X40000Y-29750D03*
X30750Y-31250D03*
G54D17*
X46850Y-33650D02*
X46950Y-33650D01*
X44000Y-41500D02*
X44250Y-41500D01*
X48400Y-39600D02*
X48350Y-39650D01*
X49100Y-38100D02*
X48750Y-38100D01*
X47800Y-32800D02*
X48050Y-32800D01*
X48750Y-38100D02*
X48350Y-38500D01*
X48000Y-31700D02*
X48000Y-30100D01*
X46950Y-33650D02*
X47800Y-32800D01*
X31400Y-32400D02*
X31400Y-33150D01*
X48350Y-39650D02*
X48350Y-40450D01*
X31400Y-32400D02*
X31450Y-32350D01*
X31450Y-32350D02*
X31450Y-31650D01*
X38000Y-14500D02*
X38000Y-16500D01*
X36500Y-29000D02*
X37500Y-30000D01*
X36500Y-28500D02*
X36500Y-28000D01*
X35500Y-24500D02*
X34000Y-24500D01*
X36000Y-27500D02*
X36000Y-25000D01*
X33000Y-13500D02*
X37000Y-13500D01*
X36000Y-25000D02*
X35500Y-24500D01*
X37000Y-13500D02*
X38000Y-14500D01*
X33500Y-21000D02*
X32000Y-19500D01*
X32000Y-14500D02*
X33000Y-13500D01*
X36500Y-28500D02*
X36500Y-29000D01*
X34000Y-24500D02*
X33500Y-24000D01*
X36500Y-32500D02*
X37500Y-32500D01*
X37500Y-44500D02*
X36500Y-44500D01*
X33500Y-24000D02*
X33500Y-21000D01*
X38500Y-43500D02*
X37500Y-44500D01*
X37500Y-32500D02*
X38500Y-33500D01*
X36500Y-28000D02*
X36000Y-27500D01*
X38000Y-16500D02*
X38500Y-17000D01*
X32000Y-19500D02*
X32000Y-14500D01*
X38500Y-33500D02*
X38500Y-43500D01*
X33000Y-24500D02*
X33000Y-21500D01*
X34500Y-26000D02*
X33000Y-24500D01*
X31500Y-20000D02*
X31500Y-14000D01*
X39500Y-36500D02*
X39500Y-45000D01*
X34500Y-26500D02*
X34500Y-26000D01*
X31500Y-14000D02*
X32500Y-13000D01*
X39500Y-32000D02*
X40000Y-32500D01*
X33000Y-21500D02*
X31500Y-20000D01*
X38500Y-14000D02*
X38500Y-16000D01*
X32500Y-13000D02*
X37500Y-13000D01*
X38000Y-46500D02*
X36500Y-46500D01*
X40000Y-32500D02*
X40000Y-34500D01*
X35000Y-27000D02*
X34500Y-26500D01*
X39500Y-45000D02*
X38000Y-46500D01*
X40000Y-34500D02*
X40500Y-35000D01*
X37500Y-34500D02*
X38000Y-35000D01*
X36500Y-34500D02*
X37500Y-34500D01*
X37500Y-13000D02*
X38500Y-14000D01*
X40500Y-46500D02*
X38500Y-48500D01*
X44750Y-24500D02*
X44750Y-21250D01*
X37500Y-36500D02*
X38000Y-37000D01*
X38500Y-28500D02*
X38500Y-27250D01*
X36500Y-36500D02*
X37500Y-36500D01*
X38500Y-28500D02*
X38500Y-29000D01*
X48250Y-14250D02*
X47250Y-14250D01*
X38500Y-48500D02*
X36500Y-48500D01*
X48750Y-14750D02*
X48250Y-14250D01*
X40500Y-39500D02*
X40500Y-46500D01*
X38500Y-27250D02*
X38750Y-27000D01*
X38500Y-29000D02*
X40000Y-30500D01*
X46750Y-20500D02*
X46750Y-18000D01*
X34750Y-15500D02*
X35750Y-15500D01*
X36000Y-15750D02*
X36000Y-16250D01*
X46750Y-28000D02*
X46750Y-26250D01*
X35750Y-15500D02*
X36000Y-15750D01*
X38000Y-50500D02*
X38500Y-50000D01*
X45750Y-29000D02*
X46750Y-28000D01*
X40000Y-12750D02*
X39750Y-12500D01*
X36000Y-16250D02*
X36250Y-16500D01*
X41500Y-14250D02*
X40500Y-13250D01*
X47000Y-20750D02*
X46750Y-20500D01*
X40500Y-13250D02*
X40500Y-12500D01*
X37000Y-16500D02*
X37500Y-16000D01*
X40500Y-12500D02*
X40500Y-13250D01*
X36500Y-50500D02*
X38000Y-50500D01*
X40500Y-13250D02*
X40000Y-12750D01*
X38250Y-12500D02*
X36250Y-12500D01*
X36250Y-16500D02*
X37000Y-16500D01*
X34500Y-15250D02*
X34750Y-15500D01*
X39750Y-12500D02*
X38250Y-12500D01*
X35000Y-44500D02*
X35000Y-40000D01*
X42000Y-24000D02*
X42000Y-19500D01*
X42000Y-19500D02*
X41500Y-19000D01*
X41500Y-24500D02*
X42000Y-24000D01*
X41500Y-25500D02*
X41500Y-24500D01*
X41500Y-19000D02*
X40500Y-19000D01*
X33000Y-26500D02*
X32500Y-27000D01*
X40500Y-25500D02*
X40500Y-24750D01*
X31000Y-48000D02*
X31000Y-47500D01*
X36500Y-15500D02*
X35750Y-14750D01*
X32500Y-19250D02*
X34000Y-20750D01*
X33000Y-14750D02*
X32500Y-15250D01*
X33000Y-25000D02*
X33000Y-26500D01*
X33500Y-48500D02*
X32500Y-48500D01*
X32500Y-28000D02*
X31500Y-29000D01*
X31500Y-48500D02*
X31000Y-48000D01*
X32000Y-39500D02*
X32000Y-37000D01*
X31500Y-40000D02*
X32000Y-39500D01*
X35750Y-14750D02*
X33000Y-14750D01*
X32750Y-24750D02*
X33000Y-25000D01*
X32500Y-27000D02*
X32500Y-28000D01*
X34000Y-20750D02*
X34000Y-23250D01*
X32500Y-15250D02*
X32500Y-19250D01*
X40500Y-24750D02*
X41000Y-24250D01*
X41000Y-22000D02*
X41500Y-21500D01*
X36500Y-15500D02*
X36500Y-16000D01*
X39750Y-13000D02*
X39000Y-13750D01*
X41000Y-24250D02*
X41000Y-22000D01*
X31500Y-47000D02*
X31500Y-40000D01*
X31000Y-47500D02*
X31500Y-47000D01*
X32500Y-36500D02*
X33500Y-36500D01*
X39000Y-13750D02*
X39000Y-14000D01*
X32000Y-35750D02*
X32000Y-37000D01*
X32000Y-37000D02*
X32500Y-36500D01*
X33000Y-46500D02*
X33500Y-46500D01*
X31000Y-29500D02*
X31750Y-30250D01*
X31500Y-35000D02*
X31500Y-39500D01*
X32500Y-41500D02*
X32500Y-46000D01*
X39500Y-24250D02*
X40000Y-23750D01*
X40000Y-23750D02*
X40000Y-21750D01*
X31750Y-34250D02*
X32000Y-34500D01*
X31000Y-25250D02*
X31000Y-29500D01*
X32000Y-34500D02*
X31500Y-35000D01*
X32500Y-46000D02*
X33000Y-46500D01*
X31750Y-30250D02*
X31750Y-34250D01*
X33500Y-34500D02*
X32000Y-34500D01*
X30750Y-25000D02*
X31000Y-25250D01*
X41000Y-20750D02*
X41000Y-19500D01*
X40000Y-21750D02*
X41000Y-20750D01*
X39500Y-25500D02*
X39500Y-24250D01*
X34000Y-28000D02*
X32000Y-30000D01*
X35500Y-27000D02*
X34500Y-28000D01*
X34500Y-44000D02*
X34500Y-33500D01*
X34500Y-33500D02*
X33500Y-32500D01*
X32750Y-32500D02*
X33500Y-32500D01*
X33500Y-44500D02*
X34000Y-44500D01*
X34500Y-28000D02*
X34000Y-28000D01*
X37500Y-25500D02*
X37500Y-27000D01*
X32000Y-31750D02*
X32750Y-32500D01*
X34000Y-44500D02*
X34500Y-44000D01*
X32000Y-30000D02*
X32000Y-31750D01*
X42000Y-15750D02*
X42000Y-16500D01*
X42500Y-15250D02*
X42000Y-15750D01*
X44000Y-15250D02*
X42500Y-15250D01*
X49750Y-15250D02*
X44000Y-15250D01*
X42000Y-16500D02*
X41500Y-17000D01*
X48250Y-13500D02*
X47250Y-13500D01*
X47250Y-13500D02*
X46000Y-14750D01*
X50500Y-53000D02*
X54000Y-49500D01*
X48500Y-13250D02*
X48250Y-13500D01*
X41500Y-15500D02*
X41500Y-16000D01*
X46000Y-14750D02*
X42250Y-14750D01*
X42250Y-14750D02*
X41500Y-15500D01*
X54000Y-49500D02*
X54000Y-49250D01*
X45000Y-17500D02*
X44500Y-18000D01*
X43250Y-18000D02*
X42500Y-17250D01*
X42500Y-17250D02*
X42500Y-17000D01*
X50250Y-17500D02*
X45000Y-17500D01*
X44500Y-18000D02*
X43250Y-18000D01*
X52500Y-19750D02*
X50250Y-17500D01*
X43000Y-16500D02*
X42500Y-16000D01*
X49750Y-15750D02*
X46750Y-15750D01*
X46750Y-15750D02*
X46000Y-16500D01*
X51000Y-51000D02*
X53000Y-49000D01*
X46000Y-16500D02*
X43000Y-16500D01*
X50250Y-17000D02*
X43500Y-17000D01*
X37000Y-59500D02*
X37000Y-57500D01*
X35500Y-61000D02*
X37000Y-59500D01*
X36000Y-64500D02*
X36500Y-64000D01*
X36500Y-64000D02*
X36500Y-60500D01*
X36000Y-65000D02*
X36000Y-64500D01*
X38500Y-61500D02*
X38000Y-61000D01*
X38000Y-61000D02*
X38000Y-59500D01*
X38500Y-59000D02*
X38500Y-56500D01*
X38000Y-59500D02*
X38500Y-59000D01*
X38500Y-63000D02*
X38000Y-63000D01*
X37500Y-62500D02*
X37500Y-56500D01*
X39000Y-63500D02*
X38500Y-63000D01*
X38000Y-63000D02*
X37500Y-62500D01*
X39000Y-65000D02*
X39000Y-63500D01*
X39000Y-55000D02*
X39000Y-54500D01*
X40000Y-64000D02*
X41500Y-62500D01*
X40500Y-56500D02*
X39000Y-55000D01*
X41500Y-62500D02*
X41500Y-59500D01*
X40500Y-58500D02*
X40500Y-56500D01*
X40000Y-65000D02*
X40000Y-64000D01*
X41500Y-59500D02*
X40500Y-58500D01*
X39500Y-56500D02*
X39000Y-56000D01*
X40000Y-59000D02*
X39500Y-58500D01*
X38000Y-56000D02*
X37000Y-55000D01*
X37000Y-55000D02*
X37000Y-54500D01*
X40000Y-60500D02*
X40000Y-59000D01*
X40500Y-61000D02*
X40000Y-60500D01*
X39500Y-58500D02*
X39500Y-56500D01*
X39000Y-56000D02*
X38000Y-56000D01*
X28250Y-41000D02*
X30000Y-41000D01*
X38500Y-21000D02*
X38250Y-21000D01*
X38250Y-21000D02*
X38000Y-21250D01*
X38000Y-21250D02*
X37250Y-21250D01*
X37250Y-21250D02*
X37000Y-21500D01*
X27000Y-39750D02*
X28250Y-41000D01*
X43500Y-58500D02*
X47000Y-58500D01*
X36500Y-26500D02*
X36500Y-25500D01*
X46500Y-50500D02*
X47500Y-49500D01*
X47500Y-49500D02*
X50500Y-49500D01*
X37500Y-27500D02*
X36500Y-26500D01*
X50000Y-49000D02*
X50000Y-48000D01*
X40500Y-69000D02*
X40500Y-68750D01*
X40500Y-68750D02*
X41750Y-67500D01*
X41750Y-67500D02*
X42250Y-67500D01*
X55000Y-43500D02*
X53500Y-42000D01*
X53500Y-42000D02*
X49000Y-42000D01*
X39500Y-70500D02*
X41500Y-72500D01*
X39500Y-70000D02*
X39500Y-70500D01*
X40000Y-70500D02*
X41000Y-71500D01*
X41000Y-71500D02*
X41500Y-71500D01*
X54500Y-42250D02*
X53250Y-41000D01*
X40000Y-69500D02*
X40000Y-70500D01*
X39500Y-69000D02*
X40000Y-69500D01*
X53250Y-41000D02*
X49000Y-41000D01*
X41000Y-69500D02*
X41000Y-68750D01*
X50000Y-50250D02*
X50750Y-50250D01*
X41000Y-68750D02*
X41750Y-68000D01*
X51500Y-44500D02*
X50000Y-43000D01*
X50750Y-50250D02*
X51500Y-49500D01*
X51500Y-49500D02*
X51500Y-49250D01*
X40500Y-70000D02*
X41000Y-69500D01*
X41750Y-68000D02*
X42750Y-68000D01*
X49500Y-50750D02*
X50000Y-50250D01*
X42750Y-68000D02*
X43750Y-67000D01*
X50000Y-43000D02*
X49000Y-43000D01*
X47500Y-39000D02*
X49000Y-39000D01*
X47000Y-39500D02*
X47500Y-39000D01*
X38500Y-60500D02*
X39500Y-59500D01*
X35500Y-44500D02*
X35500Y-42500D01*
X31000Y-14000D02*
X31000Y-17500D01*
X41250Y-12750D02*
X40750Y-12250D01*
X36500Y-12250D02*
X36250Y-12000D01*
X40500Y-16000D02*
X42500Y-14000D01*
X26000Y-42000D02*
X30000Y-46000D01*
X36250Y-12000D02*
X33000Y-12000D01*
X33000Y-12000D02*
X31000Y-14000D01*
X42500Y-13250D02*
X42000Y-12750D01*
X40750Y-12250D02*
X36500Y-12250D01*
X42500Y-14000D02*
X42500Y-13250D01*
X42000Y-12750D02*
X41250Y-12750D01*
X39000Y-17500D02*
X39500Y-17000D01*
X38500Y-21500D02*
X39000Y-21000D01*
X29000Y-44000D02*
X30000Y-44000D01*
X28000Y-43000D02*
X29000Y-44000D01*
X36500Y-22500D02*
X37500Y-21500D01*
X37500Y-21500D02*
X38500Y-21500D01*
X36500Y-23000D02*
X36500Y-22500D01*
X39000Y-21000D02*
X39000Y-17500D01*
X28000Y-42500D02*
X28500Y-42500D01*
X32500Y-25500D02*
X32000Y-26000D01*
X29000Y-43000D02*
X30000Y-43000D01*
X38000Y-22000D02*
X39000Y-22000D01*
X27500Y-42000D02*
X28000Y-42500D01*
X37500Y-23000D02*
X36500Y-24000D01*
X37500Y-22500D02*
X38000Y-22000D01*
X32000Y-26000D02*
X31500Y-26000D01*
X40000Y-21000D02*
X40000Y-16500D01*
X28500Y-42500D02*
X29000Y-43000D01*
X39000Y-22000D02*
X40000Y-21000D01*
X37500Y-23000D02*
X37500Y-22500D01*
X40000Y-16500D02*
X39500Y-16000D01*
X36500Y-24000D02*
X34000Y-24000D01*
X38000Y-20500D02*
X38000Y-19000D01*
X35500Y-23000D02*
X35500Y-22500D01*
X37000Y-21000D02*
X37500Y-21000D01*
X35500Y-22500D02*
X37000Y-21000D01*
X37500Y-21000D02*
X38000Y-20500D01*
X43300Y-44850D02*
X43300Y-46350D01*
X43850Y-41050D02*
X43850Y-41100D01*
X43250Y-44800D02*
X43300Y-44850D01*
X30800Y-34050D02*
X30800Y-36200D01*
X45700Y-38700D02*
X45650Y-38650D01*
X43850Y-41100D02*
X43500Y-41450D01*
X43250Y-22250D02*
X42500Y-23000D01*
X43250Y-20150D02*
X43250Y-22250D01*
X45150Y-18250D02*
X43250Y-20150D01*
X33500Y-51500D02*
X32500Y-51500D01*
X33050Y-29700D02*
X32400Y-30350D01*
X45950Y-15850D02*
X45600Y-15850D01*
X40000Y-58200D02*
X40050Y-58250D01*
X32000Y-51000D02*
X32000Y-41000D01*
X32500Y-51500D02*
X32000Y-51000D01*
X43500Y-41450D02*
X43500Y-43350D01*
X32000Y-41000D02*
X33500Y-39500D01*
X32400Y-30350D02*
X32400Y-31550D01*
X45600Y-15850D02*
X45350Y-16100D01*
X40000Y-57500D02*
X40000Y-58200D01*
X43650Y-41050D02*
X43850Y-41050D01*
X33050Y-29650D02*
X33050Y-29700D01*
X30800Y-36200D02*
X30000Y-37000D01*
X31350Y-33500D02*
X30800Y-34050D01*
X35500Y-39500D02*
X36500Y-39500D01*
X42000Y-35500D02*
X40500Y-35500D01*
X35000Y-33000D02*
X35000Y-39000D01*
X36000Y-32000D02*
X35000Y-33000D01*
X39000Y-34000D02*
X39000Y-33000D01*
X35000Y-39000D02*
X35500Y-39500D01*
X40500Y-35500D02*
X39000Y-34000D01*
X39000Y-33000D02*
X38000Y-32000D01*
X38000Y-32000D02*
X36000Y-32000D01*
X41500Y-37500D02*
X40000Y-36000D01*
X40000Y-36000D02*
X39500Y-36000D01*
X39500Y-36000D02*
X39000Y-36500D01*
X42000Y-37500D02*
X41500Y-37500D01*
X42500Y-31500D02*
X43000Y-32000D01*
X40500Y-33000D02*
X41000Y-32500D01*
X41000Y-32000D02*
X41500Y-31500D01*
X43000Y-32000D02*
X43000Y-37500D01*
X41000Y-32500D02*
X41000Y-32000D01*
X41500Y-31500D02*
X42500Y-31500D01*
X43000Y-37500D02*
X42000Y-38500D01*
X45000Y-31000D02*
X35500Y-31000D01*
X45500Y-33500D02*
X46000Y-33000D01*
X46000Y-32000D02*
X45000Y-31000D01*
X46000Y-33000D02*
X46000Y-32000D01*
X45000Y-33500D02*
X45500Y-33500D01*
X44000Y-44500D02*
X43000Y-43500D01*
X42500Y-42500D02*
X41000Y-42500D01*
X43000Y-43500D02*
X43000Y-43000D01*
X45000Y-44500D02*
X44000Y-44500D01*
X43000Y-43000D02*
X42500Y-42500D01*
X39000Y-43500D02*
X38000Y-44500D01*
X46000Y-45000D02*
X46000Y-40500D01*
X45500Y-45500D02*
X46000Y-45000D01*
X46000Y-40500D02*
X45000Y-39500D01*
X45000Y-45500D02*
X45500Y-45500D01*
X39000Y-44500D02*
X38500Y-45000D01*
X34000Y-45000D02*
X33500Y-45500D01*
X38500Y-45000D02*
X34000Y-45000D01*
X39000Y-45000D02*
X38000Y-46000D01*
X38000Y-46000D02*
X35000Y-46000D01*
X35000Y-46000D02*
X34500Y-46500D01*
X34500Y-46500D02*
X33500Y-47500D01*
X34500Y-47500D02*
X34500Y-48500D01*
X39000Y-46000D02*
X38000Y-47000D01*
X34500Y-48500D02*
X33500Y-49500D01*
X38000Y-47000D02*
X35000Y-47000D01*
X35000Y-47000D02*
X34500Y-47500D01*
X38500Y-49500D02*
X36500Y-49500D01*
X40500Y-47500D02*
X38500Y-49500D01*
X42000Y-47500D02*
X40500Y-47500D01*
X39000Y-47500D02*
X36500Y-47500D01*
X38500Y-24000D02*
X38000Y-24500D01*
X38500Y-23000D02*
X38500Y-24000D01*
X38000Y-29000D02*
X37500Y-29500D01*
X33500Y-30500D02*
X34500Y-30500D01*
X35500Y-31500D02*
X36500Y-31500D01*
X38000Y-24500D02*
X38000Y-29000D01*
X34500Y-30500D02*
X35500Y-31500D01*
X48000Y-35500D02*
X46000Y-37500D01*
X48000Y-34000D02*
X48000Y-35500D01*
X33000Y-53000D02*
X32500Y-52500D01*
X39000Y-52000D02*
X38000Y-53000D01*
X38000Y-53000D02*
X33000Y-53000D01*
X45000Y-37500D02*
X45000Y-36500D01*
X45000Y-47500D02*
X46000Y-47500D01*
X46500Y-34500D02*
X47600Y-33400D01*
X45500Y-36000D02*
X46000Y-36000D01*
X46500Y-35500D02*
X46500Y-34500D01*
X45000Y-47500D02*
X45000Y-48500D01*
X46000Y-36000D02*
X46500Y-35500D01*
X46000Y-47500D02*
X46500Y-47000D01*
X48500Y-33400D02*
X47600Y-33400D01*
X45000Y-36500D02*
X45500Y-36000D01*
X46500Y-47000D02*
X46500Y-39000D01*
X47600Y-33400D02*
X49000Y-33400D01*
X46500Y-39000D02*
X45000Y-37500D01*
X48500Y-32400D02*
X47600Y-32400D01*
X45000Y-34500D02*
X45500Y-34500D01*
X47600Y-32400D02*
X49000Y-32400D01*
X45500Y-34500D02*
X47600Y-32400D01*
X33750Y-26000D02*
X33750Y-27250D01*
X35500Y-25500D02*
X35000Y-25500D01*
X34750Y-22750D02*
X34750Y-23500D01*
X33500Y-25750D02*
X33750Y-26000D01*
X35000Y-30500D02*
X36500Y-30500D01*
X34750Y-30250D02*
X35000Y-30500D01*
X34750Y-29250D02*
X34750Y-30250D01*
X34500Y-29000D02*
X34750Y-29250D01*
X33750Y-27500D02*
X34000Y-27500D01*
X31750Y-29500D02*
X33750Y-27500D01*
X31250Y-30750D02*
X31250Y-30250D01*
X39000Y-30000D02*
X38500Y-30500D01*
X41750Y-29750D02*
X40000Y-29750D01*
X42250Y-29250D02*
X41750Y-29750D01*
X44500Y-29250D02*
X42250Y-29250D01*
X45500Y-30250D02*
X44500Y-29250D01*
X45000Y-41500D02*
X45000Y-43500D01*
X30750Y-31250D02*
X31250Y-30750D01*
X38500Y-30500D02*
X36500Y-30500D01*
X35500Y-20000D02*
X35500Y-22000D01*
X33750Y-27250D02*
X34000Y-27500D01*
X35000Y-25500D02*
X34500Y-25000D01*
X35000Y-19500D02*
X35000Y-16500D01*
X35500Y-20000D02*
X35000Y-19500D01*
X44250Y-40750D02*
X45000Y-41500D01*
X44250Y-33250D02*
X44250Y-40750D01*
X45000Y-32500D02*
X44250Y-33250D01*
X35000Y-16500D02*
X34500Y-16000D01*
X35500Y-22000D02*
X34750Y-22750D01*
G54D10*
G36*
X37126Y-30210D02*
X36947Y-30210D01*
X36945Y-30203D01*
X36798Y-30055D01*
X36605Y-29975D01*
X36396Y-29975D01*
X36203Y-30055D01*
X36055Y-30202D01*
X36051Y-30210D01*
X35450Y-30210D01*
X35450Y-28963D01*
X35450Y-28550D01*
X35450Y-28450D01*
X35450Y-28037D01*
X35388Y-27975D01*
X35176Y-27976D01*
X35084Y-28014D01*
X35014Y-28084D01*
X34976Y-28175D01*
X34976Y-28274D01*
X34975Y-28388D01*
X35037Y-28450D01*
X35450Y-28450D01*
X35450Y-28550D01*
X35037Y-28550D01*
X34975Y-28612D01*
X34976Y-28726D01*
X34976Y-28825D01*
X35014Y-28916D01*
X35084Y-28986D01*
X35176Y-29024D01*
X35388Y-29025D01*
X35450Y-28963D01*
X35450Y-30210D01*
X35120Y-30210D01*
X35040Y-30130D01*
X35040Y-29250D01*
X35018Y-29139D01*
X34955Y-29045D01*
X34925Y-29015D01*
X34925Y-28916D01*
X34861Y-28760D01*
X34741Y-28640D01*
X34585Y-28575D01*
X34416Y-28575D01*
X34260Y-28639D01*
X34140Y-28759D01*
X34075Y-28915D01*
X34075Y-29084D01*
X34139Y-29240D01*
X34259Y-29360D01*
X34415Y-29425D01*
X34460Y-29425D01*
X34460Y-30210D01*
X34024Y-30210D01*
X34024Y-30176D01*
X33986Y-30084D01*
X33916Y-30014D01*
X33825Y-29976D01*
X33726Y-29976D01*
X33176Y-29976D01*
X33084Y-30014D01*
X33014Y-30084D01*
X32976Y-30175D01*
X32976Y-30274D01*
X32976Y-30824D01*
X33014Y-30916D01*
X33084Y-30986D01*
X33175Y-31024D01*
X33274Y-31024D01*
X33203Y-31055D01*
X33055Y-31202D01*
X32975Y-31395D01*
X32975Y-31604D01*
X33055Y-31797D01*
X33202Y-31945D01*
X33335Y-32000D01*
X33203Y-32055D01*
X33055Y-32202D01*
X33051Y-32210D01*
X32870Y-32210D01*
X32290Y-31629D01*
X32290Y-30120D01*
X34120Y-28290D01*
X34500Y-28290D01*
X34611Y-28268D01*
X34705Y-28205D01*
X35485Y-27425D01*
X35584Y-27425D01*
X35710Y-27373D01*
X35710Y-27500D01*
X35732Y-27611D01*
X35795Y-27705D01*
X36173Y-28083D01*
X36055Y-28202D01*
X36024Y-28274D01*
X36024Y-28175D01*
X35986Y-28084D01*
X35916Y-28014D01*
X35824Y-27976D01*
X35612Y-27975D01*
X35550Y-28037D01*
X35550Y-28400D01*
X35550Y-28450D01*
X35550Y-28550D01*
X35550Y-28600D01*
X35550Y-28963D01*
X35612Y-29025D01*
X35824Y-29024D01*
X35916Y-28986D01*
X35986Y-28916D01*
X36024Y-28825D01*
X36024Y-28726D01*
X36024Y-28722D01*
X36055Y-28797D01*
X36202Y-28945D01*
X36210Y-28948D01*
X36210Y-29000D01*
X36232Y-29111D01*
X36295Y-29205D01*
X37075Y-29985D01*
X37075Y-30084D01*
X37126Y-30210D01*
X37126Y-30210D01*
G37*
G54D18*
X37126Y-30210D02*
X36947Y-30210D01*
X36945Y-30203D01*
X36798Y-30055D01*
X36605Y-29975D01*
X36396Y-29975D01*
X36203Y-30055D01*
X36055Y-30202D01*
X36051Y-30210D01*
X35450Y-30210D01*
X35450Y-28963D01*
X35450Y-28550D01*
X35450Y-28450D01*
X35450Y-28037D01*
X35388Y-27975D01*
X35176Y-27976D01*
X35084Y-28014D01*
X35014Y-28084D01*
X34976Y-28175D01*
X34976Y-28274D01*
X34975Y-28388D01*
X35037Y-28450D01*
X35450Y-28450D01*
X35450Y-28550D01*
X35037Y-28550D01*
X34975Y-28612D01*
X34976Y-28726D01*
X34976Y-28825D01*
X35014Y-28916D01*
X35084Y-28986D01*
X35176Y-29024D01*
X35388Y-29025D01*
X35450Y-28963D01*
X35450Y-30210D01*
X35120Y-30210D01*
X35040Y-30130D01*
X35040Y-29250D01*
X35018Y-29139D01*
X34955Y-29045D01*
X34925Y-29015D01*
X34925Y-28916D01*
X34861Y-28760D01*
X34741Y-28640D01*
X34585Y-28575D01*
X34416Y-28575D01*
X34260Y-28639D01*
X34140Y-28759D01*
X34075Y-28915D01*
X34075Y-29084D01*
X34139Y-29240D01*
X34259Y-29360D01*
X34415Y-29425D01*
X34460Y-29425D01*
X34460Y-30210D01*
X34024Y-30210D01*
X34024Y-30176D01*
X33986Y-30084D01*
X33916Y-30014D01*
X33825Y-29976D01*
X33726Y-29976D01*
X33176Y-29976D01*
X33084Y-30014D01*
X33014Y-30084D01*
X32976Y-30175D01*
X32976Y-30274D01*
X32976Y-30824D01*
X33014Y-30916D01*
X33084Y-30986D01*
X33175Y-31024D01*
X33274Y-31024D01*
X33203Y-31055D01*
X33055Y-31202D01*
X32975Y-31395D01*
X32975Y-31604D01*
X33055Y-31797D01*
X33202Y-31945D01*
X33335Y-32000D01*
X33203Y-32055D01*
X33055Y-32202D01*
X33051Y-32210D01*
X32870Y-32210D01*
X32290Y-31629D01*
X32290Y-30120D01*
X34120Y-28290D01*
X34500Y-28290D01*
X34611Y-28268D01*
X34705Y-28205D01*
X35485Y-27425D01*
X35584Y-27425D01*
X35710Y-27373D01*
X35710Y-27500D01*
X35732Y-27611D01*
X35795Y-27705D01*
X36173Y-28083D01*
X36055Y-28202D01*
X36024Y-28274D01*
X36024Y-28175D01*
X35986Y-28084D01*
X35916Y-28014D01*
X35824Y-27976D01*
X35612Y-27975D01*
X35550Y-28037D01*
X35550Y-28400D01*
X35550Y-28450D01*
X35550Y-28550D01*
X35550Y-28600D01*
X35550Y-28963D01*
X35612Y-29025D01*
X35824Y-29024D01*
X35916Y-28986D01*
X35986Y-28916D01*
X36024Y-28825D01*
X36024Y-28726D01*
X36024Y-28722D01*
X36055Y-28797D01*
X36202Y-28945D01*
X36210Y-28948D01*
X36210Y-29000D01*
X36232Y-29111D01*
X36295Y-29205D01*
X37075Y-29985D01*
X37075Y-30084D01*
X37126Y-30210D01*
G54D10*
G36*
X40071Y-57500D02*
X40000Y-57571D01*
X39929Y-57500D01*
X40000Y-57429D01*
X40071Y-57500D01*
X40071Y-57500D01*
G37*
G54D18*
X40071Y-57500D02*
X40000Y-57571D01*
X39929Y-57500D01*
X40000Y-57429D01*
X40071Y-57500D01*
G54D10*
G36*
X41210Y-61528D02*
X41074Y-61481D01*
X40870Y-61492D01*
X40733Y-61548D01*
X40710Y-61639D01*
X40965Y-61894D01*
X41000Y-61929D01*
X41071Y-62000D01*
X41000Y-62071D01*
X40965Y-62106D01*
X40710Y-62361D01*
X40733Y-62452D01*
X40926Y-62519D01*
X41079Y-62510D01*
X39795Y-63795D01*
X39732Y-63889D01*
X39710Y-64000D01*
X39710Y-64552D01*
X39703Y-64555D01*
X39555Y-64702D01*
X39499Y-64835D01*
X39445Y-64703D01*
X39298Y-64555D01*
X39290Y-64551D01*
X39290Y-63500D01*
X39268Y-63389D01*
X39205Y-63295D01*
X38705Y-62795D01*
X38611Y-62732D01*
X38500Y-62710D01*
X38120Y-62710D01*
X37935Y-62525D01*
X38104Y-62525D01*
X38297Y-62445D01*
X38445Y-62298D01*
X38500Y-62164D01*
X38555Y-62297D01*
X38702Y-62445D01*
X38895Y-62525D01*
X39104Y-62525D01*
X39297Y-62445D01*
X39445Y-62298D01*
X39500Y-62164D01*
X39555Y-62297D01*
X39702Y-62445D01*
X39895Y-62525D01*
X40104Y-62525D01*
X40297Y-62445D01*
X40445Y-62298D01*
X40503Y-62157D01*
X40548Y-62267D01*
X40639Y-62290D01*
X40929Y-62000D01*
X40639Y-61710D01*
X40548Y-61733D01*
X40506Y-61851D01*
X40445Y-61703D01*
X40298Y-61555D01*
X40105Y-61475D01*
X39896Y-61475D01*
X39703Y-61555D01*
X39555Y-61702D01*
X39499Y-61835D01*
X39445Y-61703D01*
X39298Y-61555D01*
X39105Y-61475D01*
X38925Y-61475D01*
X38925Y-61416D01*
X38861Y-61260D01*
X38741Y-61140D01*
X38585Y-61075D01*
X38485Y-61075D01*
X38290Y-60880D01*
X38290Y-60872D01*
X38415Y-60925D01*
X38584Y-60925D01*
X38740Y-60861D01*
X38860Y-60741D01*
X38925Y-60585D01*
X38925Y-60485D01*
X39485Y-59925D01*
X39584Y-59925D01*
X39710Y-59873D01*
X39710Y-60500D01*
X39732Y-60611D01*
X39795Y-60705D01*
X40075Y-60985D01*
X40075Y-61084D01*
X40139Y-61240D01*
X40259Y-61360D01*
X40415Y-61425D01*
X40584Y-61425D01*
X40740Y-61361D01*
X40860Y-61241D01*
X40925Y-61085D01*
X40925Y-60916D01*
X40861Y-60760D01*
X40741Y-60640D01*
X40585Y-60575D01*
X40485Y-60575D01*
X40290Y-60380D01*
X40290Y-59000D01*
X40268Y-58889D01*
X40205Y-58795D01*
X39790Y-58380D01*
X39790Y-57971D01*
X39926Y-58019D01*
X40130Y-58008D01*
X40210Y-57975D01*
X40210Y-58500D01*
X40232Y-58611D01*
X40295Y-58705D01*
X41210Y-59620D01*
X41210Y-61528D01*
X41210Y-61528D01*
G37*
G54D18*
X41210Y-61528D02*
X41074Y-61481D01*
X40870Y-61492D01*
X40733Y-61548D01*
X40710Y-61639D01*
X40965Y-61894D01*
X41000Y-61929D01*
X41071Y-62000D01*
X41000Y-62071D01*
X40965Y-62106D01*
X40710Y-62361D01*
X40733Y-62452D01*
X40926Y-62519D01*
X41079Y-62510D01*
X39795Y-63795D01*
X39732Y-63889D01*
X39710Y-64000D01*
X39710Y-64552D01*
X39703Y-64555D01*
X39555Y-64702D01*
X39499Y-64835D01*
X39445Y-64703D01*
X39298Y-64555D01*
X39290Y-64551D01*
X39290Y-63500D01*
X39268Y-63389D01*
X39205Y-63295D01*
X38705Y-62795D01*
X38611Y-62732D01*
X38500Y-62710D01*
X38120Y-62710D01*
X37935Y-62525D01*
X38104Y-62525D01*
X38297Y-62445D01*
X38445Y-62298D01*
X38500Y-62164D01*
X38555Y-62297D01*
X38702Y-62445D01*
X38895Y-62525D01*
X39104Y-62525D01*
X39297Y-62445D01*
X39445Y-62298D01*
X39500Y-62164D01*
X39555Y-62297D01*
X39702Y-62445D01*
X39895Y-62525D01*
X40104Y-62525D01*
X40297Y-62445D01*
X40445Y-62298D01*
X40503Y-62157D01*
X40548Y-62267D01*
X40639Y-62290D01*
X40929Y-62000D01*
X40639Y-61710D01*
X40548Y-61733D01*
X40506Y-61851D01*
X40445Y-61703D01*
X40298Y-61555D01*
X40105Y-61475D01*
X39896Y-61475D01*
X39703Y-61555D01*
X39555Y-61702D01*
X39499Y-61835D01*
X39445Y-61703D01*
X39298Y-61555D01*
X39105Y-61475D01*
X38925Y-61475D01*
X38925Y-61416D01*
X38861Y-61260D01*
X38741Y-61140D01*
X38585Y-61075D01*
X38485Y-61075D01*
X38290Y-60880D01*
X38290Y-60872D01*
X38415Y-60925D01*
X38584Y-60925D01*
X38740Y-60861D01*
X38860Y-60741D01*
X38925Y-60585D01*
X38925Y-60485D01*
X39485Y-59925D01*
X39584Y-59925D01*
X39710Y-59873D01*
X39710Y-60500D01*
X39732Y-60611D01*
X39795Y-60705D01*
X40075Y-60985D01*
X40075Y-61084D01*
X40139Y-61240D01*
X40259Y-61360D01*
X40415Y-61425D01*
X40584Y-61425D01*
X40740Y-61361D01*
X40860Y-61241D01*
X40925Y-61085D01*
X40925Y-60916D01*
X40861Y-60760D01*
X40741Y-60640D01*
X40585Y-60575D01*
X40485Y-60575D01*
X40290Y-60380D01*
X40290Y-59000D01*
X40268Y-58889D01*
X40205Y-58795D01*
X39790Y-58380D01*
X39790Y-57971D01*
X39926Y-58019D01*
X40130Y-58008D01*
X40210Y-57975D01*
X40210Y-58500D01*
X40232Y-58611D01*
X40295Y-58705D01*
X41210Y-59620D01*
X41210Y-61528D01*
G54D10*
G36*
X45710Y-32880D02*
X45416Y-33173D01*
X45298Y-33055D01*
X45164Y-32999D01*
X45297Y-32945D01*
X45445Y-32798D01*
X45525Y-32605D01*
X45525Y-32396D01*
X45445Y-32203D01*
X45298Y-32055D01*
X45105Y-31975D01*
X44896Y-31975D01*
X44703Y-32055D01*
X44555Y-32202D01*
X44475Y-32395D01*
X44475Y-32604D01*
X44478Y-32611D01*
X44045Y-33045D01*
X43982Y-33139D01*
X43960Y-33250D01*
X43960Y-40750D01*
X43982Y-40861D01*
X44045Y-40955D01*
X44311Y-41222D01*
X44250Y-41210D01*
X44000Y-41210D01*
X43889Y-41232D01*
X43795Y-41295D01*
X43732Y-41389D01*
X43710Y-41500D01*
X43732Y-41611D01*
X43795Y-41705D01*
X43889Y-41768D01*
X44000Y-41790D01*
X44250Y-41790D01*
X44361Y-41768D01*
X44455Y-41705D01*
X44518Y-41611D01*
X44540Y-41500D01*
X44527Y-41438D01*
X44710Y-41620D01*
X44710Y-43052D01*
X44703Y-43055D01*
X44555Y-43202D01*
X44475Y-43395D01*
X44475Y-43604D01*
X44555Y-43797D01*
X44702Y-43945D01*
X44835Y-44000D01*
X44703Y-44055D01*
X44555Y-44202D01*
X44551Y-44210D01*
X44120Y-44210D01*
X43290Y-43380D01*
X43290Y-43000D01*
X43268Y-42889D01*
X43205Y-42795D01*
X42705Y-42295D01*
X42611Y-42232D01*
X42519Y-42213D01*
X42519Y-39574D01*
X42508Y-39370D01*
X42452Y-39233D01*
X42361Y-39210D01*
X42071Y-39500D01*
X42361Y-39790D01*
X42452Y-39767D01*
X42519Y-39574D01*
X42519Y-42213D01*
X42500Y-42210D01*
X42290Y-42210D01*
X42290Y-39861D01*
X42000Y-39571D01*
X41929Y-39642D01*
X41929Y-39500D01*
X41639Y-39210D01*
X41548Y-39233D01*
X41481Y-39426D01*
X41492Y-39630D01*
X41548Y-39767D01*
X41639Y-39790D01*
X41929Y-39500D01*
X41929Y-39642D01*
X41710Y-39861D01*
X41733Y-39952D01*
X41926Y-40019D01*
X42130Y-40008D01*
X42267Y-39952D01*
X42290Y-39861D01*
X42290Y-42210D01*
X41311Y-42210D01*
X41241Y-42140D01*
X41085Y-42075D01*
X40916Y-42075D01*
X40790Y-42126D01*
X40790Y-39811D01*
X40860Y-39741D01*
X40925Y-39585D01*
X40925Y-39416D01*
X40861Y-39260D01*
X40741Y-39140D01*
X40585Y-39075D01*
X40416Y-39075D01*
X40260Y-39139D01*
X40140Y-39259D01*
X40075Y-39415D01*
X40075Y-39584D01*
X40139Y-39740D01*
X40210Y-39811D01*
X40210Y-46380D01*
X39345Y-47244D01*
X39241Y-47140D01*
X39085Y-47075D01*
X38916Y-47075D01*
X38760Y-47139D01*
X38689Y-47210D01*
X38197Y-47210D01*
X38205Y-47205D01*
X38985Y-46425D01*
X39084Y-46425D01*
X39240Y-46361D01*
X39360Y-46241D01*
X39425Y-46085D01*
X39425Y-45916D01*
X39361Y-45760D01*
X39255Y-45654D01*
X39705Y-45205D01*
X39768Y-45111D01*
X39790Y-45000D01*
X39790Y-36811D01*
X39860Y-36741D01*
X39925Y-36585D01*
X39925Y-36416D01*
X39873Y-36290D01*
X39880Y-36290D01*
X41295Y-37705D01*
X41389Y-37768D01*
X41500Y-37790D01*
X41552Y-37790D01*
X41555Y-37797D01*
X41702Y-37945D01*
X41835Y-38000D01*
X41703Y-38055D01*
X41555Y-38202D01*
X41475Y-38395D01*
X41475Y-38604D01*
X41555Y-38797D01*
X41702Y-38945D01*
X41842Y-39003D01*
X41733Y-39048D01*
X41710Y-39139D01*
X42000Y-39429D01*
X42290Y-39139D01*
X42267Y-39048D01*
X42148Y-39006D01*
X42297Y-38945D01*
X42445Y-38798D01*
X42525Y-38605D01*
X42525Y-38396D01*
X42521Y-38388D01*
X43205Y-37705D01*
X43268Y-37611D01*
X43290Y-37500D01*
X43290Y-32000D01*
X43268Y-31889D01*
X43205Y-31795D01*
X42705Y-31295D01*
X42697Y-31290D01*
X44880Y-31290D01*
X45710Y-32120D01*
X45710Y-32880D01*
X45710Y-32880D01*
G37*
G54D18*
X45710Y-32880D02*
X45416Y-33173D01*
X45298Y-33055D01*
X45164Y-32999D01*
X45297Y-32945D01*
X45445Y-32798D01*
X45525Y-32605D01*
X45525Y-32396D01*
X45445Y-32203D01*
X45298Y-32055D01*
X45105Y-31975D01*
X44896Y-31975D01*
X44703Y-32055D01*
X44555Y-32202D01*
X44475Y-32395D01*
X44475Y-32604D01*
X44478Y-32611D01*
X44045Y-33045D01*
X43982Y-33139D01*
X43960Y-33250D01*
X43960Y-40750D01*
X43982Y-40861D01*
X44045Y-40955D01*
X44311Y-41222D01*
X44250Y-41210D01*
X44000Y-41210D01*
X43889Y-41232D01*
X43795Y-41295D01*
X43732Y-41389D01*
X43710Y-41500D01*
X43732Y-41611D01*
X43795Y-41705D01*
X43889Y-41768D01*
X44000Y-41790D01*
X44250Y-41790D01*
X44361Y-41768D01*
X44455Y-41705D01*
X44518Y-41611D01*
X44540Y-41500D01*
X44527Y-41438D01*
X44710Y-41620D01*
X44710Y-43052D01*
X44703Y-43055D01*
X44555Y-43202D01*
X44475Y-43395D01*
X44475Y-43604D01*
X44555Y-43797D01*
X44702Y-43945D01*
X44835Y-44000D01*
X44703Y-44055D01*
X44555Y-44202D01*
X44551Y-44210D01*
X44120Y-44210D01*
X43290Y-43380D01*
X43290Y-43000D01*
X43268Y-42889D01*
X43205Y-42795D01*
X42705Y-42295D01*
X42611Y-42232D01*
X42519Y-42213D01*
X42519Y-39574D01*
X42508Y-39370D01*
X42452Y-39233D01*
X42361Y-39210D01*
X42071Y-39500D01*
X42361Y-39790D01*
X42452Y-39767D01*
X42519Y-39574D01*
X42519Y-42213D01*
X42500Y-42210D01*
X42290Y-42210D01*
X42290Y-39861D01*
X42000Y-39571D01*
X41929Y-39642D01*
X41929Y-39500D01*
X41639Y-39210D01*
X41548Y-39233D01*
X41481Y-39426D01*
X41492Y-39630D01*
X41548Y-39767D01*
X41639Y-39790D01*
X41929Y-39500D01*
X41929Y-39642D01*
X41710Y-39861D01*
X41733Y-39952D01*
X41926Y-40019D01*
X42130Y-40008D01*
X42267Y-39952D01*
X42290Y-39861D01*
X42290Y-42210D01*
X41311Y-42210D01*
X41241Y-42140D01*
X41085Y-42075D01*
X40916Y-42075D01*
X40790Y-42126D01*
X40790Y-39811D01*
X40860Y-39741D01*
X40925Y-39585D01*
X40925Y-39416D01*
X40861Y-39260D01*
X40741Y-39140D01*
X40585Y-39075D01*
X40416Y-39075D01*
X40260Y-39139D01*
X40140Y-39259D01*
X40075Y-39415D01*
X40075Y-39584D01*
X40139Y-39740D01*
X40210Y-39811D01*
X40210Y-46380D01*
X39345Y-47244D01*
X39241Y-47140D01*
X39085Y-47075D01*
X38916Y-47075D01*
X38760Y-47139D01*
X38689Y-47210D01*
X38197Y-47210D01*
X38205Y-47205D01*
X38985Y-46425D01*
X39084Y-46425D01*
X39240Y-46361D01*
X39360Y-46241D01*
X39425Y-46085D01*
X39425Y-45916D01*
X39361Y-45760D01*
X39255Y-45654D01*
X39705Y-45205D01*
X39768Y-45111D01*
X39790Y-45000D01*
X39790Y-36811D01*
X39860Y-36741D01*
X39925Y-36585D01*
X39925Y-36416D01*
X39873Y-36290D01*
X39880Y-36290D01*
X41295Y-37705D01*
X41389Y-37768D01*
X41500Y-37790D01*
X41552Y-37790D01*
X41555Y-37797D01*
X41702Y-37945D01*
X41835Y-38000D01*
X41703Y-38055D01*
X41555Y-38202D01*
X41475Y-38395D01*
X41475Y-38604D01*
X41555Y-38797D01*
X41702Y-38945D01*
X41842Y-39003D01*
X41733Y-39048D01*
X41710Y-39139D01*
X42000Y-39429D01*
X42290Y-39139D01*
X42267Y-39048D01*
X42148Y-39006D01*
X42297Y-38945D01*
X42445Y-38798D01*
X42525Y-38605D01*
X42525Y-38396D01*
X42521Y-38388D01*
X43205Y-37705D01*
X43268Y-37611D01*
X43290Y-37500D01*
X43290Y-32000D01*
X43268Y-31889D01*
X43205Y-31795D01*
X42705Y-31295D01*
X42697Y-31290D01*
X44880Y-31290D01*
X45710Y-32120D01*
X45710Y-32880D01*
G54D10*
G36*
X46210Y-40302D02*
X46205Y-40295D01*
X45522Y-39612D01*
X45525Y-39605D01*
X45525Y-39396D01*
X45445Y-39203D01*
X45298Y-39055D01*
X45157Y-38996D01*
X45267Y-38952D01*
X45290Y-38861D01*
X45000Y-38571D01*
X44710Y-38861D01*
X44733Y-38952D01*
X44851Y-38993D01*
X44703Y-39055D01*
X44555Y-39202D01*
X44540Y-39238D01*
X44540Y-38747D01*
X44548Y-38767D01*
X44639Y-38790D01*
X44929Y-38500D01*
X44639Y-38210D01*
X44548Y-38233D01*
X44540Y-38256D01*
X44540Y-37760D01*
X44555Y-37797D01*
X44702Y-37945D01*
X44842Y-38003D01*
X44733Y-38048D01*
X44710Y-38139D01*
X44965Y-38394D01*
X45000Y-38429D01*
X45071Y-38500D01*
X45106Y-38535D01*
X45361Y-38790D01*
X45452Y-38767D01*
X45519Y-38574D01*
X45510Y-38420D01*
X46210Y-39120D01*
X46210Y-40302D01*
X46210Y-40302D01*
G37*
G54D18*
X46210Y-40302D02*
X46205Y-40295D01*
X45522Y-39612D01*
X45525Y-39605D01*
X45525Y-39396D01*
X45445Y-39203D01*
X45298Y-39055D01*
X45157Y-38996D01*
X45267Y-38952D01*
X45290Y-38861D01*
X45000Y-38571D01*
X44710Y-38861D01*
X44733Y-38952D01*
X44851Y-38993D01*
X44703Y-39055D01*
X44555Y-39202D01*
X44540Y-39238D01*
X44540Y-38747D01*
X44548Y-38767D01*
X44639Y-38790D01*
X44929Y-38500D01*
X44639Y-38210D01*
X44548Y-38233D01*
X44540Y-38256D01*
X44540Y-37760D01*
X44555Y-37797D01*
X44702Y-37945D01*
X44842Y-38003D01*
X44733Y-38048D01*
X44710Y-38139D01*
X44965Y-38394D01*
X45000Y-38429D01*
X45071Y-38500D01*
X45106Y-38535D01*
X45361Y-38790D01*
X45452Y-38767D01*
X45519Y-38574D01*
X45510Y-38420D01*
X46210Y-39120D01*
X46210Y-40302D01*
G54D10*
G36*
X46551Y-15540D02*
X46544Y-15545D01*
X45879Y-16210D01*
X43996Y-16210D01*
X44043Y-16079D01*
X44032Y-15866D01*
X43972Y-15719D01*
X43878Y-15692D01*
X43571Y-16000D01*
X43500Y-16071D01*
X43429Y-16000D01*
X43394Y-15965D01*
X43122Y-15692D01*
X43028Y-15719D01*
X43004Y-15784D01*
X42965Y-15689D01*
X42816Y-15540D01*
X43215Y-15540D01*
X43192Y-15622D01*
X43500Y-15929D01*
X43808Y-15622D01*
X43784Y-15540D01*
X44000Y-15540D01*
X46551Y-15540D01*
X46551Y-15540D01*
G37*
G54D18*
X46551Y-15540D02*
X46544Y-15545D01*
X45879Y-16210D01*
X43996Y-16210D01*
X44043Y-16079D01*
X44032Y-15866D01*
X43972Y-15719D01*
X43878Y-15692D01*
X43571Y-16000D01*
X43500Y-16071D01*
X43429Y-16000D01*
X43394Y-15965D01*
X43122Y-15692D01*
X43028Y-15719D01*
X43004Y-15784D01*
X42965Y-15689D01*
X42816Y-15540D01*
X43215Y-15540D01*
X43192Y-15622D01*
X43500Y-15929D01*
X43808Y-15622D01*
X43784Y-15540D01*
X44000Y-15540D01*
X46551Y-15540D01*
G54D10*
G36*
X46698Y-33890D02*
X46295Y-34295D01*
X46232Y-34389D01*
X46210Y-34500D01*
X46210Y-35380D01*
X45880Y-35710D01*
X45500Y-35710D01*
X45469Y-35716D01*
X45519Y-35574D01*
X45508Y-35370D01*
X45452Y-35233D01*
X45361Y-35210D01*
X45106Y-35465D01*
X45071Y-35500D01*
X45000Y-35571D01*
X44965Y-35606D01*
X44710Y-35861D01*
X44733Y-35952D01*
X44851Y-35993D01*
X44703Y-36055D01*
X44555Y-36202D01*
X44540Y-36238D01*
X44540Y-35747D01*
X44548Y-35767D01*
X44639Y-35790D01*
X44929Y-35500D01*
X44639Y-35210D01*
X44548Y-35233D01*
X44540Y-35256D01*
X44540Y-34760D01*
X44555Y-34797D01*
X44702Y-34945D01*
X44842Y-35003D01*
X44733Y-35048D01*
X44710Y-35139D01*
X45000Y-35429D01*
X45290Y-35139D01*
X45267Y-35048D01*
X45148Y-35006D01*
X45297Y-34945D01*
X45445Y-34798D01*
X45448Y-34790D01*
X45500Y-34790D01*
X45611Y-34768D01*
X45705Y-34705D01*
X46608Y-33801D01*
X46645Y-33855D01*
X46698Y-33890D01*
X46698Y-33890D01*
G37*
G54D18*
X46698Y-33890D02*
X46295Y-34295D01*
X46232Y-34389D01*
X46210Y-34500D01*
X46210Y-35380D01*
X45880Y-35710D01*
X45500Y-35710D01*
X45469Y-35716D01*
X45519Y-35574D01*
X45508Y-35370D01*
X45452Y-35233D01*
X45361Y-35210D01*
X45106Y-35465D01*
X45071Y-35500D01*
X45000Y-35571D01*
X44965Y-35606D01*
X44710Y-35861D01*
X44733Y-35952D01*
X44851Y-35993D01*
X44703Y-36055D01*
X44555Y-36202D01*
X44540Y-36238D01*
X44540Y-35747D01*
X44548Y-35767D01*
X44639Y-35790D01*
X44929Y-35500D01*
X44639Y-35210D01*
X44548Y-35233D01*
X44540Y-35256D01*
X44540Y-34760D01*
X44555Y-34797D01*
X44702Y-34945D01*
X44842Y-35003D01*
X44733Y-35048D01*
X44710Y-35139D01*
X45000Y-35429D01*
X45290Y-35139D01*
X45267Y-35048D01*
X45148Y-35006D01*
X45297Y-34945D01*
X45445Y-34798D01*
X45448Y-34790D01*
X45500Y-34790D01*
X45611Y-34768D01*
X45705Y-34705D01*
X46608Y-33801D01*
X46645Y-33855D01*
X46698Y-33890D01*
G54D10*
G36*
X55675Y-72675D02*
X54425Y-72675D01*
X54425Y-49335D01*
X54425Y-49166D01*
X54361Y-49010D01*
X54241Y-48890D01*
X54085Y-48825D01*
X53916Y-48825D01*
X53760Y-48889D01*
X53640Y-49009D01*
X53575Y-49165D01*
X53575Y-49334D01*
X53627Y-49461D01*
X53425Y-49663D01*
X53425Y-49085D01*
X53425Y-48916D01*
X53361Y-48760D01*
X53241Y-48640D01*
X53085Y-48575D01*
X52916Y-48575D01*
X52760Y-48639D01*
X52640Y-48759D01*
X52575Y-48915D01*
X52575Y-49015D01*
X51925Y-49665D01*
X51925Y-49335D01*
X51925Y-49166D01*
X51861Y-49010D01*
X51741Y-48890D01*
X51585Y-48825D01*
X51416Y-48825D01*
X51260Y-48889D01*
X51140Y-49009D01*
X51075Y-49165D01*
X51075Y-49334D01*
X51127Y-49461D01*
X50868Y-49721D01*
X50925Y-49585D01*
X50925Y-49416D01*
X50861Y-49260D01*
X50741Y-49140D01*
X50585Y-49075D01*
X50425Y-49075D01*
X50425Y-48916D01*
X50361Y-48760D01*
X50290Y-48689D01*
X50290Y-48311D01*
X50360Y-48241D01*
X50425Y-48085D01*
X50425Y-47916D01*
X50361Y-47760D01*
X50241Y-47640D01*
X50085Y-47575D01*
X49916Y-47575D01*
X49760Y-47639D01*
X49640Y-47759D01*
X49575Y-47915D01*
X49575Y-48084D01*
X49639Y-48240D01*
X49710Y-48311D01*
X49710Y-48689D01*
X49640Y-48759D01*
X49575Y-48915D01*
X49575Y-49084D01*
X49626Y-49210D01*
X47500Y-49210D01*
X47389Y-49232D01*
X47295Y-49295D01*
X46515Y-50075D01*
X46416Y-50075D01*
X46260Y-50139D01*
X46140Y-50259D01*
X46075Y-50415D01*
X46075Y-50584D01*
X46139Y-50740D01*
X46259Y-50860D01*
X46415Y-50925D01*
X46584Y-50925D01*
X46740Y-50861D01*
X46860Y-50741D01*
X46925Y-50585D01*
X46925Y-50485D01*
X47620Y-49790D01*
X50189Y-49790D01*
X50259Y-49860D01*
X50415Y-49925D01*
X50584Y-49925D01*
X50720Y-49868D01*
X50629Y-49960D01*
X50000Y-49960D01*
X49889Y-49982D01*
X49795Y-50045D01*
X49515Y-50325D01*
X49416Y-50325D01*
X49260Y-50389D01*
X49140Y-50509D01*
X49075Y-50665D01*
X49075Y-50834D01*
X49139Y-50990D01*
X49259Y-51110D01*
X49415Y-51175D01*
X49584Y-51175D01*
X49740Y-51111D01*
X49860Y-50991D01*
X49925Y-50835D01*
X49925Y-50735D01*
X50120Y-50540D01*
X50750Y-50540D01*
X50861Y-50518D01*
X50955Y-50455D01*
X51705Y-49706D01*
X51705Y-49705D01*
X51768Y-49611D01*
X51774Y-49576D01*
X51860Y-49491D01*
X51925Y-49335D01*
X51925Y-49665D01*
X51015Y-50575D01*
X50916Y-50575D01*
X50760Y-50639D01*
X50640Y-50759D01*
X50575Y-50915D01*
X50575Y-51084D01*
X50639Y-51240D01*
X50759Y-51360D01*
X50915Y-51425D01*
X51084Y-51425D01*
X51240Y-51361D01*
X51360Y-51241D01*
X51425Y-51085D01*
X51425Y-50985D01*
X52985Y-49425D01*
X53084Y-49425D01*
X53240Y-49361D01*
X53360Y-49241D01*
X53425Y-49085D01*
X53425Y-49663D01*
X50514Y-52575D01*
X50416Y-52575D01*
X50260Y-52639D01*
X50140Y-52759D01*
X50075Y-52915D01*
X50075Y-53084D01*
X50139Y-53240D01*
X50259Y-53360D01*
X50415Y-53425D01*
X50584Y-53425D01*
X50740Y-53361D01*
X50860Y-53241D01*
X50925Y-53085D01*
X50925Y-52985D01*
X54205Y-49706D01*
X54205Y-49705D01*
X54246Y-49643D01*
X54267Y-49612D01*
X54268Y-49611D01*
X54274Y-49576D01*
X54360Y-49491D01*
X54425Y-49335D01*
X54425Y-72675D01*
X47425Y-72675D01*
X47425Y-58585D01*
X47425Y-58416D01*
X47361Y-58260D01*
X47241Y-58140D01*
X47085Y-58075D01*
X46916Y-58075D01*
X46760Y-58139D01*
X46689Y-58210D01*
X45525Y-58210D01*
X45525Y-50605D01*
X45525Y-50396D01*
X45519Y-50381D01*
X45519Y-49574D01*
X45508Y-49370D01*
X45452Y-49233D01*
X45361Y-49210D01*
X45071Y-49500D01*
X45361Y-49790D01*
X45452Y-49767D01*
X45519Y-49574D01*
X45519Y-50381D01*
X45445Y-50203D01*
X45298Y-50055D01*
X45157Y-49996D01*
X45267Y-49952D01*
X45290Y-49861D01*
X45000Y-49571D01*
X44929Y-49642D01*
X44929Y-49500D01*
X44639Y-49210D01*
X44548Y-49233D01*
X44481Y-49426D01*
X44492Y-49630D01*
X44548Y-49767D01*
X44639Y-49790D01*
X44929Y-49500D01*
X44929Y-49642D01*
X44710Y-49861D01*
X44733Y-49952D01*
X44851Y-49993D01*
X44703Y-50055D01*
X44555Y-50202D01*
X44475Y-50395D01*
X44475Y-50604D01*
X44555Y-50797D01*
X44702Y-50945D01*
X44895Y-51025D01*
X45104Y-51025D01*
X45297Y-50945D01*
X45445Y-50798D01*
X45525Y-50605D01*
X45525Y-58210D01*
X43811Y-58210D01*
X43741Y-58140D01*
X43585Y-58075D01*
X43416Y-58075D01*
X43260Y-58139D01*
X43140Y-58259D01*
X43075Y-58415D01*
X43075Y-58584D01*
X43139Y-58740D01*
X43259Y-58860D01*
X43415Y-58925D01*
X43584Y-58925D01*
X43740Y-58861D01*
X43811Y-58790D01*
X46689Y-58790D01*
X46759Y-58860D01*
X46915Y-58925D01*
X47084Y-58925D01*
X47240Y-58861D01*
X47360Y-58741D01*
X47425Y-58585D01*
X47425Y-72675D01*
X41887Y-72675D01*
X41925Y-72585D01*
X41925Y-72416D01*
X41861Y-72260D01*
X41741Y-72140D01*
X41585Y-72075D01*
X41485Y-72075D01*
X41277Y-71867D01*
X41415Y-71925D01*
X41584Y-71925D01*
X41740Y-71861D01*
X41860Y-71741D01*
X41925Y-71585D01*
X41925Y-71416D01*
X41861Y-71260D01*
X41741Y-71140D01*
X41585Y-71075D01*
X41416Y-71075D01*
X41260Y-71139D01*
X41189Y-71210D01*
X41120Y-71210D01*
X40459Y-70549D01*
X40609Y-70549D01*
X40811Y-70465D01*
X40965Y-70311D01*
X41000Y-70226D01*
X41035Y-70311D01*
X41189Y-70465D01*
X41391Y-70549D01*
X41609Y-70549D01*
X41811Y-70465D01*
X41965Y-70311D01*
X42000Y-70226D01*
X42035Y-70311D01*
X42189Y-70465D01*
X42391Y-70549D01*
X42609Y-70549D01*
X42811Y-70465D01*
X42965Y-70311D01*
X43000Y-70226D01*
X43035Y-70311D01*
X43189Y-70465D01*
X43391Y-70549D01*
X43609Y-70549D01*
X43811Y-70465D01*
X43965Y-70311D01*
X44049Y-70109D01*
X44049Y-69891D01*
X44043Y-69876D01*
X44043Y-69079D01*
X44032Y-68866D01*
X43972Y-68719D01*
X43878Y-68692D01*
X43808Y-68762D01*
X43808Y-68622D01*
X43781Y-68528D01*
X43579Y-68457D01*
X43366Y-68468D01*
X43219Y-68528D01*
X43192Y-68622D01*
X43500Y-68929D01*
X43808Y-68622D01*
X43808Y-68762D01*
X43571Y-69000D01*
X43878Y-69308D01*
X43972Y-69281D01*
X44043Y-69079D01*
X44043Y-69876D01*
X43965Y-69689D01*
X43811Y-69535D01*
X43719Y-69497D01*
X43781Y-69472D01*
X43808Y-69378D01*
X43500Y-69071D01*
X43192Y-69378D01*
X43219Y-69472D01*
X43284Y-69495D01*
X43189Y-69535D01*
X43035Y-69689D01*
X43000Y-69773D01*
X42965Y-69689D01*
X42811Y-69535D01*
X42726Y-69500D01*
X42811Y-69465D01*
X42965Y-69311D01*
X43002Y-69219D01*
X43028Y-69281D01*
X43122Y-69308D01*
X43429Y-69000D01*
X43122Y-68692D01*
X43028Y-68719D01*
X43004Y-68784D01*
X42965Y-68689D01*
X42811Y-68535D01*
X42609Y-68451D01*
X42391Y-68451D01*
X42189Y-68535D01*
X42035Y-68689D01*
X42000Y-68773D01*
X41965Y-68689D01*
X41811Y-68535D01*
X41680Y-68480D01*
X41870Y-68290D01*
X42750Y-68290D01*
X42861Y-68268D01*
X42955Y-68205D01*
X43735Y-67425D01*
X43834Y-67425D01*
X43990Y-67361D01*
X44110Y-67241D01*
X44175Y-67085D01*
X44175Y-66916D01*
X44111Y-66760D01*
X43991Y-66640D01*
X43835Y-66575D01*
X43666Y-66575D01*
X43510Y-66639D01*
X43390Y-66759D01*
X43325Y-66915D01*
X43325Y-67015D01*
X42630Y-67710D01*
X42622Y-67710D01*
X42675Y-67585D01*
X42675Y-67416D01*
X42611Y-67260D01*
X42525Y-67174D01*
X42525Y-62105D01*
X42525Y-61896D01*
X42519Y-61881D01*
X42519Y-57574D01*
X42519Y-54574D01*
X42519Y-50574D01*
X42508Y-50370D01*
X42452Y-50233D01*
X42361Y-50210D01*
X42071Y-50500D01*
X42361Y-50790D01*
X42452Y-50767D01*
X42519Y-50574D01*
X42519Y-54574D01*
X42508Y-54370D01*
X42452Y-54233D01*
X42361Y-54210D01*
X42290Y-54281D01*
X42290Y-54139D01*
X42290Y-50861D01*
X42000Y-50571D01*
X41929Y-50642D01*
X41929Y-50500D01*
X41639Y-50210D01*
X41548Y-50233D01*
X41481Y-50426D01*
X41492Y-50630D01*
X41548Y-50767D01*
X41639Y-50790D01*
X41929Y-50500D01*
X41929Y-50642D01*
X41710Y-50861D01*
X41733Y-50952D01*
X41926Y-51019D01*
X42130Y-51008D01*
X42267Y-50952D01*
X42290Y-50861D01*
X42290Y-54139D01*
X42267Y-54048D01*
X42074Y-53981D01*
X41870Y-53992D01*
X41733Y-54048D01*
X41710Y-54139D01*
X42000Y-54429D01*
X42290Y-54139D01*
X42290Y-54281D01*
X42071Y-54500D01*
X42361Y-54790D01*
X42452Y-54767D01*
X42519Y-54574D01*
X42519Y-57574D01*
X42508Y-57370D01*
X42452Y-57233D01*
X42361Y-57210D01*
X42290Y-57281D01*
X42290Y-57139D01*
X42290Y-54861D01*
X42000Y-54571D01*
X41710Y-54861D01*
X41733Y-54952D01*
X41926Y-55019D01*
X42130Y-55008D01*
X42267Y-54952D01*
X42290Y-54861D01*
X42290Y-57139D01*
X42267Y-57048D01*
X42074Y-56981D01*
X41870Y-56992D01*
X41733Y-57048D01*
X41710Y-57139D01*
X42000Y-57429D01*
X42290Y-57139D01*
X42290Y-57281D01*
X42071Y-57500D01*
X42361Y-57790D01*
X42452Y-57767D01*
X42519Y-57574D01*
X42519Y-61881D01*
X42445Y-61703D01*
X42298Y-61555D01*
X42290Y-61551D01*
X42290Y-57861D01*
X42000Y-57571D01*
X41710Y-57861D01*
X41733Y-57952D01*
X41926Y-58019D01*
X42130Y-58008D01*
X42267Y-57952D01*
X42290Y-57861D01*
X42290Y-61551D01*
X42105Y-61475D01*
X41896Y-61475D01*
X41790Y-61518D01*
X41790Y-59500D01*
X41768Y-59389D01*
X41705Y-59295D01*
X40790Y-58380D01*
X40790Y-57981D01*
X40895Y-58025D01*
X41104Y-58025D01*
X41297Y-57945D01*
X41445Y-57798D01*
X41503Y-57657D01*
X41548Y-57767D01*
X41639Y-57790D01*
X41929Y-57500D01*
X41639Y-57210D01*
X41548Y-57233D01*
X41506Y-57351D01*
X41445Y-57203D01*
X41298Y-57055D01*
X41105Y-56975D01*
X40896Y-56975D01*
X40790Y-57018D01*
X40790Y-56500D01*
X40768Y-56389D01*
X40705Y-56295D01*
X39326Y-54916D01*
X39445Y-54798D01*
X39500Y-54664D01*
X39555Y-54797D01*
X39702Y-54945D01*
X39895Y-55025D01*
X40104Y-55025D01*
X40297Y-54945D01*
X40445Y-54798D01*
X40500Y-54664D01*
X40555Y-54797D01*
X40702Y-54945D01*
X40895Y-55025D01*
X41104Y-55025D01*
X41297Y-54945D01*
X41445Y-54798D01*
X41503Y-54657D01*
X41548Y-54767D01*
X41639Y-54790D01*
X41929Y-54500D01*
X41639Y-54210D01*
X41548Y-54233D01*
X41506Y-54351D01*
X41445Y-54203D01*
X41298Y-54055D01*
X41105Y-53975D01*
X40896Y-53975D01*
X40703Y-54055D01*
X40555Y-54202D01*
X40499Y-54335D01*
X40445Y-54203D01*
X40298Y-54055D01*
X40105Y-53975D01*
X39896Y-53975D01*
X39703Y-54055D01*
X39555Y-54202D01*
X39499Y-54335D01*
X39445Y-54203D01*
X39425Y-54182D01*
X39425Y-52085D01*
X39425Y-51916D01*
X39361Y-51760D01*
X39241Y-51640D01*
X39085Y-51575D01*
X38916Y-51575D01*
X38760Y-51639D01*
X38640Y-51759D01*
X38575Y-51915D01*
X38575Y-52015D01*
X37880Y-52710D01*
X34019Y-52710D01*
X34019Y-51574D01*
X34008Y-51370D01*
X33952Y-51233D01*
X33861Y-51210D01*
X33571Y-51500D01*
X33861Y-51790D01*
X33952Y-51767D01*
X34019Y-51574D01*
X34019Y-52710D01*
X33790Y-52710D01*
X33790Y-51861D01*
X33500Y-51571D01*
X33429Y-51642D01*
X33429Y-51500D01*
X33139Y-51210D01*
X33048Y-51233D01*
X32981Y-51426D01*
X32992Y-51630D01*
X33048Y-51767D01*
X33139Y-51790D01*
X33429Y-51500D01*
X33429Y-51642D01*
X33210Y-51861D01*
X33233Y-51952D01*
X33426Y-52019D01*
X33630Y-52008D01*
X33767Y-51952D01*
X33790Y-51861D01*
X33790Y-52710D01*
X33120Y-52710D01*
X32925Y-52515D01*
X32925Y-52416D01*
X32861Y-52260D01*
X32741Y-52140D01*
X32585Y-52075D01*
X32416Y-52075D01*
X32260Y-52139D01*
X32140Y-52259D01*
X32075Y-52415D01*
X32075Y-52584D01*
X32139Y-52740D01*
X32259Y-52860D01*
X32415Y-52925D01*
X32515Y-52925D01*
X32795Y-53205D01*
X32889Y-53268D01*
X33000Y-53290D01*
X38000Y-53290D01*
X38111Y-53268D01*
X38205Y-53205D01*
X38985Y-52425D01*
X39084Y-52425D01*
X39240Y-52361D01*
X39360Y-52241D01*
X39425Y-52085D01*
X39425Y-54182D01*
X39298Y-54055D01*
X39105Y-53975D01*
X38896Y-53975D01*
X38703Y-54055D01*
X38555Y-54202D01*
X38499Y-54335D01*
X38445Y-54203D01*
X38298Y-54055D01*
X38105Y-53975D01*
X37896Y-53975D01*
X37703Y-54055D01*
X37555Y-54202D01*
X37499Y-54335D01*
X37445Y-54203D01*
X37298Y-54055D01*
X37105Y-53975D01*
X36896Y-53975D01*
X36703Y-54055D01*
X36555Y-54202D01*
X36499Y-54335D01*
X36445Y-54203D01*
X36298Y-54055D01*
X36105Y-53975D01*
X35896Y-53975D01*
X35703Y-54055D01*
X35555Y-54202D01*
X35499Y-54335D01*
X35445Y-54203D01*
X35298Y-54055D01*
X35105Y-53975D01*
X34896Y-53975D01*
X34703Y-54055D01*
X34555Y-54202D01*
X34475Y-54395D01*
X34475Y-54604D01*
X34555Y-54797D01*
X34702Y-54945D01*
X34895Y-55025D01*
X35104Y-55025D01*
X35297Y-54945D01*
X35445Y-54798D01*
X35500Y-54664D01*
X35555Y-54797D01*
X35702Y-54945D01*
X35895Y-55025D01*
X36104Y-55025D01*
X36297Y-54945D01*
X36445Y-54798D01*
X36500Y-54664D01*
X36555Y-54797D01*
X36702Y-54945D01*
X36710Y-54948D01*
X36710Y-55000D01*
X36732Y-55111D01*
X36795Y-55205D01*
X37722Y-56132D01*
X37585Y-56075D01*
X37416Y-56075D01*
X37260Y-56139D01*
X37140Y-56259D01*
X37075Y-56415D01*
X37075Y-56584D01*
X37139Y-56740D01*
X37210Y-56811D01*
X37210Y-57018D01*
X37105Y-56975D01*
X36896Y-56975D01*
X36703Y-57055D01*
X36555Y-57202D01*
X36499Y-57335D01*
X36445Y-57203D01*
X36298Y-57055D01*
X36105Y-56975D01*
X35896Y-56975D01*
X35703Y-57055D01*
X35555Y-57202D01*
X35524Y-57274D01*
X35524Y-57175D01*
X35486Y-57084D01*
X35416Y-57014D01*
X35324Y-56976D01*
X35112Y-56975D01*
X35050Y-57037D01*
X35050Y-57400D01*
X35050Y-57450D01*
X35050Y-57550D01*
X35050Y-57600D01*
X35050Y-57963D01*
X35112Y-58025D01*
X35324Y-58024D01*
X35416Y-57986D01*
X35486Y-57916D01*
X35524Y-57825D01*
X35524Y-57726D01*
X35524Y-57722D01*
X35555Y-57797D01*
X35702Y-57945D01*
X35895Y-58025D01*
X36104Y-58025D01*
X36297Y-57945D01*
X36445Y-57798D01*
X36500Y-57664D01*
X36555Y-57797D01*
X36702Y-57945D01*
X36710Y-57948D01*
X36710Y-59380D01*
X35515Y-60575D01*
X35416Y-60575D01*
X35260Y-60639D01*
X35140Y-60759D01*
X35075Y-60915D01*
X35075Y-61084D01*
X35139Y-61240D01*
X35259Y-61360D01*
X35415Y-61425D01*
X35584Y-61425D01*
X35740Y-61361D01*
X35860Y-61241D01*
X35925Y-61085D01*
X35925Y-60985D01*
X36154Y-60755D01*
X36210Y-60811D01*
X36210Y-61518D01*
X36105Y-61475D01*
X35896Y-61475D01*
X35703Y-61555D01*
X35555Y-61702D01*
X35499Y-61835D01*
X35445Y-61703D01*
X35298Y-61555D01*
X35105Y-61475D01*
X34950Y-61475D01*
X34950Y-57963D01*
X34950Y-57550D01*
X34950Y-57450D01*
X34950Y-57037D01*
X34888Y-56975D01*
X34676Y-56976D01*
X34584Y-57014D01*
X34514Y-57084D01*
X34476Y-57175D01*
X34476Y-57274D01*
X34475Y-57388D01*
X34537Y-57450D01*
X34950Y-57450D01*
X34950Y-57550D01*
X34537Y-57550D01*
X34475Y-57612D01*
X34476Y-57726D01*
X34476Y-57825D01*
X34514Y-57916D01*
X34584Y-57986D01*
X34676Y-58024D01*
X34888Y-58025D01*
X34950Y-57963D01*
X34950Y-61475D01*
X34896Y-61475D01*
X34703Y-61555D01*
X34555Y-61702D01*
X34475Y-61895D01*
X34475Y-62104D01*
X34555Y-62297D01*
X34702Y-62445D01*
X34895Y-62525D01*
X35104Y-62525D01*
X35297Y-62445D01*
X35445Y-62298D01*
X35500Y-62164D01*
X35555Y-62297D01*
X35702Y-62445D01*
X35895Y-62525D01*
X36104Y-62525D01*
X36210Y-62481D01*
X36210Y-63880D01*
X35795Y-64295D01*
X35732Y-64389D01*
X35710Y-64500D01*
X35710Y-64552D01*
X35703Y-64555D01*
X35555Y-64702D01*
X35524Y-64776D01*
X35524Y-64676D01*
X35486Y-64584D01*
X35416Y-64514D01*
X35325Y-64476D01*
X35226Y-64476D01*
X34676Y-64476D01*
X34584Y-64514D01*
X34514Y-64584D01*
X34476Y-64675D01*
X34476Y-64774D01*
X34476Y-65324D01*
X34514Y-65416D01*
X34584Y-65486D01*
X34675Y-65524D01*
X34774Y-65524D01*
X35324Y-65524D01*
X35416Y-65486D01*
X35486Y-65416D01*
X35524Y-65325D01*
X35524Y-65226D01*
X35524Y-65222D01*
X35555Y-65297D01*
X35702Y-65445D01*
X35895Y-65525D01*
X36104Y-65525D01*
X36297Y-65445D01*
X36445Y-65298D01*
X36500Y-65164D01*
X36555Y-65297D01*
X36702Y-65445D01*
X36895Y-65525D01*
X37104Y-65525D01*
X37297Y-65445D01*
X37445Y-65298D01*
X37500Y-65164D01*
X37555Y-65297D01*
X37702Y-65445D01*
X37895Y-65525D01*
X38104Y-65525D01*
X38297Y-65445D01*
X38445Y-65298D01*
X38500Y-65164D01*
X38555Y-65297D01*
X38702Y-65445D01*
X38895Y-65525D01*
X39104Y-65525D01*
X39297Y-65445D01*
X39445Y-65298D01*
X39500Y-65164D01*
X39555Y-65297D01*
X39702Y-65445D01*
X39895Y-65525D01*
X40104Y-65525D01*
X40297Y-65445D01*
X40445Y-65298D01*
X40500Y-65164D01*
X40555Y-65297D01*
X40702Y-65445D01*
X40895Y-65525D01*
X41104Y-65525D01*
X41297Y-65445D01*
X41445Y-65298D01*
X41503Y-65157D01*
X41548Y-65267D01*
X41639Y-65290D01*
X41929Y-65000D01*
X41639Y-64710D01*
X41548Y-64733D01*
X41506Y-64851D01*
X41445Y-64703D01*
X41298Y-64555D01*
X41105Y-64475D01*
X40896Y-64475D01*
X40703Y-64555D01*
X40555Y-64702D01*
X40499Y-64835D01*
X40445Y-64703D01*
X40298Y-64555D01*
X40290Y-64551D01*
X40290Y-64120D01*
X41705Y-62705D01*
X41768Y-62611D01*
X41790Y-62500D01*
X41790Y-62481D01*
X41895Y-62525D01*
X42104Y-62525D01*
X42297Y-62445D01*
X42445Y-62298D01*
X42525Y-62105D01*
X42525Y-67174D01*
X42519Y-67168D01*
X42519Y-65074D01*
X42508Y-64870D01*
X42452Y-64733D01*
X42361Y-64710D01*
X42290Y-64781D01*
X42290Y-64639D01*
X42267Y-64548D01*
X42074Y-64481D01*
X41870Y-64492D01*
X41733Y-64548D01*
X41710Y-64639D01*
X42000Y-64929D01*
X42290Y-64639D01*
X42290Y-64781D01*
X42071Y-65000D01*
X42361Y-65290D01*
X42452Y-65267D01*
X42519Y-65074D01*
X42519Y-67168D01*
X42491Y-67140D01*
X42335Y-67075D01*
X42290Y-67075D01*
X42290Y-65361D01*
X42000Y-65071D01*
X41710Y-65361D01*
X41733Y-65452D01*
X41926Y-65519D01*
X42130Y-65508D01*
X42267Y-65452D01*
X42290Y-65361D01*
X42290Y-67075D01*
X42166Y-67075D01*
X42010Y-67139D01*
X41939Y-67210D01*
X41750Y-67210D01*
X41639Y-67232D01*
X41607Y-67253D01*
X41544Y-67295D01*
X40387Y-68452D01*
X40189Y-68535D01*
X40035Y-68689D01*
X40000Y-68773D01*
X39965Y-68689D01*
X39811Y-68535D01*
X39609Y-68451D01*
X39391Y-68451D01*
X39189Y-68535D01*
X39035Y-68689D01*
X39000Y-68773D01*
X38965Y-68689D01*
X38811Y-68535D01*
X38609Y-68451D01*
X38391Y-68451D01*
X38189Y-68535D01*
X38035Y-68689D01*
X38000Y-68773D01*
X37965Y-68689D01*
X37811Y-68535D01*
X37609Y-68451D01*
X37391Y-68451D01*
X37189Y-68535D01*
X37035Y-68689D01*
X37000Y-68773D01*
X36965Y-68689D01*
X36811Y-68535D01*
X36609Y-68451D01*
X36391Y-68451D01*
X36189Y-68535D01*
X36035Y-68689D01*
X36000Y-68773D01*
X35965Y-68689D01*
X35811Y-68535D01*
X35609Y-68451D01*
X35391Y-68451D01*
X35189Y-68535D01*
X35035Y-68689D01*
X35000Y-68773D01*
X34965Y-68689D01*
X34811Y-68535D01*
X34609Y-68451D01*
X34391Y-68451D01*
X34189Y-68535D01*
X34035Y-68689D01*
X33951Y-68891D01*
X33951Y-69109D01*
X34035Y-69311D01*
X34175Y-69451D01*
X34151Y-69451D01*
X34059Y-69489D01*
X33989Y-69559D01*
X33951Y-69650D01*
X33951Y-69749D01*
X33951Y-70349D01*
X33989Y-70441D01*
X34059Y-70511D01*
X34150Y-70549D01*
X34249Y-70549D01*
X34849Y-70549D01*
X34941Y-70511D01*
X35011Y-70441D01*
X35049Y-70350D01*
X35049Y-70325D01*
X35189Y-70465D01*
X35391Y-70549D01*
X35609Y-70549D01*
X35811Y-70465D01*
X35965Y-70311D01*
X36000Y-70226D01*
X36035Y-70311D01*
X36189Y-70465D01*
X36391Y-70549D01*
X36609Y-70549D01*
X36811Y-70465D01*
X36965Y-70311D01*
X37000Y-70226D01*
X37035Y-70311D01*
X37189Y-70465D01*
X37391Y-70549D01*
X37609Y-70549D01*
X37811Y-70465D01*
X37965Y-70311D01*
X38000Y-70226D01*
X38035Y-70311D01*
X38189Y-70465D01*
X38391Y-70549D01*
X38609Y-70549D01*
X38811Y-70465D01*
X38965Y-70311D01*
X39000Y-70226D01*
X39035Y-70311D01*
X39189Y-70465D01*
X39210Y-70473D01*
X39210Y-70500D01*
X39232Y-70611D01*
X39295Y-70705D01*
X41075Y-72485D01*
X41075Y-72584D01*
X41112Y-72675D01*
X30525Y-72675D01*
X30525Y-46105D01*
X30525Y-45896D01*
X30445Y-45703D01*
X30298Y-45555D01*
X30164Y-45499D01*
X30297Y-45445D01*
X30445Y-45298D01*
X30525Y-45105D01*
X30525Y-44896D01*
X30445Y-44703D01*
X30298Y-44555D01*
X30164Y-44499D01*
X30297Y-44445D01*
X30445Y-44298D01*
X30525Y-44105D01*
X30525Y-43896D01*
X30445Y-43703D01*
X30298Y-43555D01*
X30164Y-43499D01*
X30297Y-43445D01*
X30445Y-43298D01*
X30525Y-43105D01*
X30525Y-42896D01*
X30445Y-42703D01*
X30298Y-42555D01*
X30164Y-42499D01*
X30297Y-42445D01*
X30445Y-42298D01*
X30525Y-42105D01*
X30525Y-41896D01*
X30525Y-39105D01*
X30525Y-38896D01*
X30519Y-38881D01*
X30519Y-38074D01*
X30519Y-37074D01*
X30508Y-36870D01*
X30452Y-36733D01*
X30361Y-36710D01*
X30071Y-37000D01*
X30361Y-37290D01*
X30452Y-37267D01*
X30519Y-37074D01*
X30519Y-38074D01*
X30508Y-37870D01*
X30452Y-37733D01*
X30361Y-37710D01*
X30290Y-37781D01*
X30290Y-37639D01*
X30267Y-37548D01*
X30140Y-37503D01*
X30267Y-37452D01*
X30290Y-37361D01*
X30000Y-37071D01*
X29929Y-37142D01*
X29929Y-37000D01*
X29639Y-36710D01*
X29548Y-36733D01*
X29481Y-36926D01*
X29492Y-37130D01*
X29548Y-37267D01*
X29639Y-37290D01*
X29929Y-37000D01*
X29929Y-37142D01*
X29710Y-37361D01*
X29733Y-37452D01*
X29859Y-37496D01*
X29733Y-37548D01*
X29710Y-37639D01*
X30000Y-37929D01*
X30290Y-37639D01*
X30290Y-37781D01*
X30071Y-38000D01*
X30361Y-38290D01*
X30452Y-38267D01*
X30519Y-38074D01*
X30519Y-38881D01*
X30445Y-38703D01*
X30298Y-38555D01*
X30157Y-38496D01*
X30267Y-38452D01*
X30290Y-38361D01*
X30000Y-38071D01*
X29929Y-38142D01*
X29929Y-38000D01*
X29639Y-37710D01*
X29548Y-37733D01*
X29481Y-37926D01*
X29492Y-38130D01*
X29548Y-38267D01*
X29639Y-38290D01*
X29929Y-38000D01*
X29929Y-38142D01*
X29710Y-38361D01*
X29733Y-38452D01*
X29851Y-38493D01*
X29703Y-38555D01*
X29555Y-38702D01*
X29475Y-38895D01*
X29475Y-39104D01*
X29555Y-39297D01*
X29702Y-39445D01*
X29895Y-39525D01*
X30104Y-39525D01*
X30297Y-39445D01*
X30445Y-39298D01*
X30525Y-39105D01*
X30525Y-41896D01*
X30445Y-41703D01*
X30298Y-41555D01*
X30223Y-41524D01*
X30324Y-41524D01*
X30416Y-41486D01*
X30486Y-41416D01*
X30524Y-41325D01*
X30524Y-41226D01*
X30524Y-40676D01*
X30486Y-40584D01*
X30416Y-40514D01*
X30325Y-40476D01*
X30226Y-40476D01*
X29676Y-40476D01*
X29584Y-40514D01*
X29514Y-40584D01*
X29476Y-40675D01*
X29476Y-40710D01*
X28370Y-40710D01*
X27425Y-39764D01*
X27425Y-39666D01*
X27361Y-39510D01*
X27241Y-39390D01*
X27085Y-39325D01*
X26916Y-39325D01*
X26760Y-39389D01*
X26640Y-39509D01*
X26575Y-39665D01*
X26575Y-39834D01*
X26639Y-39990D01*
X26759Y-40110D01*
X26915Y-40175D01*
X27014Y-40175D01*
X28044Y-41205D01*
X28045Y-41205D01*
X28107Y-41246D01*
X28138Y-41267D01*
X28139Y-41268D01*
X28249Y-41289D01*
X28250Y-41290D01*
X29476Y-41290D01*
X29476Y-41324D01*
X29514Y-41416D01*
X29584Y-41486D01*
X29675Y-41524D01*
X29774Y-41524D01*
X29703Y-41555D01*
X29555Y-41702D01*
X29475Y-41895D01*
X29475Y-42104D01*
X29555Y-42297D01*
X29702Y-42445D01*
X29835Y-42500D01*
X29703Y-42555D01*
X29555Y-42702D01*
X29551Y-42710D01*
X29120Y-42710D01*
X28705Y-42295D01*
X28611Y-42232D01*
X28500Y-42210D01*
X28120Y-42210D01*
X27925Y-42015D01*
X27925Y-41916D01*
X27861Y-41760D01*
X27741Y-41640D01*
X27585Y-41575D01*
X27416Y-41575D01*
X27260Y-41639D01*
X27140Y-41759D01*
X27075Y-41915D01*
X27075Y-42084D01*
X27139Y-42240D01*
X27259Y-42360D01*
X27415Y-42425D01*
X27515Y-42425D01*
X27744Y-42654D01*
X27640Y-42759D01*
X27575Y-42915D01*
X27575Y-43084D01*
X27631Y-43221D01*
X26425Y-42015D01*
X26425Y-41916D01*
X26361Y-41760D01*
X26241Y-41640D01*
X26085Y-41575D01*
X25916Y-41575D01*
X25760Y-41639D01*
X25640Y-41759D01*
X25575Y-41915D01*
X25575Y-42084D01*
X25639Y-42240D01*
X25759Y-42360D01*
X25915Y-42425D01*
X26015Y-42425D01*
X29477Y-45887D01*
X29475Y-45895D01*
X29475Y-46104D01*
X29555Y-46297D01*
X29702Y-46445D01*
X29895Y-46525D01*
X30104Y-46525D01*
X30297Y-46445D01*
X30445Y-46298D01*
X30525Y-46105D01*
X30525Y-72675D01*
X24325Y-72675D01*
X24325Y-11900D01*
X32690Y-11900D01*
X30795Y-13795D01*
X30732Y-13889D01*
X30710Y-14000D01*
X30710Y-17189D01*
X30640Y-17259D01*
X30575Y-17415D01*
X30575Y-17584D01*
X30639Y-17740D01*
X30759Y-17860D01*
X30915Y-17925D01*
X31084Y-17925D01*
X31210Y-17873D01*
X31210Y-20000D01*
X31232Y-20111D01*
X31295Y-20205D01*
X32710Y-21620D01*
X32710Y-24325D01*
X32666Y-24325D01*
X32510Y-24389D01*
X32390Y-24509D01*
X32325Y-24665D01*
X32325Y-24834D01*
X32389Y-24990D01*
X32474Y-25075D01*
X32416Y-25075D01*
X32260Y-25139D01*
X32140Y-25259D01*
X32075Y-25415D01*
X32075Y-25515D01*
X31880Y-25710D01*
X31811Y-25710D01*
X31741Y-25640D01*
X31585Y-25575D01*
X31416Y-25575D01*
X31290Y-25626D01*
X31290Y-25250D01*
X31268Y-25139D01*
X31205Y-25045D01*
X31175Y-25015D01*
X31175Y-24916D01*
X31111Y-24760D01*
X30991Y-24640D01*
X30835Y-24575D01*
X30666Y-24575D01*
X30510Y-24639D01*
X30390Y-24759D01*
X30325Y-24915D01*
X30325Y-25084D01*
X30389Y-25240D01*
X30509Y-25360D01*
X30665Y-25425D01*
X30710Y-25425D01*
X30710Y-29500D01*
X30732Y-29611D01*
X30795Y-29705D01*
X30994Y-29904D01*
X30890Y-30009D01*
X30825Y-30165D01*
X30825Y-30334D01*
X30889Y-30490D01*
X30960Y-30561D01*
X30960Y-30630D01*
X30765Y-30825D01*
X30666Y-30825D01*
X30510Y-30889D01*
X30390Y-31009D01*
X30325Y-31165D01*
X30325Y-31334D01*
X30389Y-31490D01*
X30410Y-31511D01*
X30325Y-31476D01*
X30226Y-31476D01*
X29676Y-31476D01*
X29584Y-31514D01*
X29514Y-31584D01*
X29476Y-31675D01*
X29476Y-31774D01*
X29476Y-32324D01*
X29514Y-32416D01*
X29584Y-32486D01*
X29675Y-32524D01*
X29774Y-32524D01*
X29703Y-32555D01*
X29555Y-32702D01*
X29475Y-32895D01*
X29475Y-33104D01*
X29555Y-33297D01*
X29702Y-33445D01*
X29835Y-33500D01*
X29703Y-33555D01*
X29555Y-33702D01*
X29475Y-33895D01*
X29475Y-34104D01*
X29555Y-34297D01*
X29702Y-34445D01*
X29835Y-34500D01*
X29703Y-34555D01*
X29555Y-34702D01*
X29475Y-34895D01*
X29475Y-35104D01*
X29555Y-35297D01*
X29702Y-35445D01*
X29835Y-35500D01*
X29703Y-35555D01*
X29555Y-35702D01*
X29475Y-35895D01*
X29475Y-36104D01*
X29555Y-36297D01*
X29702Y-36445D01*
X29842Y-36503D01*
X29733Y-36548D01*
X29710Y-36639D01*
X30000Y-36929D01*
X30290Y-36639D01*
X30267Y-36548D01*
X30148Y-36506D01*
X30297Y-36445D01*
X30445Y-36298D01*
X30525Y-36105D01*
X30525Y-35896D01*
X30445Y-35703D01*
X30298Y-35555D01*
X30164Y-35499D01*
X30297Y-35445D01*
X30445Y-35298D01*
X30525Y-35105D01*
X30525Y-34896D01*
X30445Y-34703D01*
X30298Y-34555D01*
X30164Y-34499D01*
X30297Y-34445D01*
X30445Y-34298D01*
X30525Y-34105D01*
X30525Y-33896D01*
X30445Y-33703D01*
X30298Y-33555D01*
X30164Y-33499D01*
X30297Y-33445D01*
X30445Y-33298D01*
X30525Y-33105D01*
X30525Y-32896D01*
X30445Y-32703D01*
X30298Y-32555D01*
X30223Y-32524D01*
X30324Y-32524D01*
X30416Y-32486D01*
X30486Y-32416D01*
X30524Y-32325D01*
X30524Y-32226D01*
X30524Y-31676D01*
X30488Y-31589D01*
X30509Y-31610D01*
X30665Y-31675D01*
X30834Y-31675D01*
X30990Y-31611D01*
X31110Y-31491D01*
X31175Y-31335D01*
X31175Y-31235D01*
X31455Y-30955D01*
X31460Y-30947D01*
X31460Y-31361D01*
X31450Y-31360D01*
X31339Y-31382D01*
X31245Y-31445D01*
X31182Y-31539D01*
X31160Y-31650D01*
X31160Y-32247D01*
X31132Y-32289D01*
X31110Y-32400D01*
X31110Y-33150D01*
X31132Y-33261D01*
X31195Y-33355D01*
X31289Y-33418D01*
X31400Y-33440D01*
X31460Y-33428D01*
X31460Y-34250D01*
X31482Y-34361D01*
X31545Y-34455D01*
X31590Y-34500D01*
X31295Y-34795D01*
X31232Y-34889D01*
X31210Y-35000D01*
X31210Y-39189D01*
X31140Y-39259D01*
X31075Y-39415D01*
X31075Y-39584D01*
X31139Y-39740D01*
X31254Y-39855D01*
X31232Y-39889D01*
X31210Y-40000D01*
X31210Y-46880D01*
X30795Y-47295D01*
X30732Y-47389D01*
X30710Y-47500D01*
X30710Y-48000D01*
X30732Y-48111D01*
X30795Y-48205D01*
X31075Y-48485D01*
X31075Y-48584D01*
X31139Y-48740D01*
X31259Y-48860D01*
X31415Y-48925D01*
X31584Y-48925D01*
X31740Y-48861D01*
X31860Y-48741D01*
X31925Y-48585D01*
X31925Y-48416D01*
X31861Y-48260D01*
X31741Y-48140D01*
X31585Y-48075D01*
X31485Y-48075D01*
X31290Y-47880D01*
X31290Y-47620D01*
X31705Y-47205D01*
X31768Y-47111D01*
X31790Y-47000D01*
X31790Y-40120D01*
X32205Y-39705D01*
X32268Y-39611D01*
X32290Y-39500D01*
X32290Y-37120D01*
X32620Y-36790D01*
X33052Y-36790D01*
X33055Y-36797D01*
X33202Y-36945D01*
X33335Y-37000D01*
X33203Y-37055D01*
X33055Y-37202D01*
X32975Y-37395D01*
X32975Y-37604D01*
X33055Y-37797D01*
X33202Y-37945D01*
X33335Y-38000D01*
X33203Y-38055D01*
X33055Y-38202D01*
X32975Y-38395D01*
X32975Y-38604D01*
X33055Y-38797D01*
X33202Y-38945D01*
X33342Y-39003D01*
X33233Y-39048D01*
X33210Y-39139D01*
X33500Y-39429D01*
X33790Y-39139D01*
X33767Y-39048D01*
X33648Y-39006D01*
X33797Y-38945D01*
X33945Y-38798D01*
X34025Y-38605D01*
X34025Y-38396D01*
X33945Y-38203D01*
X33798Y-38055D01*
X33664Y-37999D01*
X33797Y-37945D01*
X33945Y-37798D01*
X34025Y-37605D01*
X34025Y-37396D01*
X33945Y-37203D01*
X33798Y-37055D01*
X33664Y-36999D01*
X33797Y-36945D01*
X33945Y-36798D01*
X34025Y-36605D01*
X34025Y-36396D01*
X33945Y-36203D01*
X33798Y-36055D01*
X33664Y-35999D01*
X33797Y-35945D01*
X33945Y-35798D01*
X34025Y-35605D01*
X34025Y-35396D01*
X33945Y-35203D01*
X33798Y-35055D01*
X33664Y-34999D01*
X33797Y-34945D01*
X33945Y-34798D01*
X34025Y-34605D01*
X34025Y-34396D01*
X33945Y-34203D01*
X33798Y-34055D01*
X33664Y-33999D01*
X33797Y-33945D01*
X33945Y-33798D01*
X34025Y-33605D01*
X34025Y-33435D01*
X34210Y-33620D01*
X34210Y-43880D01*
X33916Y-44173D01*
X33798Y-44055D01*
X33664Y-43999D01*
X33797Y-43945D01*
X33945Y-43798D01*
X34025Y-43605D01*
X34025Y-43396D01*
X33945Y-43203D01*
X33798Y-43055D01*
X33723Y-43024D01*
X33824Y-43024D01*
X33916Y-42986D01*
X33986Y-42916D01*
X34024Y-42825D01*
X34024Y-42726D01*
X34024Y-42176D01*
X34019Y-42163D01*
X34019Y-39574D01*
X34008Y-39370D01*
X33952Y-39233D01*
X33861Y-39210D01*
X33571Y-39500D01*
X33861Y-39790D01*
X33952Y-39767D01*
X34019Y-39574D01*
X34019Y-42163D01*
X33986Y-42084D01*
X33916Y-42014D01*
X33825Y-41976D01*
X33790Y-41976D01*
X33790Y-39861D01*
X33500Y-39571D01*
X33429Y-39642D01*
X33429Y-39500D01*
X33139Y-39210D01*
X33048Y-39233D01*
X32981Y-39426D01*
X32992Y-39630D01*
X33048Y-39767D01*
X33139Y-39790D01*
X33429Y-39500D01*
X33429Y-39642D01*
X33210Y-39861D01*
X33233Y-39952D01*
X33426Y-40019D01*
X33630Y-40008D01*
X33767Y-39952D01*
X33790Y-39861D01*
X33790Y-41976D01*
X33726Y-41976D01*
X33176Y-41976D01*
X33084Y-42014D01*
X33014Y-42084D01*
X32976Y-42175D01*
X32976Y-42274D01*
X32976Y-42824D01*
X33014Y-42916D01*
X33084Y-42986D01*
X33175Y-43024D01*
X33274Y-43024D01*
X33203Y-43055D01*
X33055Y-43202D01*
X32975Y-43395D01*
X32975Y-43604D01*
X33055Y-43797D01*
X33202Y-43945D01*
X33335Y-44000D01*
X33203Y-44055D01*
X33055Y-44202D01*
X32975Y-44395D01*
X32975Y-44604D01*
X33055Y-44797D01*
X33202Y-44945D01*
X33335Y-45000D01*
X33203Y-45055D01*
X33055Y-45202D01*
X32975Y-45395D01*
X32975Y-45604D01*
X33055Y-45797D01*
X33202Y-45945D01*
X33335Y-46000D01*
X33203Y-46055D01*
X33083Y-46173D01*
X32790Y-45880D01*
X32790Y-41811D01*
X32860Y-41741D01*
X32925Y-41585D01*
X32925Y-41416D01*
X32861Y-41260D01*
X32741Y-41140D01*
X32585Y-41075D01*
X32416Y-41075D01*
X32260Y-41139D01*
X32140Y-41259D01*
X32075Y-41415D01*
X32075Y-41584D01*
X32139Y-41740D01*
X32210Y-41811D01*
X32210Y-46000D01*
X32232Y-46111D01*
X32295Y-46205D01*
X32795Y-46705D01*
X32889Y-46768D01*
X33000Y-46790D01*
X33052Y-46790D01*
X33055Y-46797D01*
X33202Y-46945D01*
X33335Y-47000D01*
X33203Y-47055D01*
X33055Y-47202D01*
X32975Y-47395D01*
X32975Y-47604D01*
X33055Y-47797D01*
X33202Y-47945D01*
X33335Y-48000D01*
X33203Y-48055D01*
X33055Y-48202D01*
X33051Y-48210D01*
X32811Y-48210D01*
X32741Y-48140D01*
X32585Y-48075D01*
X32416Y-48075D01*
X32260Y-48139D01*
X32140Y-48259D01*
X32075Y-48415D01*
X32075Y-48584D01*
X32139Y-48740D01*
X32259Y-48860D01*
X32415Y-48925D01*
X32584Y-48925D01*
X32740Y-48861D01*
X32811Y-48790D01*
X33052Y-48790D01*
X33055Y-48797D01*
X33202Y-48945D01*
X33335Y-49000D01*
X33203Y-49055D01*
X33055Y-49202D01*
X32975Y-49395D01*
X32975Y-49604D01*
X33055Y-49797D01*
X33202Y-49945D01*
X33335Y-50000D01*
X33203Y-50055D01*
X33055Y-50202D01*
X32975Y-50395D01*
X32975Y-50604D01*
X33055Y-50797D01*
X33202Y-50945D01*
X33342Y-51003D01*
X33233Y-51048D01*
X33210Y-51139D01*
X33500Y-51429D01*
X33790Y-51139D01*
X33767Y-51048D01*
X33648Y-51006D01*
X33797Y-50945D01*
X33945Y-50798D01*
X34025Y-50605D01*
X34025Y-50396D01*
X33945Y-50203D01*
X33798Y-50055D01*
X33664Y-49999D01*
X33797Y-49945D01*
X33945Y-49798D01*
X34025Y-49605D01*
X34025Y-49396D01*
X34021Y-49388D01*
X34705Y-48705D01*
X34768Y-48611D01*
X34790Y-48500D01*
X34790Y-47620D01*
X35120Y-47290D01*
X36018Y-47290D01*
X35975Y-47395D01*
X35975Y-47604D01*
X36055Y-47797D01*
X36202Y-47945D01*
X36335Y-48000D01*
X36203Y-48055D01*
X36055Y-48202D01*
X35975Y-48395D01*
X35975Y-48604D01*
X36055Y-48797D01*
X36202Y-48945D01*
X36335Y-49000D01*
X36203Y-49055D01*
X36055Y-49202D01*
X35975Y-49395D01*
X35975Y-49604D01*
X36055Y-49797D01*
X36202Y-49945D01*
X36335Y-50000D01*
X36203Y-50055D01*
X36055Y-50202D01*
X35975Y-50395D01*
X35975Y-50604D01*
X36055Y-50797D01*
X36202Y-50945D01*
X36335Y-51000D01*
X36203Y-51055D01*
X36055Y-51202D01*
X35975Y-51395D01*
X35975Y-51604D01*
X36055Y-51797D01*
X36202Y-51945D01*
X36395Y-52025D01*
X36604Y-52025D01*
X36797Y-51945D01*
X36945Y-51798D01*
X37025Y-51605D01*
X37025Y-51396D01*
X36945Y-51203D01*
X36798Y-51055D01*
X36664Y-50999D01*
X36797Y-50945D01*
X36945Y-50798D01*
X36948Y-50790D01*
X38000Y-50790D01*
X38111Y-50768D01*
X38205Y-50705D01*
X38485Y-50425D01*
X38584Y-50425D01*
X38740Y-50361D01*
X38860Y-50241D01*
X38925Y-50085D01*
X38925Y-49916D01*
X38861Y-49760D01*
X38755Y-49654D01*
X40620Y-47790D01*
X41552Y-47790D01*
X41555Y-47797D01*
X41702Y-47945D01*
X41835Y-48000D01*
X41703Y-48055D01*
X41555Y-48202D01*
X41475Y-48395D01*
X41475Y-48604D01*
X41555Y-48797D01*
X41702Y-48945D01*
X41835Y-49000D01*
X41703Y-49055D01*
X41555Y-49202D01*
X41475Y-49395D01*
X41475Y-49604D01*
X41555Y-49797D01*
X41702Y-49945D01*
X41842Y-50003D01*
X41733Y-50048D01*
X41710Y-50139D01*
X42000Y-50429D01*
X42290Y-50139D01*
X42267Y-50048D01*
X42148Y-50006D01*
X42297Y-49945D01*
X42445Y-49798D01*
X42525Y-49605D01*
X42525Y-49396D01*
X42445Y-49203D01*
X42298Y-49055D01*
X42164Y-48999D01*
X42297Y-48945D01*
X42445Y-48798D01*
X42525Y-48605D01*
X42525Y-48396D01*
X42445Y-48203D01*
X42298Y-48055D01*
X42164Y-47999D01*
X42297Y-47945D01*
X42445Y-47798D01*
X42525Y-47605D01*
X42525Y-47396D01*
X42445Y-47203D01*
X42298Y-47055D01*
X42164Y-46999D01*
X42297Y-46945D01*
X42445Y-46798D01*
X42525Y-46605D01*
X42525Y-46396D01*
X42445Y-46203D01*
X42298Y-46055D01*
X42164Y-45999D01*
X42297Y-45945D01*
X42445Y-45798D01*
X42525Y-45605D01*
X42525Y-45396D01*
X42445Y-45203D01*
X42298Y-45055D01*
X42164Y-44999D01*
X42297Y-44945D01*
X42445Y-44798D01*
X42525Y-44605D01*
X42525Y-44396D01*
X42445Y-44203D01*
X42298Y-44055D01*
X42223Y-44024D01*
X42324Y-44024D01*
X42416Y-43986D01*
X42486Y-43916D01*
X42524Y-43825D01*
X42524Y-43726D01*
X42524Y-43176D01*
X42486Y-43084D01*
X42416Y-43014D01*
X42325Y-42976D01*
X42226Y-42976D01*
X41676Y-42976D01*
X41584Y-43014D01*
X41514Y-43084D01*
X41476Y-43175D01*
X41476Y-43274D01*
X41476Y-43824D01*
X41514Y-43916D01*
X41584Y-43986D01*
X41675Y-44024D01*
X41774Y-44024D01*
X41703Y-44055D01*
X41555Y-44202D01*
X41475Y-44395D01*
X41475Y-44604D01*
X41555Y-44797D01*
X41702Y-44945D01*
X41835Y-45000D01*
X41703Y-45055D01*
X41555Y-45202D01*
X41475Y-45395D01*
X41475Y-45604D01*
X41555Y-45797D01*
X41702Y-45945D01*
X41835Y-46000D01*
X41703Y-46055D01*
X41555Y-46202D01*
X41475Y-46395D01*
X41475Y-46604D01*
X41555Y-46797D01*
X41702Y-46945D01*
X41835Y-47000D01*
X41703Y-47055D01*
X41555Y-47202D01*
X41551Y-47210D01*
X40500Y-47210D01*
X40389Y-47232D01*
X40295Y-47295D01*
X38380Y-49210D01*
X36947Y-49210D01*
X36945Y-49203D01*
X36798Y-49055D01*
X36664Y-48999D01*
X36797Y-48945D01*
X36945Y-48798D01*
X36948Y-48790D01*
X38500Y-48790D01*
X38611Y-48768D01*
X38705Y-48705D01*
X40705Y-46705D01*
X40768Y-46611D01*
X40790Y-46500D01*
X40790Y-42872D01*
X40915Y-42925D01*
X41084Y-42925D01*
X41240Y-42861D01*
X41311Y-42790D01*
X42380Y-42790D01*
X42710Y-43120D01*
X42710Y-43500D01*
X42732Y-43611D01*
X42795Y-43705D01*
X43795Y-44705D01*
X43889Y-44768D01*
X44000Y-44790D01*
X44552Y-44790D01*
X44555Y-44797D01*
X44702Y-44945D01*
X44835Y-45000D01*
X44703Y-45055D01*
X44555Y-45202D01*
X44475Y-45395D01*
X44475Y-45604D01*
X44555Y-45797D01*
X44702Y-45945D01*
X44842Y-46003D01*
X44733Y-46048D01*
X44710Y-46139D01*
X45000Y-46429D01*
X45290Y-46139D01*
X45267Y-46048D01*
X45148Y-46006D01*
X45297Y-45945D01*
X45445Y-45798D01*
X45448Y-45790D01*
X45500Y-45790D01*
X45611Y-45768D01*
X45705Y-45705D01*
X46205Y-45205D01*
X46210Y-45197D01*
X46210Y-46880D01*
X45880Y-47210D01*
X45519Y-47210D01*
X45519Y-46574D01*
X45508Y-46370D01*
X45452Y-46233D01*
X45361Y-46210D01*
X45071Y-46500D01*
X45361Y-46790D01*
X45452Y-46767D01*
X45519Y-46574D01*
X45519Y-47210D01*
X45447Y-47210D01*
X45445Y-47203D01*
X45298Y-47055D01*
X45157Y-46996D01*
X45267Y-46952D01*
X45290Y-46861D01*
X45000Y-46571D01*
X44929Y-46642D01*
X44929Y-46500D01*
X44639Y-46210D01*
X44548Y-46233D01*
X44481Y-46426D01*
X44492Y-46630D01*
X44548Y-46767D01*
X44639Y-46790D01*
X44929Y-46500D01*
X44929Y-46642D01*
X44710Y-46861D01*
X44733Y-46952D01*
X44851Y-46993D01*
X44703Y-47055D01*
X44555Y-47202D01*
X44475Y-47395D01*
X44475Y-47604D01*
X44555Y-47797D01*
X44702Y-47945D01*
X44710Y-47948D01*
X44710Y-48052D01*
X44703Y-48055D01*
X44555Y-48202D01*
X44475Y-48395D01*
X44475Y-48604D01*
X44555Y-48797D01*
X44702Y-48945D01*
X44842Y-49003D01*
X44733Y-49048D01*
X44710Y-49139D01*
X45000Y-49429D01*
X45290Y-49139D01*
X45267Y-49048D01*
X45148Y-49006D01*
X45297Y-48945D01*
X45445Y-48798D01*
X45525Y-48605D01*
X45525Y-48396D01*
X45445Y-48203D01*
X45298Y-48055D01*
X45290Y-48051D01*
X45290Y-47947D01*
X45297Y-47945D01*
X45445Y-47798D01*
X45448Y-47790D01*
X46000Y-47790D01*
X46111Y-47768D01*
X46205Y-47705D01*
X46705Y-47205D01*
X46768Y-47111D01*
X46790Y-47000D01*
X46790Y-39872D01*
X46915Y-39925D01*
X47084Y-39925D01*
X47240Y-39861D01*
X47360Y-39741D01*
X47425Y-39585D01*
X47425Y-39485D01*
X47620Y-39290D01*
X48109Y-39290D01*
X48040Y-39359D01*
X47975Y-39515D01*
X47975Y-39684D01*
X48039Y-39840D01*
X48060Y-39861D01*
X48060Y-40450D01*
X48082Y-40561D01*
X48145Y-40655D01*
X48239Y-40718D01*
X48350Y-40740D01*
X48461Y-40718D01*
X48555Y-40655D01*
X48618Y-40561D01*
X48640Y-40450D01*
X48640Y-40382D01*
X48702Y-40445D01*
X48835Y-40500D01*
X48703Y-40555D01*
X48555Y-40702D01*
X48475Y-40895D01*
X48475Y-41104D01*
X48555Y-41297D01*
X48702Y-41445D01*
X48835Y-41500D01*
X48703Y-41555D01*
X48555Y-41702D01*
X48475Y-41895D01*
X48475Y-42104D01*
X48555Y-42297D01*
X48702Y-42445D01*
X48835Y-42500D01*
X48703Y-42555D01*
X48555Y-42702D01*
X48475Y-42895D01*
X48475Y-43104D01*
X48555Y-43297D01*
X48702Y-43445D01*
X48835Y-43500D01*
X48703Y-43555D01*
X48555Y-43702D01*
X48475Y-43895D01*
X48475Y-44104D01*
X48555Y-44297D01*
X48702Y-44445D01*
X48835Y-44500D01*
X48703Y-44555D01*
X48555Y-44702D01*
X48475Y-44895D01*
X48475Y-45104D01*
X48555Y-45297D01*
X48702Y-45445D01*
X48835Y-45500D01*
X48703Y-45555D01*
X48555Y-45702D01*
X48475Y-45895D01*
X48475Y-46104D01*
X48555Y-46297D01*
X48702Y-46445D01*
X48895Y-46525D01*
X49104Y-46525D01*
X49297Y-46445D01*
X49445Y-46298D01*
X49525Y-46105D01*
X49525Y-45896D01*
X49445Y-45703D01*
X49298Y-45555D01*
X49164Y-45499D01*
X49297Y-45445D01*
X49445Y-45298D01*
X49525Y-45105D01*
X49525Y-44896D01*
X49445Y-44703D01*
X49298Y-44555D01*
X49164Y-44499D01*
X49297Y-44445D01*
X49445Y-44298D01*
X49525Y-44105D01*
X49525Y-43896D01*
X49445Y-43703D01*
X49298Y-43555D01*
X49164Y-43499D01*
X49297Y-43445D01*
X49445Y-43298D01*
X49448Y-43290D01*
X49880Y-43290D01*
X51075Y-44485D01*
X51075Y-44584D01*
X51139Y-44740D01*
X51259Y-44860D01*
X51415Y-44925D01*
X51584Y-44925D01*
X51740Y-44861D01*
X51860Y-44741D01*
X51925Y-44585D01*
X51925Y-44416D01*
X51861Y-44260D01*
X51741Y-44140D01*
X51585Y-44075D01*
X51485Y-44075D01*
X50205Y-42795D01*
X50111Y-42732D01*
X50000Y-42710D01*
X49447Y-42710D01*
X49445Y-42703D01*
X49298Y-42555D01*
X49164Y-42499D01*
X49297Y-42445D01*
X49445Y-42298D01*
X49448Y-42290D01*
X53380Y-42290D01*
X54575Y-43485D01*
X54575Y-43584D01*
X54639Y-43740D01*
X54759Y-43860D01*
X54915Y-43925D01*
X55084Y-43925D01*
X55240Y-43861D01*
X55360Y-43741D01*
X55425Y-43585D01*
X55425Y-43416D01*
X55361Y-43260D01*
X55241Y-43140D01*
X55085Y-43075D01*
X54985Y-43075D01*
X54584Y-42674D01*
X54740Y-42611D01*
X54860Y-42491D01*
X54925Y-42335D01*
X54925Y-42166D01*
X54861Y-42010D01*
X54741Y-41890D01*
X54585Y-41825D01*
X54485Y-41825D01*
X53455Y-40795D01*
X53361Y-40732D01*
X53250Y-40710D01*
X49447Y-40710D01*
X49445Y-40703D01*
X49298Y-40555D01*
X49164Y-40499D01*
X49297Y-40445D01*
X49445Y-40298D01*
X49525Y-40105D01*
X49525Y-39896D01*
X49445Y-39703D01*
X49298Y-39555D01*
X49223Y-39524D01*
X49324Y-39524D01*
X49416Y-39486D01*
X49486Y-39416D01*
X49524Y-39325D01*
X49524Y-39226D01*
X49524Y-38676D01*
X49486Y-38584D01*
X49416Y-38514D01*
X49325Y-38476D01*
X49226Y-38476D01*
X48784Y-38476D01*
X48870Y-38390D01*
X49100Y-38390D01*
X49211Y-38368D01*
X49305Y-38305D01*
X49368Y-38211D01*
X49390Y-38100D01*
X49368Y-37989D01*
X49305Y-37895D01*
X49255Y-37862D01*
X49297Y-37845D01*
X49445Y-37698D01*
X49525Y-37505D01*
X49525Y-37296D01*
X49445Y-37103D01*
X49298Y-36955D01*
X49164Y-36899D01*
X49297Y-36845D01*
X49445Y-36698D01*
X49525Y-36505D01*
X49525Y-36296D01*
X49445Y-36103D01*
X49298Y-35955D01*
X49164Y-35899D01*
X49297Y-35845D01*
X49445Y-35698D01*
X49525Y-35505D01*
X49525Y-35296D01*
X49445Y-35103D01*
X49298Y-34955D01*
X49164Y-34899D01*
X49297Y-34845D01*
X49445Y-34698D01*
X49525Y-34505D01*
X49525Y-34296D01*
X49445Y-34103D01*
X49298Y-33955D01*
X49164Y-33899D01*
X49297Y-33845D01*
X49445Y-33698D01*
X49525Y-33505D01*
X49525Y-33296D01*
X49445Y-33103D01*
X49298Y-32955D01*
X49164Y-32899D01*
X49297Y-32845D01*
X49445Y-32698D01*
X49525Y-32505D01*
X49525Y-32296D01*
X49445Y-32103D01*
X49298Y-31955D01*
X49164Y-31899D01*
X49297Y-31845D01*
X49445Y-31698D01*
X49525Y-31505D01*
X49525Y-31296D01*
X49445Y-31103D01*
X49298Y-30955D01*
X49164Y-30899D01*
X49297Y-30845D01*
X49445Y-30698D01*
X49525Y-30505D01*
X49525Y-30296D01*
X49445Y-30103D01*
X49298Y-29955D01*
X49164Y-29899D01*
X49297Y-29845D01*
X49445Y-29698D01*
X49525Y-29505D01*
X49525Y-29296D01*
X49445Y-29103D01*
X49298Y-28955D01*
X49223Y-28924D01*
X49324Y-28924D01*
X49416Y-28886D01*
X49486Y-28816D01*
X49524Y-28725D01*
X49524Y-28626D01*
X49524Y-28076D01*
X49486Y-27984D01*
X49416Y-27914D01*
X49325Y-27876D01*
X49226Y-27876D01*
X48676Y-27876D01*
X48584Y-27914D01*
X48514Y-27984D01*
X48476Y-28075D01*
X48476Y-28174D01*
X48476Y-28724D01*
X48514Y-28816D01*
X48584Y-28886D01*
X48675Y-28924D01*
X48774Y-28924D01*
X48703Y-28955D01*
X48555Y-29102D01*
X48475Y-29295D01*
X48475Y-29504D01*
X48555Y-29697D01*
X48702Y-29845D01*
X48835Y-29900D01*
X48703Y-29955D01*
X48555Y-30102D01*
X48475Y-30295D01*
X48475Y-30504D01*
X48555Y-30697D01*
X48702Y-30845D01*
X48835Y-30900D01*
X48703Y-30955D01*
X48555Y-31102D01*
X48475Y-31295D01*
X48475Y-31504D01*
X48555Y-31697D01*
X48702Y-31845D01*
X48835Y-31900D01*
X48703Y-31955D01*
X48555Y-32102D01*
X48551Y-32110D01*
X48500Y-32110D01*
X48120Y-32110D01*
X48240Y-32061D01*
X48360Y-31941D01*
X48425Y-31785D01*
X48425Y-31616D01*
X48361Y-31460D01*
X48290Y-31389D01*
X48290Y-30100D01*
X48268Y-29989D01*
X48205Y-29895D01*
X48111Y-29832D01*
X48000Y-29810D01*
X47889Y-29832D01*
X47795Y-29895D01*
X47732Y-29989D01*
X47710Y-30100D01*
X47710Y-31389D01*
X47640Y-31459D01*
X47575Y-31615D01*
X47575Y-31784D01*
X47639Y-31940D01*
X47759Y-32060D01*
X47879Y-32110D01*
X47600Y-32110D01*
X47489Y-32132D01*
X47395Y-32195D01*
X47394Y-32195D01*
X47394Y-32196D01*
X47175Y-32414D01*
X47175Y-26335D01*
X47175Y-26166D01*
X47111Y-26010D01*
X46991Y-25890D01*
X46835Y-25825D01*
X46666Y-25825D01*
X46510Y-25889D01*
X46390Y-26009D01*
X46325Y-26165D01*
X46325Y-26334D01*
X46389Y-26490D01*
X46460Y-26561D01*
X46460Y-27880D01*
X45765Y-28575D01*
X45666Y-28575D01*
X45510Y-28639D01*
X45390Y-28759D01*
X45325Y-28915D01*
X45325Y-29084D01*
X45389Y-29240D01*
X45509Y-29360D01*
X45665Y-29425D01*
X45834Y-29425D01*
X45990Y-29361D01*
X46110Y-29241D01*
X46175Y-29085D01*
X46175Y-28985D01*
X46955Y-28205D01*
X47018Y-28111D01*
X47040Y-28000D01*
X47040Y-26561D01*
X47110Y-26491D01*
X47175Y-26335D01*
X47175Y-32414D01*
X45416Y-34173D01*
X45298Y-34055D01*
X45164Y-33999D01*
X45297Y-33945D01*
X45445Y-33798D01*
X45448Y-33790D01*
X45500Y-33790D01*
X45611Y-33768D01*
X45705Y-33705D01*
X46205Y-33205D01*
X46268Y-33111D01*
X46290Y-33000D01*
X46290Y-32000D01*
X46268Y-31889D01*
X46205Y-31795D01*
X45205Y-30795D01*
X45111Y-30732D01*
X45000Y-30710D01*
X40372Y-30710D01*
X40425Y-30585D01*
X40425Y-30416D01*
X40361Y-30260D01*
X40241Y-30140D01*
X40205Y-30125D01*
X40240Y-30111D01*
X40311Y-30040D01*
X41750Y-30040D01*
X41861Y-30018D01*
X41955Y-29955D01*
X42370Y-29540D01*
X44380Y-29540D01*
X45075Y-30235D01*
X45075Y-30334D01*
X45139Y-30490D01*
X45259Y-30610D01*
X45415Y-30675D01*
X45584Y-30675D01*
X45740Y-30611D01*
X45860Y-30491D01*
X45925Y-30335D01*
X45925Y-30166D01*
X45861Y-30010D01*
X45741Y-29890D01*
X45585Y-29825D01*
X45485Y-29825D01*
X45175Y-29515D01*
X45175Y-24585D01*
X45175Y-24416D01*
X45111Y-24260D01*
X45040Y-24189D01*
X45040Y-21561D01*
X45110Y-21491D01*
X45175Y-21335D01*
X45175Y-21166D01*
X45111Y-21010D01*
X44991Y-20890D01*
X44835Y-20825D01*
X44666Y-20825D01*
X44510Y-20889D01*
X44390Y-21009D01*
X44325Y-21165D01*
X44325Y-21334D01*
X44389Y-21490D01*
X44460Y-21561D01*
X44460Y-24189D01*
X44390Y-24259D01*
X44325Y-24415D01*
X44325Y-24584D01*
X44389Y-24740D01*
X44509Y-24860D01*
X44665Y-24925D01*
X44834Y-24925D01*
X44990Y-24861D01*
X45110Y-24741D01*
X45175Y-24585D01*
X45175Y-29515D01*
X44705Y-29045D01*
X44611Y-28982D01*
X44500Y-28960D01*
X43019Y-28960D01*
X43019Y-28574D01*
X43019Y-25574D01*
X43019Y-23074D01*
X43008Y-22870D01*
X42952Y-22733D01*
X42861Y-22710D01*
X42571Y-23000D01*
X42861Y-23290D01*
X42952Y-23267D01*
X43019Y-23074D01*
X43019Y-25574D01*
X43008Y-25370D01*
X42952Y-25233D01*
X42861Y-25210D01*
X42790Y-25281D01*
X42790Y-25139D01*
X42767Y-25048D01*
X42574Y-24981D01*
X42370Y-24992D01*
X42233Y-25048D01*
X42210Y-25139D01*
X42500Y-25429D01*
X42790Y-25139D01*
X42790Y-25281D01*
X42571Y-25500D01*
X42861Y-25790D01*
X42952Y-25767D01*
X43019Y-25574D01*
X43019Y-28574D01*
X43008Y-28370D01*
X42952Y-28233D01*
X42861Y-28210D01*
X42790Y-28281D01*
X42790Y-28139D01*
X42790Y-25861D01*
X42500Y-25571D01*
X42210Y-25861D01*
X42233Y-25952D01*
X42426Y-26019D01*
X42630Y-26008D01*
X42767Y-25952D01*
X42790Y-25861D01*
X42790Y-28139D01*
X42767Y-28048D01*
X42574Y-27981D01*
X42370Y-27992D01*
X42233Y-28048D01*
X42210Y-28139D01*
X42500Y-28429D01*
X42790Y-28139D01*
X42790Y-28281D01*
X42571Y-28500D01*
X42861Y-28790D01*
X42952Y-28767D01*
X43019Y-28574D01*
X43019Y-28960D01*
X42747Y-28960D01*
X42767Y-28952D01*
X42790Y-28861D01*
X42500Y-28571D01*
X42429Y-28642D01*
X42429Y-28500D01*
X42139Y-28210D01*
X42048Y-28233D01*
X42006Y-28351D01*
X41945Y-28203D01*
X41798Y-28055D01*
X41605Y-27975D01*
X41396Y-27975D01*
X41203Y-28055D01*
X41055Y-28202D01*
X40996Y-28342D01*
X40952Y-28233D01*
X40861Y-28210D01*
X40790Y-28281D01*
X40790Y-28139D01*
X40767Y-28048D01*
X40574Y-27981D01*
X40370Y-27992D01*
X40233Y-28048D01*
X40210Y-28139D01*
X40500Y-28429D01*
X40790Y-28139D01*
X40790Y-28281D01*
X40571Y-28500D01*
X40861Y-28790D01*
X40952Y-28767D01*
X40993Y-28648D01*
X41055Y-28797D01*
X41202Y-28945D01*
X41395Y-29025D01*
X41604Y-29025D01*
X41797Y-28945D01*
X41945Y-28798D01*
X42003Y-28657D01*
X42048Y-28767D01*
X42139Y-28790D01*
X42429Y-28500D01*
X42429Y-28642D01*
X42210Y-28861D01*
X42233Y-28952D01*
X42256Y-28960D01*
X42250Y-28960D01*
X42139Y-28982D01*
X42045Y-29045D01*
X41630Y-29460D01*
X40790Y-29460D01*
X40790Y-28861D01*
X40500Y-28571D01*
X40210Y-28861D01*
X40233Y-28952D01*
X40426Y-29019D01*
X40630Y-29008D01*
X40767Y-28952D01*
X40790Y-28861D01*
X40790Y-29460D01*
X40311Y-29460D01*
X40241Y-29390D01*
X40085Y-29325D01*
X39916Y-29325D01*
X39760Y-29389D01*
X39640Y-29509D01*
X39575Y-29665D01*
X38826Y-28916D01*
X38945Y-28798D01*
X39000Y-28664D01*
X39055Y-28797D01*
X39202Y-28945D01*
X39395Y-29025D01*
X39604Y-29025D01*
X39797Y-28945D01*
X39945Y-28798D01*
X40003Y-28657D01*
X40048Y-28767D01*
X40139Y-28790D01*
X40429Y-28500D01*
X40139Y-28210D01*
X40048Y-28233D01*
X40006Y-28351D01*
X39945Y-28203D01*
X39798Y-28055D01*
X39605Y-27975D01*
X39396Y-27975D01*
X39203Y-28055D01*
X39055Y-28202D01*
X38999Y-28335D01*
X38945Y-28203D01*
X38798Y-28055D01*
X38790Y-28051D01*
X38790Y-27425D01*
X38834Y-27425D01*
X38990Y-27361D01*
X39110Y-27241D01*
X39175Y-27085D01*
X39175Y-26916D01*
X39111Y-26760D01*
X38991Y-26640D01*
X38835Y-26575D01*
X38666Y-26575D01*
X38510Y-26639D01*
X38390Y-26759D01*
X38325Y-26915D01*
X38325Y-27015D01*
X38295Y-27045D01*
X38290Y-27052D01*
X38290Y-25981D01*
X38395Y-26025D01*
X38604Y-26025D01*
X38797Y-25945D01*
X38945Y-25798D01*
X39000Y-25664D01*
X39055Y-25797D01*
X39202Y-25945D01*
X39395Y-26025D01*
X39604Y-26025D01*
X39797Y-25945D01*
X39945Y-25798D01*
X40000Y-25664D01*
X40055Y-25797D01*
X40202Y-25945D01*
X40395Y-26025D01*
X40604Y-26025D01*
X40797Y-25945D01*
X40945Y-25798D01*
X41000Y-25664D01*
X41055Y-25797D01*
X41202Y-25945D01*
X41395Y-26025D01*
X41604Y-26025D01*
X41797Y-25945D01*
X41945Y-25798D01*
X42003Y-25657D01*
X42048Y-25767D01*
X42139Y-25790D01*
X42429Y-25500D01*
X42139Y-25210D01*
X42048Y-25233D01*
X42006Y-25351D01*
X41945Y-25203D01*
X41798Y-25055D01*
X41790Y-25051D01*
X41790Y-24620D01*
X42205Y-24205D01*
X42268Y-24111D01*
X42290Y-24000D01*
X42290Y-23471D01*
X42426Y-23519D01*
X42630Y-23508D01*
X42767Y-23452D01*
X42790Y-23361D01*
X42535Y-23106D01*
X42500Y-23071D01*
X42429Y-23000D01*
X42500Y-22929D01*
X42535Y-22894D01*
X42790Y-22639D01*
X42767Y-22548D01*
X42574Y-22481D01*
X42370Y-22492D01*
X42290Y-22524D01*
X42290Y-20481D01*
X42395Y-20525D01*
X42604Y-20525D01*
X42797Y-20445D01*
X42945Y-20298D01*
X43025Y-20105D01*
X43025Y-19896D01*
X42945Y-19703D01*
X42798Y-19555D01*
X42605Y-19475D01*
X42396Y-19475D01*
X42290Y-19518D01*
X42290Y-19500D01*
X42268Y-19389D01*
X42205Y-19295D01*
X41705Y-18795D01*
X41611Y-18732D01*
X41500Y-18710D01*
X40811Y-18710D01*
X40741Y-18640D01*
X40585Y-18575D01*
X40416Y-18575D01*
X40290Y-18626D01*
X40290Y-17507D01*
X40391Y-17549D01*
X40609Y-17549D01*
X40811Y-17465D01*
X40965Y-17311D01*
X41000Y-17226D01*
X41035Y-17311D01*
X41189Y-17465D01*
X41391Y-17549D01*
X41609Y-17549D01*
X41811Y-17465D01*
X41965Y-17311D01*
X42000Y-17226D01*
X42035Y-17311D01*
X42189Y-17465D01*
X42387Y-17547D01*
X43044Y-18205D01*
X43045Y-18205D01*
X43139Y-18268D01*
X43250Y-18290D01*
X44500Y-18290D01*
X44611Y-18268D01*
X44705Y-18205D01*
X45120Y-17790D01*
X46377Y-17790D01*
X46325Y-17915D01*
X46325Y-18084D01*
X46389Y-18240D01*
X46460Y-18311D01*
X46460Y-20500D01*
X46482Y-20611D01*
X46545Y-20705D01*
X46575Y-20735D01*
X46575Y-20834D01*
X46639Y-20990D01*
X46759Y-21110D01*
X46915Y-21175D01*
X47084Y-21175D01*
X47240Y-21111D01*
X47360Y-20991D01*
X47425Y-20835D01*
X47425Y-20666D01*
X47361Y-20510D01*
X47241Y-20390D01*
X47085Y-20325D01*
X47040Y-20325D01*
X47040Y-18311D01*
X47110Y-18241D01*
X47175Y-18085D01*
X47175Y-17916D01*
X47123Y-17790D01*
X50130Y-17790D01*
X52075Y-19735D01*
X52075Y-19834D01*
X52139Y-19990D01*
X52259Y-20110D01*
X52415Y-20175D01*
X52584Y-20175D01*
X52740Y-20111D01*
X52860Y-19991D01*
X52925Y-19835D01*
X52925Y-19666D01*
X52861Y-19510D01*
X52741Y-19390D01*
X52585Y-19325D01*
X52485Y-19325D01*
X50505Y-17345D01*
X50610Y-17241D01*
X50675Y-17085D01*
X50675Y-16916D01*
X50611Y-16760D01*
X50491Y-16640D01*
X50335Y-16575D01*
X50166Y-16575D01*
X50010Y-16639D01*
X49939Y-16710D01*
X46197Y-16710D01*
X46205Y-16705D01*
X46870Y-16040D01*
X49439Y-16040D01*
X49509Y-16110D01*
X49665Y-16175D01*
X49834Y-16175D01*
X49990Y-16111D01*
X50110Y-15991D01*
X50175Y-15835D01*
X50175Y-15666D01*
X50111Y-15510D01*
X50101Y-15500D01*
X50110Y-15491D01*
X50175Y-15335D01*
X50175Y-15166D01*
X50111Y-15010D01*
X49991Y-14890D01*
X49835Y-14825D01*
X49666Y-14825D01*
X49510Y-14889D01*
X49439Y-14960D01*
X49122Y-14960D01*
X49175Y-14835D01*
X49175Y-14666D01*
X49111Y-14510D01*
X48991Y-14390D01*
X48835Y-14325D01*
X48735Y-14325D01*
X48455Y-14045D01*
X48361Y-13982D01*
X48250Y-13960D01*
X47561Y-13960D01*
X47491Y-13890D01*
X47335Y-13825D01*
X47370Y-13790D01*
X48250Y-13790D01*
X48361Y-13768D01*
X48455Y-13705D01*
X48485Y-13675D01*
X48584Y-13675D01*
X48740Y-13611D01*
X48860Y-13491D01*
X48925Y-13335D01*
X48925Y-13166D01*
X48861Y-13010D01*
X48741Y-12890D01*
X48585Y-12825D01*
X48416Y-12825D01*
X48260Y-12889D01*
X48140Y-13009D01*
X48075Y-13165D01*
X48075Y-13210D01*
X47250Y-13210D01*
X47139Y-13232D01*
X47107Y-13253D01*
X47044Y-13295D01*
X45879Y-14460D01*
X42450Y-14460D01*
X42705Y-14205D01*
X42768Y-14111D01*
X42790Y-14000D01*
X42790Y-13250D01*
X42768Y-13139D01*
X42705Y-13045D01*
X42205Y-12545D01*
X42111Y-12482D01*
X42000Y-12460D01*
X41370Y-12460D01*
X40955Y-12045D01*
X40861Y-11982D01*
X40750Y-11960D01*
X36620Y-11960D01*
X36560Y-11900D01*
X55675Y-11900D01*
X55675Y-72675D01*
X55675Y-72675D01*
G37*
G54D18*
X55675Y-72675D02*
X54425Y-72675D01*
X54425Y-49335D01*
X54425Y-49166D01*
X54361Y-49010D01*
X54241Y-48890D01*
X54085Y-48825D01*
X53916Y-48825D01*
X53760Y-48889D01*
X53640Y-49009D01*
X53575Y-49165D01*
X53575Y-49334D01*
X53627Y-49461D01*
X53425Y-49663D01*
X53425Y-49085D01*
X53425Y-48916D01*
X53361Y-48760D01*
X53241Y-48640D01*
X53085Y-48575D01*
X52916Y-48575D01*
X52760Y-48639D01*
X52640Y-48759D01*
X52575Y-48915D01*
X52575Y-49015D01*
X51925Y-49665D01*
X51925Y-49335D01*
X51925Y-49166D01*
X51861Y-49010D01*
X51741Y-48890D01*
X51585Y-48825D01*
X51416Y-48825D01*
X51260Y-48889D01*
X51140Y-49009D01*
X51075Y-49165D01*
X51075Y-49334D01*
X51127Y-49461D01*
X50868Y-49721D01*
X50925Y-49585D01*
X50925Y-49416D01*
X50861Y-49260D01*
X50741Y-49140D01*
X50585Y-49075D01*
X50425Y-49075D01*
X50425Y-48916D01*
X50361Y-48760D01*
X50290Y-48689D01*
X50290Y-48311D01*
X50360Y-48241D01*
X50425Y-48085D01*
X50425Y-47916D01*
X50361Y-47760D01*
X50241Y-47640D01*
X50085Y-47575D01*
X49916Y-47575D01*
X49760Y-47639D01*
X49640Y-47759D01*
X49575Y-47915D01*
X49575Y-48084D01*
X49639Y-48240D01*
X49710Y-48311D01*
X49710Y-48689D01*
X49640Y-48759D01*
X49575Y-48915D01*
X49575Y-49084D01*
X49626Y-49210D01*
X47500Y-49210D01*
X47389Y-49232D01*
X47295Y-49295D01*
X46515Y-50075D01*
X46416Y-50075D01*
X46260Y-50139D01*
X46140Y-50259D01*
X46075Y-50415D01*
X46075Y-50584D01*
X46139Y-50740D01*
X46259Y-50860D01*
X46415Y-50925D01*
X46584Y-50925D01*
X46740Y-50861D01*
X46860Y-50741D01*
X46925Y-50585D01*
X46925Y-50485D01*
X47620Y-49790D01*
X50189Y-49790D01*
X50259Y-49860D01*
X50415Y-49925D01*
X50584Y-49925D01*
X50720Y-49868D01*
X50629Y-49960D01*
X50000Y-49960D01*
X49889Y-49982D01*
X49795Y-50045D01*
X49515Y-50325D01*
X49416Y-50325D01*
X49260Y-50389D01*
X49140Y-50509D01*
X49075Y-50665D01*
X49075Y-50834D01*
X49139Y-50990D01*
X49259Y-51110D01*
X49415Y-51175D01*
X49584Y-51175D01*
X49740Y-51111D01*
X49860Y-50991D01*
X49925Y-50835D01*
X49925Y-50735D01*
X50120Y-50540D01*
X50750Y-50540D01*
X50861Y-50518D01*
X50955Y-50455D01*
X51705Y-49706D01*
X51705Y-49705D01*
X51768Y-49611D01*
X51774Y-49576D01*
X51860Y-49491D01*
X51925Y-49335D01*
X51925Y-49665D01*
X51015Y-50575D01*
X50916Y-50575D01*
X50760Y-50639D01*
X50640Y-50759D01*
X50575Y-50915D01*
X50575Y-51084D01*
X50639Y-51240D01*
X50759Y-51360D01*
X50915Y-51425D01*
X51084Y-51425D01*
X51240Y-51361D01*
X51360Y-51241D01*
X51425Y-51085D01*
X51425Y-50985D01*
X52985Y-49425D01*
X53084Y-49425D01*
X53240Y-49361D01*
X53360Y-49241D01*
X53425Y-49085D01*
X53425Y-49663D01*
X50514Y-52575D01*
X50416Y-52575D01*
X50260Y-52639D01*
X50140Y-52759D01*
X50075Y-52915D01*
X50075Y-53084D01*
X50139Y-53240D01*
X50259Y-53360D01*
X50415Y-53425D01*
X50584Y-53425D01*
X50740Y-53361D01*
X50860Y-53241D01*
X50925Y-53085D01*
X50925Y-52985D01*
X54205Y-49706D01*
X54205Y-49705D01*
X54246Y-49643D01*
X54267Y-49612D01*
X54268Y-49611D01*
X54274Y-49576D01*
X54360Y-49491D01*
X54425Y-49335D01*
X54425Y-72675D01*
X47425Y-72675D01*
X47425Y-58585D01*
X47425Y-58416D01*
X47361Y-58260D01*
X47241Y-58140D01*
X47085Y-58075D01*
X46916Y-58075D01*
X46760Y-58139D01*
X46689Y-58210D01*
X45525Y-58210D01*
X45525Y-50605D01*
X45525Y-50396D01*
X45519Y-50381D01*
X45519Y-49574D01*
X45508Y-49370D01*
X45452Y-49233D01*
X45361Y-49210D01*
X45071Y-49500D01*
X45361Y-49790D01*
X45452Y-49767D01*
X45519Y-49574D01*
X45519Y-50381D01*
X45445Y-50203D01*
X45298Y-50055D01*
X45157Y-49996D01*
X45267Y-49952D01*
X45290Y-49861D01*
X45000Y-49571D01*
X44929Y-49642D01*
X44929Y-49500D01*
X44639Y-49210D01*
X44548Y-49233D01*
X44481Y-49426D01*
X44492Y-49630D01*
X44548Y-49767D01*
X44639Y-49790D01*
X44929Y-49500D01*
X44929Y-49642D01*
X44710Y-49861D01*
X44733Y-49952D01*
X44851Y-49993D01*
X44703Y-50055D01*
X44555Y-50202D01*
X44475Y-50395D01*
X44475Y-50604D01*
X44555Y-50797D01*
X44702Y-50945D01*
X44895Y-51025D01*
X45104Y-51025D01*
X45297Y-50945D01*
X45445Y-50798D01*
X45525Y-50605D01*
X45525Y-58210D01*
X43811Y-58210D01*
X43741Y-58140D01*
X43585Y-58075D01*
X43416Y-58075D01*
X43260Y-58139D01*
X43140Y-58259D01*
X43075Y-58415D01*
X43075Y-58584D01*
X43139Y-58740D01*
X43259Y-58860D01*
X43415Y-58925D01*
X43584Y-58925D01*
X43740Y-58861D01*
X43811Y-58790D01*
X46689Y-58790D01*
X46759Y-58860D01*
X46915Y-58925D01*
X47084Y-58925D01*
X47240Y-58861D01*
X47360Y-58741D01*
X47425Y-58585D01*
X47425Y-72675D01*
X41887Y-72675D01*
X41925Y-72585D01*
X41925Y-72416D01*
X41861Y-72260D01*
X41741Y-72140D01*
X41585Y-72075D01*
X41485Y-72075D01*
X41277Y-71867D01*
X41415Y-71925D01*
X41584Y-71925D01*
X41740Y-71861D01*
X41860Y-71741D01*
X41925Y-71585D01*
X41925Y-71416D01*
X41861Y-71260D01*
X41741Y-71140D01*
X41585Y-71075D01*
X41416Y-71075D01*
X41260Y-71139D01*
X41189Y-71210D01*
X41120Y-71210D01*
X40459Y-70549D01*
X40609Y-70549D01*
X40811Y-70465D01*
X40965Y-70311D01*
X41000Y-70226D01*
X41035Y-70311D01*
X41189Y-70465D01*
X41391Y-70549D01*
X41609Y-70549D01*
X41811Y-70465D01*
X41965Y-70311D01*
X42000Y-70226D01*
X42035Y-70311D01*
X42189Y-70465D01*
X42391Y-70549D01*
X42609Y-70549D01*
X42811Y-70465D01*
X42965Y-70311D01*
X43000Y-70226D01*
X43035Y-70311D01*
X43189Y-70465D01*
X43391Y-70549D01*
X43609Y-70549D01*
X43811Y-70465D01*
X43965Y-70311D01*
X44049Y-70109D01*
X44049Y-69891D01*
X44043Y-69876D01*
X44043Y-69079D01*
X44032Y-68866D01*
X43972Y-68719D01*
X43878Y-68692D01*
X43808Y-68762D01*
X43808Y-68622D01*
X43781Y-68528D01*
X43579Y-68457D01*
X43366Y-68468D01*
X43219Y-68528D01*
X43192Y-68622D01*
X43500Y-68929D01*
X43808Y-68622D01*
X43808Y-68762D01*
X43571Y-69000D01*
X43878Y-69308D01*
X43972Y-69281D01*
X44043Y-69079D01*
X44043Y-69876D01*
X43965Y-69689D01*
X43811Y-69535D01*
X43719Y-69497D01*
X43781Y-69472D01*
X43808Y-69378D01*
X43500Y-69071D01*
X43192Y-69378D01*
X43219Y-69472D01*
X43284Y-69495D01*
X43189Y-69535D01*
X43035Y-69689D01*
X43000Y-69773D01*
X42965Y-69689D01*
X42811Y-69535D01*
X42726Y-69500D01*
X42811Y-69465D01*
X42965Y-69311D01*
X43002Y-69219D01*
X43028Y-69281D01*
X43122Y-69308D01*
X43429Y-69000D01*
X43122Y-68692D01*
X43028Y-68719D01*
X43004Y-68784D01*
X42965Y-68689D01*
X42811Y-68535D01*
X42609Y-68451D01*
X42391Y-68451D01*
X42189Y-68535D01*
X42035Y-68689D01*
X42000Y-68773D01*
X41965Y-68689D01*
X41811Y-68535D01*
X41680Y-68480D01*
X41870Y-68290D01*
X42750Y-68290D01*
X42861Y-68268D01*
X42955Y-68205D01*
X43735Y-67425D01*
X43834Y-67425D01*
X43990Y-67361D01*
X44110Y-67241D01*
X44175Y-67085D01*
X44175Y-66916D01*
X44111Y-66760D01*
X43991Y-66640D01*
X43835Y-66575D01*
X43666Y-66575D01*
X43510Y-66639D01*
X43390Y-66759D01*
X43325Y-66915D01*
X43325Y-67015D01*
X42630Y-67710D01*
X42622Y-67710D01*
X42675Y-67585D01*
X42675Y-67416D01*
X42611Y-67260D01*
X42525Y-67174D01*
X42525Y-62105D01*
X42525Y-61896D01*
X42519Y-61881D01*
X42519Y-57574D01*
X42519Y-54574D01*
X42519Y-50574D01*
X42508Y-50370D01*
X42452Y-50233D01*
X42361Y-50210D01*
X42071Y-50500D01*
X42361Y-50790D01*
X42452Y-50767D01*
X42519Y-50574D01*
X42519Y-54574D01*
X42508Y-54370D01*
X42452Y-54233D01*
X42361Y-54210D01*
X42290Y-54281D01*
X42290Y-54139D01*
X42290Y-50861D01*
X42000Y-50571D01*
X41929Y-50642D01*
X41929Y-50500D01*
X41639Y-50210D01*
X41548Y-50233D01*
X41481Y-50426D01*
X41492Y-50630D01*
X41548Y-50767D01*
X41639Y-50790D01*
X41929Y-50500D01*
X41929Y-50642D01*
X41710Y-50861D01*
X41733Y-50952D01*
X41926Y-51019D01*
X42130Y-51008D01*
X42267Y-50952D01*
X42290Y-50861D01*
X42290Y-54139D01*
X42267Y-54048D01*
X42074Y-53981D01*
X41870Y-53992D01*
X41733Y-54048D01*
X41710Y-54139D01*
X42000Y-54429D01*
X42290Y-54139D01*
X42290Y-54281D01*
X42071Y-54500D01*
X42361Y-54790D01*
X42452Y-54767D01*
X42519Y-54574D01*
X42519Y-57574D01*
X42508Y-57370D01*
X42452Y-57233D01*
X42361Y-57210D01*
X42290Y-57281D01*
X42290Y-57139D01*
X42290Y-54861D01*
X42000Y-54571D01*
X41710Y-54861D01*
X41733Y-54952D01*
X41926Y-55019D01*
X42130Y-55008D01*
X42267Y-54952D01*
X42290Y-54861D01*
X42290Y-57139D01*
X42267Y-57048D01*
X42074Y-56981D01*
X41870Y-56992D01*
X41733Y-57048D01*
X41710Y-57139D01*
X42000Y-57429D01*
X42290Y-57139D01*
X42290Y-57281D01*
X42071Y-57500D01*
X42361Y-57790D01*
X42452Y-57767D01*
X42519Y-57574D01*
X42519Y-61881D01*
X42445Y-61703D01*
X42298Y-61555D01*
X42290Y-61551D01*
X42290Y-57861D01*
X42000Y-57571D01*
X41710Y-57861D01*
X41733Y-57952D01*
X41926Y-58019D01*
X42130Y-58008D01*
X42267Y-57952D01*
X42290Y-57861D01*
X42290Y-61551D01*
X42105Y-61475D01*
X41896Y-61475D01*
X41790Y-61518D01*
X41790Y-59500D01*
X41768Y-59389D01*
X41705Y-59295D01*
X40790Y-58380D01*
X40790Y-57981D01*
X40895Y-58025D01*
X41104Y-58025D01*
X41297Y-57945D01*
X41445Y-57798D01*
X41503Y-57657D01*
X41548Y-57767D01*
X41639Y-57790D01*
X41929Y-57500D01*
X41639Y-57210D01*
X41548Y-57233D01*
X41506Y-57351D01*
X41445Y-57203D01*
X41298Y-57055D01*
X41105Y-56975D01*
X40896Y-56975D01*
X40790Y-57018D01*
X40790Y-56500D01*
X40768Y-56389D01*
X40705Y-56295D01*
X39326Y-54916D01*
X39445Y-54798D01*
X39500Y-54664D01*
X39555Y-54797D01*
X39702Y-54945D01*
X39895Y-55025D01*
X40104Y-55025D01*
X40297Y-54945D01*
X40445Y-54798D01*
X40500Y-54664D01*
X40555Y-54797D01*
X40702Y-54945D01*
X40895Y-55025D01*
X41104Y-55025D01*
X41297Y-54945D01*
X41445Y-54798D01*
X41503Y-54657D01*
X41548Y-54767D01*
X41639Y-54790D01*
X41929Y-54500D01*
X41639Y-54210D01*
X41548Y-54233D01*
X41506Y-54351D01*
X41445Y-54203D01*
X41298Y-54055D01*
X41105Y-53975D01*
X40896Y-53975D01*
X40703Y-54055D01*
X40555Y-54202D01*
X40499Y-54335D01*
X40445Y-54203D01*
X40298Y-54055D01*
X40105Y-53975D01*
X39896Y-53975D01*
X39703Y-54055D01*
X39555Y-54202D01*
X39499Y-54335D01*
X39445Y-54203D01*
X39425Y-54182D01*
X39425Y-52085D01*
X39425Y-51916D01*
X39361Y-51760D01*
X39241Y-51640D01*
X39085Y-51575D01*
X38916Y-51575D01*
X38760Y-51639D01*
X38640Y-51759D01*
X38575Y-51915D01*
X38575Y-52015D01*
X37880Y-52710D01*
X34019Y-52710D01*
X34019Y-51574D01*
X34008Y-51370D01*
X33952Y-51233D01*
X33861Y-51210D01*
X33571Y-51500D01*
X33861Y-51790D01*
X33952Y-51767D01*
X34019Y-51574D01*
X34019Y-52710D01*
X33790Y-52710D01*
X33790Y-51861D01*
X33500Y-51571D01*
X33429Y-51642D01*
X33429Y-51500D01*
X33139Y-51210D01*
X33048Y-51233D01*
X32981Y-51426D01*
X32992Y-51630D01*
X33048Y-51767D01*
X33139Y-51790D01*
X33429Y-51500D01*
X33429Y-51642D01*
X33210Y-51861D01*
X33233Y-51952D01*
X33426Y-52019D01*
X33630Y-52008D01*
X33767Y-51952D01*
X33790Y-51861D01*
X33790Y-52710D01*
X33120Y-52710D01*
X32925Y-52515D01*
X32925Y-52416D01*
X32861Y-52260D01*
X32741Y-52140D01*
X32585Y-52075D01*
X32416Y-52075D01*
X32260Y-52139D01*
X32140Y-52259D01*
X32075Y-52415D01*
X32075Y-52584D01*
X32139Y-52740D01*
X32259Y-52860D01*
X32415Y-52925D01*
X32515Y-52925D01*
X32795Y-53205D01*
X32889Y-53268D01*
X33000Y-53290D01*
X38000Y-53290D01*
X38111Y-53268D01*
X38205Y-53205D01*
X38985Y-52425D01*
X39084Y-52425D01*
X39240Y-52361D01*
X39360Y-52241D01*
X39425Y-52085D01*
X39425Y-54182D01*
X39298Y-54055D01*
X39105Y-53975D01*
X38896Y-53975D01*
X38703Y-54055D01*
X38555Y-54202D01*
X38499Y-54335D01*
X38445Y-54203D01*
X38298Y-54055D01*
X38105Y-53975D01*
X37896Y-53975D01*
X37703Y-54055D01*
X37555Y-54202D01*
X37499Y-54335D01*
X37445Y-54203D01*
X37298Y-54055D01*
X37105Y-53975D01*
X36896Y-53975D01*
X36703Y-54055D01*
X36555Y-54202D01*
X36499Y-54335D01*
X36445Y-54203D01*
X36298Y-54055D01*
X36105Y-53975D01*
X35896Y-53975D01*
X35703Y-54055D01*
X35555Y-54202D01*
X35499Y-54335D01*
X35445Y-54203D01*
X35298Y-54055D01*
X35105Y-53975D01*
X34896Y-53975D01*
X34703Y-54055D01*
X34555Y-54202D01*
X34475Y-54395D01*
X34475Y-54604D01*
X34555Y-54797D01*
X34702Y-54945D01*
X34895Y-55025D01*
X35104Y-55025D01*
X35297Y-54945D01*
X35445Y-54798D01*
X35500Y-54664D01*
X35555Y-54797D01*
X35702Y-54945D01*
X35895Y-55025D01*
X36104Y-55025D01*
X36297Y-54945D01*
X36445Y-54798D01*
X36500Y-54664D01*
X36555Y-54797D01*
X36702Y-54945D01*
X36710Y-54948D01*
X36710Y-55000D01*
X36732Y-55111D01*
X36795Y-55205D01*
X37722Y-56132D01*
X37585Y-56075D01*
X37416Y-56075D01*
X37260Y-56139D01*
X37140Y-56259D01*
X37075Y-56415D01*
X37075Y-56584D01*
X37139Y-56740D01*
X37210Y-56811D01*
X37210Y-57018D01*
X37105Y-56975D01*
X36896Y-56975D01*
X36703Y-57055D01*
X36555Y-57202D01*
X36499Y-57335D01*
X36445Y-57203D01*
X36298Y-57055D01*
X36105Y-56975D01*
X35896Y-56975D01*
X35703Y-57055D01*
X35555Y-57202D01*
X35524Y-57274D01*
X35524Y-57175D01*
X35486Y-57084D01*
X35416Y-57014D01*
X35324Y-56976D01*
X35112Y-56975D01*
X35050Y-57037D01*
X35050Y-57400D01*
X35050Y-57450D01*
X35050Y-57550D01*
X35050Y-57600D01*
X35050Y-57963D01*
X35112Y-58025D01*
X35324Y-58024D01*
X35416Y-57986D01*
X35486Y-57916D01*
X35524Y-57825D01*
X35524Y-57726D01*
X35524Y-57722D01*
X35555Y-57797D01*
X35702Y-57945D01*
X35895Y-58025D01*
X36104Y-58025D01*
X36297Y-57945D01*
X36445Y-57798D01*
X36500Y-57664D01*
X36555Y-57797D01*
X36702Y-57945D01*
X36710Y-57948D01*
X36710Y-59380D01*
X35515Y-60575D01*
X35416Y-60575D01*
X35260Y-60639D01*
X35140Y-60759D01*
X35075Y-60915D01*
X35075Y-61084D01*
X35139Y-61240D01*
X35259Y-61360D01*
X35415Y-61425D01*
X35584Y-61425D01*
X35740Y-61361D01*
X35860Y-61241D01*
X35925Y-61085D01*
X35925Y-60985D01*
X36154Y-60755D01*
X36210Y-60811D01*
X36210Y-61518D01*
X36105Y-61475D01*
X35896Y-61475D01*
X35703Y-61555D01*
X35555Y-61702D01*
X35499Y-61835D01*
X35445Y-61703D01*
X35298Y-61555D01*
X35105Y-61475D01*
X34950Y-61475D01*
X34950Y-57963D01*
X34950Y-57550D01*
X34950Y-57450D01*
X34950Y-57037D01*
X34888Y-56975D01*
X34676Y-56976D01*
X34584Y-57014D01*
X34514Y-57084D01*
X34476Y-57175D01*
X34476Y-57274D01*
X34475Y-57388D01*
X34537Y-57450D01*
X34950Y-57450D01*
X34950Y-57550D01*
X34537Y-57550D01*
X34475Y-57612D01*
X34476Y-57726D01*
X34476Y-57825D01*
X34514Y-57916D01*
X34584Y-57986D01*
X34676Y-58024D01*
X34888Y-58025D01*
X34950Y-57963D01*
X34950Y-61475D01*
X34896Y-61475D01*
X34703Y-61555D01*
X34555Y-61702D01*
X34475Y-61895D01*
X34475Y-62104D01*
X34555Y-62297D01*
X34702Y-62445D01*
X34895Y-62525D01*
X35104Y-62525D01*
X35297Y-62445D01*
X35445Y-62298D01*
X35500Y-62164D01*
X35555Y-62297D01*
X35702Y-62445D01*
X35895Y-62525D01*
X36104Y-62525D01*
X36210Y-62481D01*
X36210Y-63880D01*
X35795Y-64295D01*
X35732Y-64389D01*
X35710Y-64500D01*
X35710Y-64552D01*
X35703Y-64555D01*
X35555Y-64702D01*
X35524Y-64776D01*
X35524Y-64676D01*
X35486Y-64584D01*
X35416Y-64514D01*
X35325Y-64476D01*
X35226Y-64476D01*
X34676Y-64476D01*
X34584Y-64514D01*
X34514Y-64584D01*
X34476Y-64675D01*
X34476Y-64774D01*
X34476Y-65324D01*
X34514Y-65416D01*
X34584Y-65486D01*
X34675Y-65524D01*
X34774Y-65524D01*
X35324Y-65524D01*
X35416Y-65486D01*
X35486Y-65416D01*
X35524Y-65325D01*
X35524Y-65226D01*
X35524Y-65222D01*
X35555Y-65297D01*
X35702Y-65445D01*
X35895Y-65525D01*
X36104Y-65525D01*
X36297Y-65445D01*
X36445Y-65298D01*
X36500Y-65164D01*
X36555Y-65297D01*
X36702Y-65445D01*
X36895Y-65525D01*
X37104Y-65525D01*
X37297Y-65445D01*
X37445Y-65298D01*
X37500Y-65164D01*
X37555Y-65297D01*
X37702Y-65445D01*
X37895Y-65525D01*
X38104Y-65525D01*
X38297Y-65445D01*
X38445Y-65298D01*
X38500Y-65164D01*
X38555Y-65297D01*
X38702Y-65445D01*
X38895Y-65525D01*
X39104Y-65525D01*
X39297Y-65445D01*
X39445Y-65298D01*
X39500Y-65164D01*
X39555Y-65297D01*
X39702Y-65445D01*
X39895Y-65525D01*
X40104Y-65525D01*
X40297Y-65445D01*
X40445Y-65298D01*
X40500Y-65164D01*
X40555Y-65297D01*
X40702Y-65445D01*
X40895Y-65525D01*
X41104Y-65525D01*
X41297Y-65445D01*
X41445Y-65298D01*
X41503Y-65157D01*
X41548Y-65267D01*
X41639Y-65290D01*
X41929Y-65000D01*
X41639Y-64710D01*
X41548Y-64733D01*
X41506Y-64851D01*
X41445Y-64703D01*
X41298Y-64555D01*
X41105Y-64475D01*
X40896Y-64475D01*
X40703Y-64555D01*
X40555Y-64702D01*
X40499Y-64835D01*
X40445Y-64703D01*
X40298Y-64555D01*
X40290Y-64551D01*
X40290Y-64120D01*
X41705Y-62705D01*
X41768Y-62611D01*
X41790Y-62500D01*
X41790Y-62481D01*
X41895Y-62525D01*
X42104Y-62525D01*
X42297Y-62445D01*
X42445Y-62298D01*
X42525Y-62105D01*
X42525Y-67174D01*
X42519Y-67168D01*
X42519Y-65074D01*
X42508Y-64870D01*
X42452Y-64733D01*
X42361Y-64710D01*
X42290Y-64781D01*
X42290Y-64639D01*
X42267Y-64548D01*
X42074Y-64481D01*
X41870Y-64492D01*
X41733Y-64548D01*
X41710Y-64639D01*
X42000Y-64929D01*
X42290Y-64639D01*
X42290Y-64781D01*
X42071Y-65000D01*
X42361Y-65290D01*
X42452Y-65267D01*
X42519Y-65074D01*
X42519Y-67168D01*
X42491Y-67140D01*
X42335Y-67075D01*
X42290Y-67075D01*
X42290Y-65361D01*
X42000Y-65071D01*
X41710Y-65361D01*
X41733Y-65452D01*
X41926Y-65519D01*
X42130Y-65508D01*
X42267Y-65452D01*
X42290Y-65361D01*
X42290Y-67075D01*
X42166Y-67075D01*
X42010Y-67139D01*
X41939Y-67210D01*
X41750Y-67210D01*
X41639Y-67232D01*
X41607Y-67253D01*
X41544Y-67295D01*
X40387Y-68452D01*
X40189Y-68535D01*
X40035Y-68689D01*
X40000Y-68773D01*
X39965Y-68689D01*
X39811Y-68535D01*
X39609Y-68451D01*
X39391Y-68451D01*
X39189Y-68535D01*
X39035Y-68689D01*
X39000Y-68773D01*
X38965Y-68689D01*
X38811Y-68535D01*
X38609Y-68451D01*
X38391Y-68451D01*
X38189Y-68535D01*
X38035Y-68689D01*
X38000Y-68773D01*
X37965Y-68689D01*
X37811Y-68535D01*
X37609Y-68451D01*
X37391Y-68451D01*
X37189Y-68535D01*
X37035Y-68689D01*
X37000Y-68773D01*
X36965Y-68689D01*
X36811Y-68535D01*
X36609Y-68451D01*
X36391Y-68451D01*
X36189Y-68535D01*
X36035Y-68689D01*
X36000Y-68773D01*
X35965Y-68689D01*
X35811Y-68535D01*
X35609Y-68451D01*
X35391Y-68451D01*
X35189Y-68535D01*
X35035Y-68689D01*
X35000Y-68773D01*
X34965Y-68689D01*
X34811Y-68535D01*
X34609Y-68451D01*
X34391Y-68451D01*
X34189Y-68535D01*
X34035Y-68689D01*
X33951Y-68891D01*
X33951Y-69109D01*
X34035Y-69311D01*
X34175Y-69451D01*
X34151Y-69451D01*
X34059Y-69489D01*
X33989Y-69559D01*
X33951Y-69650D01*
X33951Y-69749D01*
X33951Y-70349D01*
X33989Y-70441D01*
X34059Y-70511D01*
X34150Y-70549D01*
X34249Y-70549D01*
X34849Y-70549D01*
X34941Y-70511D01*
X35011Y-70441D01*
X35049Y-70350D01*
X35049Y-70325D01*
X35189Y-70465D01*
X35391Y-70549D01*
X35609Y-70549D01*
X35811Y-70465D01*
X35965Y-70311D01*
X36000Y-70226D01*
X36035Y-70311D01*
X36189Y-70465D01*
X36391Y-70549D01*
X36609Y-70549D01*
X36811Y-70465D01*
X36965Y-70311D01*
X37000Y-70226D01*
X37035Y-70311D01*
X37189Y-70465D01*
X37391Y-70549D01*
X37609Y-70549D01*
X37811Y-70465D01*
X37965Y-70311D01*
X38000Y-70226D01*
X38035Y-70311D01*
X38189Y-70465D01*
X38391Y-70549D01*
X38609Y-70549D01*
X38811Y-70465D01*
X38965Y-70311D01*
X39000Y-70226D01*
X39035Y-70311D01*
X39189Y-70465D01*
X39210Y-70473D01*
X39210Y-70500D01*
X39232Y-70611D01*
X39295Y-70705D01*
X41075Y-72485D01*
X41075Y-72584D01*
X41112Y-72675D01*
X30525Y-72675D01*
X30525Y-46105D01*
X30525Y-45896D01*
X30445Y-45703D01*
X30298Y-45555D01*
X30164Y-45499D01*
X30297Y-45445D01*
X30445Y-45298D01*
X30525Y-45105D01*
X30525Y-44896D01*
X30445Y-44703D01*
X30298Y-44555D01*
X30164Y-44499D01*
X30297Y-44445D01*
X30445Y-44298D01*
X30525Y-44105D01*
X30525Y-43896D01*
X30445Y-43703D01*
X30298Y-43555D01*
X30164Y-43499D01*
X30297Y-43445D01*
X30445Y-43298D01*
X30525Y-43105D01*
X30525Y-42896D01*
X30445Y-42703D01*
X30298Y-42555D01*
X30164Y-42499D01*
X30297Y-42445D01*
X30445Y-42298D01*
X30525Y-42105D01*
X30525Y-41896D01*
X30525Y-39105D01*
X30525Y-38896D01*
X30519Y-38881D01*
X30519Y-38074D01*
X30519Y-37074D01*
X30508Y-36870D01*
X30452Y-36733D01*
X30361Y-36710D01*
X30071Y-37000D01*
X30361Y-37290D01*
X30452Y-37267D01*
X30519Y-37074D01*
X30519Y-38074D01*
X30508Y-37870D01*
X30452Y-37733D01*
X30361Y-37710D01*
X30290Y-37781D01*
X30290Y-37639D01*
X30267Y-37548D01*
X30140Y-37503D01*
X30267Y-37452D01*
X30290Y-37361D01*
X30000Y-37071D01*
X29929Y-37142D01*
X29929Y-37000D01*
X29639Y-36710D01*
X29548Y-36733D01*
X29481Y-36926D01*
X29492Y-37130D01*
X29548Y-37267D01*
X29639Y-37290D01*
X29929Y-37000D01*
X29929Y-37142D01*
X29710Y-37361D01*
X29733Y-37452D01*
X29859Y-37496D01*
X29733Y-37548D01*
X29710Y-37639D01*
X30000Y-37929D01*
X30290Y-37639D01*
X30290Y-37781D01*
X30071Y-38000D01*
X30361Y-38290D01*
X30452Y-38267D01*
X30519Y-38074D01*
X30519Y-38881D01*
X30445Y-38703D01*
X30298Y-38555D01*
X30157Y-38496D01*
X30267Y-38452D01*
X30290Y-38361D01*
X30000Y-38071D01*
X29929Y-38142D01*
X29929Y-38000D01*
X29639Y-37710D01*
X29548Y-37733D01*
X29481Y-37926D01*
X29492Y-38130D01*
X29548Y-38267D01*
X29639Y-38290D01*
X29929Y-38000D01*
X29929Y-38142D01*
X29710Y-38361D01*
X29733Y-38452D01*
X29851Y-38493D01*
X29703Y-38555D01*
X29555Y-38702D01*
X29475Y-38895D01*
X29475Y-39104D01*
X29555Y-39297D01*
X29702Y-39445D01*
X29895Y-39525D01*
X30104Y-39525D01*
X30297Y-39445D01*
X30445Y-39298D01*
X30525Y-39105D01*
X30525Y-41896D01*
X30445Y-41703D01*
X30298Y-41555D01*
X30223Y-41524D01*
X30324Y-41524D01*
X30416Y-41486D01*
X30486Y-41416D01*
X30524Y-41325D01*
X30524Y-41226D01*
X30524Y-40676D01*
X30486Y-40584D01*
X30416Y-40514D01*
X30325Y-40476D01*
X30226Y-40476D01*
X29676Y-40476D01*
X29584Y-40514D01*
X29514Y-40584D01*
X29476Y-40675D01*
X29476Y-40710D01*
X28370Y-40710D01*
X27425Y-39764D01*
X27425Y-39666D01*
X27361Y-39510D01*
X27241Y-39390D01*
X27085Y-39325D01*
X26916Y-39325D01*
X26760Y-39389D01*
X26640Y-39509D01*
X26575Y-39665D01*
X26575Y-39834D01*
X26639Y-39990D01*
X26759Y-40110D01*
X26915Y-40175D01*
X27014Y-40175D01*
X28044Y-41205D01*
X28045Y-41205D01*
X28107Y-41246D01*
X28138Y-41267D01*
X28139Y-41268D01*
X28249Y-41289D01*
X28250Y-41290D01*
X29476Y-41290D01*
X29476Y-41324D01*
X29514Y-41416D01*
X29584Y-41486D01*
X29675Y-41524D01*
X29774Y-41524D01*
X29703Y-41555D01*
X29555Y-41702D01*
X29475Y-41895D01*
X29475Y-42104D01*
X29555Y-42297D01*
X29702Y-42445D01*
X29835Y-42500D01*
X29703Y-42555D01*
X29555Y-42702D01*
X29551Y-42710D01*
X29120Y-42710D01*
X28705Y-42295D01*
X28611Y-42232D01*
X28500Y-42210D01*
X28120Y-42210D01*
X27925Y-42015D01*
X27925Y-41916D01*
X27861Y-41760D01*
X27741Y-41640D01*
X27585Y-41575D01*
X27416Y-41575D01*
X27260Y-41639D01*
X27140Y-41759D01*
X27075Y-41915D01*
X27075Y-42084D01*
X27139Y-42240D01*
X27259Y-42360D01*
X27415Y-42425D01*
X27515Y-42425D01*
X27744Y-42654D01*
X27640Y-42759D01*
X27575Y-42915D01*
X27575Y-43084D01*
X27631Y-43221D01*
X26425Y-42015D01*
X26425Y-41916D01*
X26361Y-41760D01*
X26241Y-41640D01*
X26085Y-41575D01*
X25916Y-41575D01*
X25760Y-41639D01*
X25640Y-41759D01*
X25575Y-41915D01*
X25575Y-42084D01*
X25639Y-42240D01*
X25759Y-42360D01*
X25915Y-42425D01*
X26015Y-42425D01*
X29477Y-45887D01*
X29475Y-45895D01*
X29475Y-46104D01*
X29555Y-46297D01*
X29702Y-46445D01*
X29895Y-46525D01*
X30104Y-46525D01*
X30297Y-46445D01*
X30445Y-46298D01*
X30525Y-46105D01*
X30525Y-72675D01*
X24325Y-72675D01*
X24325Y-11900D01*
X32690Y-11900D01*
X30795Y-13795D01*
X30732Y-13889D01*
X30710Y-14000D01*
X30710Y-17189D01*
X30640Y-17259D01*
X30575Y-17415D01*
X30575Y-17584D01*
X30639Y-17740D01*
X30759Y-17860D01*
X30915Y-17925D01*
X31084Y-17925D01*
X31210Y-17873D01*
X31210Y-20000D01*
X31232Y-20111D01*
X31295Y-20205D01*
X32710Y-21620D01*
X32710Y-24325D01*
X32666Y-24325D01*
X32510Y-24389D01*
X32390Y-24509D01*
X32325Y-24665D01*
X32325Y-24834D01*
X32389Y-24990D01*
X32474Y-25075D01*
X32416Y-25075D01*
X32260Y-25139D01*
X32140Y-25259D01*
X32075Y-25415D01*
X32075Y-25515D01*
X31880Y-25710D01*
X31811Y-25710D01*
X31741Y-25640D01*
X31585Y-25575D01*
X31416Y-25575D01*
X31290Y-25626D01*
X31290Y-25250D01*
X31268Y-25139D01*
X31205Y-25045D01*
X31175Y-25015D01*
X31175Y-24916D01*
X31111Y-24760D01*
X30991Y-24640D01*
X30835Y-24575D01*
X30666Y-24575D01*
X30510Y-24639D01*
X30390Y-24759D01*
X30325Y-24915D01*
X30325Y-25084D01*
X30389Y-25240D01*
X30509Y-25360D01*
X30665Y-25425D01*
X30710Y-25425D01*
X30710Y-29500D01*
X30732Y-29611D01*
X30795Y-29705D01*
X30994Y-29904D01*
X30890Y-30009D01*
X30825Y-30165D01*
X30825Y-30334D01*
X30889Y-30490D01*
X30960Y-30561D01*
X30960Y-30630D01*
X30765Y-30825D01*
X30666Y-30825D01*
X30510Y-30889D01*
X30390Y-31009D01*
X30325Y-31165D01*
X30325Y-31334D01*
X30389Y-31490D01*
X30410Y-31511D01*
X30325Y-31476D01*
X30226Y-31476D01*
X29676Y-31476D01*
X29584Y-31514D01*
X29514Y-31584D01*
X29476Y-31675D01*
X29476Y-31774D01*
X29476Y-32324D01*
X29514Y-32416D01*
X29584Y-32486D01*
X29675Y-32524D01*
X29774Y-32524D01*
X29703Y-32555D01*
X29555Y-32702D01*
X29475Y-32895D01*
X29475Y-33104D01*
X29555Y-33297D01*
X29702Y-33445D01*
X29835Y-33500D01*
X29703Y-33555D01*
X29555Y-33702D01*
X29475Y-33895D01*
X29475Y-34104D01*
X29555Y-34297D01*
X29702Y-34445D01*
X29835Y-34500D01*
X29703Y-34555D01*
X29555Y-34702D01*
X29475Y-34895D01*
X29475Y-35104D01*
X29555Y-35297D01*
X29702Y-35445D01*
X29835Y-35500D01*
X29703Y-35555D01*
X29555Y-35702D01*
X29475Y-35895D01*
X29475Y-36104D01*
X29555Y-36297D01*
X29702Y-36445D01*
X29842Y-36503D01*
X29733Y-36548D01*
X29710Y-36639D01*
X30000Y-36929D01*
X30290Y-36639D01*
X30267Y-36548D01*
X30148Y-36506D01*
X30297Y-36445D01*
X30445Y-36298D01*
X30525Y-36105D01*
X30525Y-35896D01*
X30445Y-35703D01*
X30298Y-35555D01*
X30164Y-35499D01*
X30297Y-35445D01*
X30445Y-35298D01*
X30525Y-35105D01*
X30525Y-34896D01*
X30445Y-34703D01*
X30298Y-34555D01*
X30164Y-34499D01*
X30297Y-34445D01*
X30445Y-34298D01*
X30525Y-34105D01*
X30525Y-33896D01*
X30445Y-33703D01*
X30298Y-33555D01*
X30164Y-33499D01*
X30297Y-33445D01*
X30445Y-33298D01*
X30525Y-33105D01*
X30525Y-32896D01*
X30445Y-32703D01*
X30298Y-32555D01*
X30223Y-32524D01*
X30324Y-32524D01*
X30416Y-32486D01*
X30486Y-32416D01*
X30524Y-32325D01*
X30524Y-32226D01*
X30524Y-31676D01*
X30488Y-31589D01*
X30509Y-31610D01*
X30665Y-31675D01*
X30834Y-31675D01*
X30990Y-31611D01*
X31110Y-31491D01*
X31175Y-31335D01*
X31175Y-31235D01*
X31455Y-30955D01*
X31460Y-30947D01*
X31460Y-31361D01*
X31450Y-31360D01*
X31339Y-31382D01*
X31245Y-31445D01*
X31182Y-31539D01*
X31160Y-31650D01*
X31160Y-32247D01*
X31132Y-32289D01*
X31110Y-32400D01*
X31110Y-33150D01*
X31132Y-33261D01*
X31195Y-33355D01*
X31289Y-33418D01*
X31400Y-33440D01*
X31460Y-33428D01*
X31460Y-34250D01*
X31482Y-34361D01*
X31545Y-34455D01*
X31590Y-34500D01*
X31295Y-34795D01*
X31232Y-34889D01*
X31210Y-35000D01*
X31210Y-39189D01*
X31140Y-39259D01*
X31075Y-39415D01*
X31075Y-39584D01*
X31139Y-39740D01*
X31254Y-39855D01*
X31232Y-39889D01*
X31210Y-40000D01*
X31210Y-46880D01*
X30795Y-47295D01*
X30732Y-47389D01*
X30710Y-47500D01*
X30710Y-48000D01*
X30732Y-48111D01*
X30795Y-48205D01*
X31075Y-48485D01*
X31075Y-48584D01*
X31139Y-48740D01*
X31259Y-48860D01*
X31415Y-48925D01*
X31584Y-48925D01*
X31740Y-48861D01*
X31860Y-48741D01*
X31925Y-48585D01*
X31925Y-48416D01*
X31861Y-48260D01*
X31741Y-48140D01*
X31585Y-48075D01*
X31485Y-48075D01*
X31290Y-47880D01*
X31290Y-47620D01*
X31705Y-47205D01*
X31768Y-47111D01*
X31790Y-47000D01*
X31790Y-40120D01*
X32205Y-39705D01*
X32268Y-39611D01*
X32290Y-39500D01*
X32290Y-37120D01*
X32620Y-36790D01*
X33052Y-36790D01*
X33055Y-36797D01*
X33202Y-36945D01*
X33335Y-37000D01*
X33203Y-37055D01*
X33055Y-37202D01*
X32975Y-37395D01*
X32975Y-37604D01*
X33055Y-37797D01*
X33202Y-37945D01*
X33335Y-38000D01*
X33203Y-38055D01*
X33055Y-38202D01*
X32975Y-38395D01*
X32975Y-38604D01*
X33055Y-38797D01*
X33202Y-38945D01*
X33342Y-39003D01*
X33233Y-39048D01*
X33210Y-39139D01*
X33500Y-39429D01*
X33790Y-39139D01*
X33767Y-39048D01*
X33648Y-39006D01*
X33797Y-38945D01*
X33945Y-38798D01*
X34025Y-38605D01*
X34025Y-38396D01*
X33945Y-38203D01*
X33798Y-38055D01*
X33664Y-37999D01*
X33797Y-37945D01*
X33945Y-37798D01*
X34025Y-37605D01*
X34025Y-37396D01*
X33945Y-37203D01*
X33798Y-37055D01*
X33664Y-36999D01*
X33797Y-36945D01*
X33945Y-36798D01*
X34025Y-36605D01*
X34025Y-36396D01*
X33945Y-36203D01*
X33798Y-36055D01*
X33664Y-35999D01*
X33797Y-35945D01*
X33945Y-35798D01*
X34025Y-35605D01*
X34025Y-35396D01*
X33945Y-35203D01*
X33798Y-35055D01*
X33664Y-34999D01*
X33797Y-34945D01*
X33945Y-34798D01*
X34025Y-34605D01*
X34025Y-34396D01*
X33945Y-34203D01*
X33798Y-34055D01*
X33664Y-33999D01*
X33797Y-33945D01*
X33945Y-33798D01*
X34025Y-33605D01*
X34025Y-33435D01*
X34210Y-33620D01*
X34210Y-43880D01*
X33916Y-44173D01*
X33798Y-44055D01*
X33664Y-43999D01*
X33797Y-43945D01*
X33945Y-43798D01*
X34025Y-43605D01*
X34025Y-43396D01*
X33945Y-43203D01*
X33798Y-43055D01*
X33723Y-43024D01*
X33824Y-43024D01*
X33916Y-42986D01*
X33986Y-42916D01*
X34024Y-42825D01*
X34024Y-42726D01*
X34024Y-42176D01*
X34019Y-42163D01*
X34019Y-39574D01*
X34008Y-39370D01*
X33952Y-39233D01*
X33861Y-39210D01*
X33571Y-39500D01*
X33861Y-39790D01*
X33952Y-39767D01*
X34019Y-39574D01*
X34019Y-42163D01*
X33986Y-42084D01*
X33916Y-42014D01*
X33825Y-41976D01*
X33790Y-41976D01*
X33790Y-39861D01*
X33500Y-39571D01*
X33429Y-39642D01*
X33429Y-39500D01*
X33139Y-39210D01*
X33048Y-39233D01*
X32981Y-39426D01*
X32992Y-39630D01*
X33048Y-39767D01*
X33139Y-39790D01*
X33429Y-39500D01*
X33429Y-39642D01*
X33210Y-39861D01*
X33233Y-39952D01*
X33426Y-40019D01*
X33630Y-40008D01*
X33767Y-39952D01*
X33790Y-39861D01*
X33790Y-41976D01*
X33726Y-41976D01*
X33176Y-41976D01*
X33084Y-42014D01*
X33014Y-42084D01*
X32976Y-42175D01*
X32976Y-42274D01*
X32976Y-42824D01*
X33014Y-42916D01*
X33084Y-42986D01*
X33175Y-43024D01*
X33274Y-43024D01*
X33203Y-43055D01*
X33055Y-43202D01*
X32975Y-43395D01*
X32975Y-43604D01*
X33055Y-43797D01*
X33202Y-43945D01*
X33335Y-44000D01*
X33203Y-44055D01*
X33055Y-44202D01*
X32975Y-44395D01*
X32975Y-44604D01*
X33055Y-44797D01*
X33202Y-44945D01*
X33335Y-45000D01*
X33203Y-45055D01*
X33055Y-45202D01*
X32975Y-45395D01*
X32975Y-45604D01*
X33055Y-45797D01*
X33202Y-45945D01*
X33335Y-46000D01*
X33203Y-46055D01*
X33083Y-46173D01*
X32790Y-45880D01*
X32790Y-41811D01*
X32860Y-41741D01*
X32925Y-41585D01*
X32925Y-41416D01*
X32861Y-41260D01*
X32741Y-41140D01*
X32585Y-41075D01*
X32416Y-41075D01*
X32260Y-41139D01*
X32140Y-41259D01*
X32075Y-41415D01*
X32075Y-41584D01*
X32139Y-41740D01*
X32210Y-41811D01*
X32210Y-46000D01*
X32232Y-46111D01*
X32295Y-46205D01*
X32795Y-46705D01*
X32889Y-46768D01*
X33000Y-46790D01*
X33052Y-46790D01*
X33055Y-46797D01*
X33202Y-46945D01*
X33335Y-47000D01*
X33203Y-47055D01*
X33055Y-47202D01*
X32975Y-47395D01*
X32975Y-47604D01*
X33055Y-47797D01*
X33202Y-47945D01*
X33335Y-48000D01*
X33203Y-48055D01*
X33055Y-48202D01*
X33051Y-48210D01*
X32811Y-48210D01*
X32741Y-48140D01*
X32585Y-48075D01*
X32416Y-48075D01*
X32260Y-48139D01*
X32140Y-48259D01*
X32075Y-48415D01*
X32075Y-48584D01*
X32139Y-48740D01*
X32259Y-48860D01*
X32415Y-48925D01*
X32584Y-48925D01*
X32740Y-48861D01*
X32811Y-48790D01*
X33052Y-48790D01*
X33055Y-48797D01*
X33202Y-48945D01*
X33335Y-49000D01*
X33203Y-49055D01*
X33055Y-49202D01*
X32975Y-49395D01*
X32975Y-49604D01*
X33055Y-49797D01*
X33202Y-49945D01*
X33335Y-50000D01*
X33203Y-50055D01*
X33055Y-50202D01*
X32975Y-50395D01*
X32975Y-50604D01*
X33055Y-50797D01*
X33202Y-50945D01*
X33342Y-51003D01*
X33233Y-51048D01*
X33210Y-51139D01*
X33500Y-51429D01*
X33790Y-51139D01*
X33767Y-51048D01*
X33648Y-51006D01*
X33797Y-50945D01*
X33945Y-50798D01*
X34025Y-50605D01*
X34025Y-50396D01*
X33945Y-50203D01*
X33798Y-50055D01*
X33664Y-49999D01*
X33797Y-49945D01*
X33945Y-49798D01*
X34025Y-49605D01*
X34025Y-49396D01*
X34021Y-49388D01*
X34705Y-48705D01*
X34768Y-48611D01*
X34790Y-48500D01*
X34790Y-47620D01*
X35120Y-47290D01*
X36018Y-47290D01*
X35975Y-47395D01*
X35975Y-47604D01*
X36055Y-47797D01*
X36202Y-47945D01*
X36335Y-48000D01*
X36203Y-48055D01*
X36055Y-48202D01*
X35975Y-48395D01*
X35975Y-48604D01*
X36055Y-48797D01*
X36202Y-48945D01*
X36335Y-49000D01*
X36203Y-49055D01*
X36055Y-49202D01*
X35975Y-49395D01*
X35975Y-49604D01*
X36055Y-49797D01*
X36202Y-49945D01*
X36335Y-50000D01*
X36203Y-50055D01*
X36055Y-50202D01*
X35975Y-50395D01*
X35975Y-50604D01*
X36055Y-50797D01*
X36202Y-50945D01*
X36335Y-51000D01*
X36203Y-51055D01*
X36055Y-51202D01*
X35975Y-51395D01*
X35975Y-51604D01*
X36055Y-51797D01*
X36202Y-51945D01*
X36395Y-52025D01*
X36604Y-52025D01*
X36797Y-51945D01*
X36945Y-51798D01*
X37025Y-51605D01*
X37025Y-51396D01*
X36945Y-51203D01*
X36798Y-51055D01*
X36664Y-50999D01*
X36797Y-50945D01*
X36945Y-50798D01*
X36948Y-50790D01*
X38000Y-50790D01*
X38111Y-50768D01*
X38205Y-50705D01*
X38485Y-50425D01*
X38584Y-50425D01*
X38740Y-50361D01*
X38860Y-50241D01*
X38925Y-50085D01*
X38925Y-49916D01*
X38861Y-49760D01*
X38755Y-49654D01*
X40620Y-47790D01*
X41552Y-47790D01*
X41555Y-47797D01*
X41702Y-47945D01*
X41835Y-48000D01*
X41703Y-48055D01*
X41555Y-48202D01*
X41475Y-48395D01*
X41475Y-48604D01*
X41555Y-48797D01*
X41702Y-48945D01*
X41835Y-49000D01*
X41703Y-49055D01*
X41555Y-49202D01*
X41475Y-49395D01*
X41475Y-49604D01*
X41555Y-49797D01*
X41702Y-49945D01*
X41842Y-50003D01*
X41733Y-50048D01*
X41710Y-50139D01*
X42000Y-50429D01*
X42290Y-50139D01*
X42267Y-50048D01*
X42148Y-50006D01*
X42297Y-49945D01*
X42445Y-49798D01*
X42525Y-49605D01*
X42525Y-49396D01*
X42445Y-49203D01*
X42298Y-49055D01*
X42164Y-48999D01*
X42297Y-48945D01*
X42445Y-48798D01*
X42525Y-48605D01*
X42525Y-48396D01*
X42445Y-48203D01*
X42298Y-48055D01*
X42164Y-47999D01*
X42297Y-47945D01*
X42445Y-47798D01*
X42525Y-47605D01*
X42525Y-47396D01*
X42445Y-47203D01*
X42298Y-47055D01*
X42164Y-46999D01*
X42297Y-46945D01*
X42445Y-46798D01*
X42525Y-46605D01*
X42525Y-46396D01*
X42445Y-46203D01*
X42298Y-46055D01*
X42164Y-45999D01*
X42297Y-45945D01*
X42445Y-45798D01*
X42525Y-45605D01*
X42525Y-45396D01*
X42445Y-45203D01*
X42298Y-45055D01*
X42164Y-44999D01*
X42297Y-44945D01*
X42445Y-44798D01*
X42525Y-44605D01*
X42525Y-44396D01*
X42445Y-44203D01*
X42298Y-44055D01*
X42223Y-44024D01*
X42324Y-44024D01*
X42416Y-43986D01*
X42486Y-43916D01*
X42524Y-43825D01*
X42524Y-43726D01*
X42524Y-43176D01*
X42486Y-43084D01*
X42416Y-43014D01*
X42325Y-42976D01*
X42226Y-42976D01*
X41676Y-42976D01*
X41584Y-43014D01*
X41514Y-43084D01*
X41476Y-43175D01*
X41476Y-43274D01*
X41476Y-43824D01*
X41514Y-43916D01*
X41584Y-43986D01*
X41675Y-44024D01*
X41774Y-44024D01*
X41703Y-44055D01*
X41555Y-44202D01*
X41475Y-44395D01*
X41475Y-44604D01*
X41555Y-44797D01*
X41702Y-44945D01*
X41835Y-45000D01*
X41703Y-45055D01*
X41555Y-45202D01*
X41475Y-45395D01*
X41475Y-45604D01*
X41555Y-45797D01*
X41702Y-45945D01*
X41835Y-46000D01*
X41703Y-46055D01*
X41555Y-46202D01*
X41475Y-46395D01*
X41475Y-46604D01*
X41555Y-46797D01*
X41702Y-46945D01*
X41835Y-47000D01*
X41703Y-47055D01*
X41555Y-47202D01*
X41551Y-47210D01*
X40500Y-47210D01*
X40389Y-47232D01*
X40295Y-47295D01*
X38380Y-49210D01*
X36947Y-49210D01*
X36945Y-49203D01*
X36798Y-49055D01*
X36664Y-48999D01*
X36797Y-48945D01*
X36945Y-48798D01*
X36948Y-48790D01*
X38500Y-48790D01*
X38611Y-48768D01*
X38705Y-48705D01*
X40705Y-46705D01*
X40768Y-46611D01*
X40790Y-46500D01*
X40790Y-42872D01*
X40915Y-42925D01*
X41084Y-42925D01*
X41240Y-42861D01*
X41311Y-42790D01*
X42380Y-42790D01*
X42710Y-43120D01*
X42710Y-43500D01*
X42732Y-43611D01*
X42795Y-43705D01*
X43795Y-44705D01*
X43889Y-44768D01*
X44000Y-44790D01*
X44552Y-44790D01*
X44555Y-44797D01*
X44702Y-44945D01*
X44835Y-45000D01*
X44703Y-45055D01*
X44555Y-45202D01*
X44475Y-45395D01*
X44475Y-45604D01*
X44555Y-45797D01*
X44702Y-45945D01*
X44842Y-46003D01*
X44733Y-46048D01*
X44710Y-46139D01*
X45000Y-46429D01*
X45290Y-46139D01*
X45267Y-46048D01*
X45148Y-46006D01*
X45297Y-45945D01*
X45445Y-45798D01*
X45448Y-45790D01*
X45500Y-45790D01*
X45611Y-45768D01*
X45705Y-45705D01*
X46205Y-45205D01*
X46210Y-45197D01*
X46210Y-46880D01*
X45880Y-47210D01*
X45519Y-47210D01*
X45519Y-46574D01*
X45508Y-46370D01*
X45452Y-46233D01*
X45361Y-46210D01*
X45071Y-46500D01*
X45361Y-46790D01*
X45452Y-46767D01*
X45519Y-46574D01*
X45519Y-47210D01*
X45447Y-47210D01*
X45445Y-47203D01*
X45298Y-47055D01*
X45157Y-46996D01*
X45267Y-46952D01*
X45290Y-46861D01*
X45000Y-46571D01*
X44929Y-46642D01*
X44929Y-46500D01*
X44639Y-46210D01*
X44548Y-46233D01*
X44481Y-46426D01*
X44492Y-46630D01*
X44548Y-46767D01*
X44639Y-46790D01*
X44929Y-46500D01*
X44929Y-46642D01*
X44710Y-46861D01*
X44733Y-46952D01*
X44851Y-46993D01*
X44703Y-47055D01*
X44555Y-47202D01*
X44475Y-47395D01*
X44475Y-47604D01*
X44555Y-47797D01*
X44702Y-47945D01*
X44710Y-47948D01*
X44710Y-48052D01*
X44703Y-48055D01*
X44555Y-48202D01*
X44475Y-48395D01*
X44475Y-48604D01*
X44555Y-48797D01*
X44702Y-48945D01*
X44842Y-49003D01*
X44733Y-49048D01*
X44710Y-49139D01*
X45000Y-49429D01*
X45290Y-49139D01*
X45267Y-49048D01*
X45148Y-49006D01*
X45297Y-48945D01*
X45445Y-48798D01*
X45525Y-48605D01*
X45525Y-48396D01*
X45445Y-48203D01*
X45298Y-48055D01*
X45290Y-48051D01*
X45290Y-47947D01*
X45297Y-47945D01*
X45445Y-47798D01*
X45448Y-47790D01*
X46000Y-47790D01*
X46111Y-47768D01*
X46205Y-47705D01*
X46705Y-47205D01*
X46768Y-47111D01*
X46790Y-47000D01*
X46790Y-39872D01*
X46915Y-39925D01*
X47084Y-39925D01*
X47240Y-39861D01*
X47360Y-39741D01*
X47425Y-39585D01*
X47425Y-39485D01*
X47620Y-39290D01*
X48109Y-39290D01*
X48040Y-39359D01*
X47975Y-39515D01*
X47975Y-39684D01*
X48039Y-39840D01*
X48060Y-39861D01*
X48060Y-40450D01*
X48082Y-40561D01*
X48145Y-40655D01*
X48239Y-40718D01*
X48350Y-40740D01*
X48461Y-40718D01*
X48555Y-40655D01*
X48618Y-40561D01*
X48640Y-40450D01*
X48640Y-40382D01*
X48702Y-40445D01*
X48835Y-40500D01*
X48703Y-40555D01*
X48555Y-40702D01*
X48475Y-40895D01*
X48475Y-41104D01*
X48555Y-41297D01*
X48702Y-41445D01*
X48835Y-41500D01*
X48703Y-41555D01*
X48555Y-41702D01*
X48475Y-41895D01*
X48475Y-42104D01*
X48555Y-42297D01*
X48702Y-42445D01*
X48835Y-42500D01*
X48703Y-42555D01*
X48555Y-42702D01*
X48475Y-42895D01*
X48475Y-43104D01*
X48555Y-43297D01*
X48702Y-43445D01*
X48835Y-43500D01*
X48703Y-43555D01*
X48555Y-43702D01*
X48475Y-43895D01*
X48475Y-44104D01*
X48555Y-44297D01*
X48702Y-44445D01*
X48835Y-44500D01*
X48703Y-44555D01*
X48555Y-44702D01*
X48475Y-44895D01*
X48475Y-45104D01*
X48555Y-45297D01*
X48702Y-45445D01*
X48835Y-45500D01*
X48703Y-45555D01*
X48555Y-45702D01*
X48475Y-45895D01*
X48475Y-46104D01*
X48555Y-46297D01*
X48702Y-46445D01*
X48895Y-46525D01*
X49104Y-46525D01*
X49297Y-46445D01*
X49445Y-46298D01*
X49525Y-46105D01*
X49525Y-45896D01*
X49445Y-45703D01*
X49298Y-45555D01*
X49164Y-45499D01*
X49297Y-45445D01*
X49445Y-45298D01*
X49525Y-45105D01*
X49525Y-44896D01*
X49445Y-44703D01*
X49298Y-44555D01*
X49164Y-44499D01*
X49297Y-44445D01*
X49445Y-44298D01*
X49525Y-44105D01*
X49525Y-43896D01*
X49445Y-43703D01*
X49298Y-43555D01*
X49164Y-43499D01*
X49297Y-43445D01*
X49445Y-43298D01*
X49448Y-43290D01*
X49880Y-43290D01*
X51075Y-44485D01*
X51075Y-44584D01*
X51139Y-44740D01*
X51259Y-44860D01*
X51415Y-44925D01*
X51584Y-44925D01*
X51740Y-44861D01*
X51860Y-44741D01*
X51925Y-44585D01*
X51925Y-44416D01*
X51861Y-44260D01*
X51741Y-44140D01*
X51585Y-44075D01*
X51485Y-44075D01*
X50205Y-42795D01*
X50111Y-42732D01*
X50000Y-42710D01*
X49447Y-42710D01*
X49445Y-42703D01*
X49298Y-42555D01*
X49164Y-42499D01*
X49297Y-42445D01*
X49445Y-42298D01*
X49448Y-42290D01*
X53380Y-42290D01*
X54575Y-43485D01*
X54575Y-43584D01*
X54639Y-43740D01*
X54759Y-43860D01*
X54915Y-43925D01*
X55084Y-43925D01*
X55240Y-43861D01*
X55360Y-43741D01*
X55425Y-43585D01*
X55425Y-43416D01*
X55361Y-43260D01*
X55241Y-43140D01*
X55085Y-43075D01*
X54985Y-43075D01*
X54584Y-42674D01*
X54740Y-42611D01*
X54860Y-42491D01*
X54925Y-42335D01*
X54925Y-42166D01*
X54861Y-42010D01*
X54741Y-41890D01*
X54585Y-41825D01*
X54485Y-41825D01*
X53455Y-40795D01*
X53361Y-40732D01*
X53250Y-40710D01*
X49447Y-40710D01*
X49445Y-40703D01*
X49298Y-40555D01*
X49164Y-40499D01*
X49297Y-40445D01*
X49445Y-40298D01*
X49525Y-40105D01*
X49525Y-39896D01*
X49445Y-39703D01*
X49298Y-39555D01*
X49223Y-39524D01*
X49324Y-39524D01*
X49416Y-39486D01*
X49486Y-39416D01*
X49524Y-39325D01*
X49524Y-39226D01*
X49524Y-38676D01*
X49486Y-38584D01*
X49416Y-38514D01*
X49325Y-38476D01*
X49226Y-38476D01*
X48784Y-38476D01*
X48870Y-38390D01*
X49100Y-38390D01*
X49211Y-38368D01*
X49305Y-38305D01*
X49368Y-38211D01*
X49390Y-38100D01*
X49368Y-37989D01*
X49305Y-37895D01*
X49255Y-37862D01*
X49297Y-37845D01*
X49445Y-37698D01*
X49525Y-37505D01*
X49525Y-37296D01*
X49445Y-37103D01*
X49298Y-36955D01*
X49164Y-36899D01*
X49297Y-36845D01*
X49445Y-36698D01*
X49525Y-36505D01*
X49525Y-36296D01*
X49445Y-36103D01*
X49298Y-35955D01*
X49164Y-35899D01*
X49297Y-35845D01*
X49445Y-35698D01*
X49525Y-35505D01*
X49525Y-35296D01*
X49445Y-35103D01*
X49298Y-34955D01*
X49164Y-34899D01*
X49297Y-34845D01*
X49445Y-34698D01*
X49525Y-34505D01*
X49525Y-34296D01*
X49445Y-34103D01*
X49298Y-33955D01*
X49164Y-33899D01*
X49297Y-33845D01*
X49445Y-33698D01*
X49525Y-33505D01*
X49525Y-33296D01*
X49445Y-33103D01*
X49298Y-32955D01*
X49164Y-32899D01*
X49297Y-32845D01*
X49445Y-32698D01*
X49525Y-32505D01*
X49525Y-32296D01*
X49445Y-32103D01*
X49298Y-31955D01*
X49164Y-31899D01*
X49297Y-31845D01*
X49445Y-31698D01*
X49525Y-31505D01*
X49525Y-31296D01*
X49445Y-31103D01*
X49298Y-30955D01*
X49164Y-30899D01*
X49297Y-30845D01*
X49445Y-30698D01*
X49525Y-30505D01*
X49525Y-30296D01*
X49445Y-30103D01*
X49298Y-29955D01*
X49164Y-29899D01*
X49297Y-29845D01*
X49445Y-29698D01*
X49525Y-29505D01*
X49525Y-29296D01*
X49445Y-29103D01*
X49298Y-28955D01*
X49223Y-28924D01*
X49324Y-28924D01*
X49416Y-28886D01*
X49486Y-28816D01*
X49524Y-28725D01*
X49524Y-28626D01*
X49524Y-28076D01*
X49486Y-27984D01*
X49416Y-27914D01*
X49325Y-27876D01*
X49226Y-27876D01*
X48676Y-27876D01*
X48584Y-27914D01*
X48514Y-27984D01*
X48476Y-28075D01*
X48476Y-28174D01*
X48476Y-28724D01*
X48514Y-28816D01*
X48584Y-28886D01*
X48675Y-28924D01*
X48774Y-28924D01*
X48703Y-28955D01*
X48555Y-29102D01*
X48475Y-29295D01*
X48475Y-29504D01*
X48555Y-29697D01*
X48702Y-29845D01*
X48835Y-29900D01*
X48703Y-29955D01*
X48555Y-30102D01*
X48475Y-30295D01*
X48475Y-30504D01*
X48555Y-30697D01*
X48702Y-30845D01*
X48835Y-30900D01*
X48703Y-30955D01*
X48555Y-31102D01*
X48475Y-31295D01*
X48475Y-31504D01*
X48555Y-31697D01*
X48702Y-31845D01*
X48835Y-31900D01*
X48703Y-31955D01*
X48555Y-32102D01*
X48551Y-32110D01*
X48500Y-32110D01*
X48120Y-32110D01*
X48240Y-32061D01*
X48360Y-31941D01*
X48425Y-31785D01*
X48425Y-31616D01*
X48361Y-31460D01*
X48290Y-31389D01*
X48290Y-30100D01*
X48268Y-29989D01*
X48205Y-29895D01*
X48111Y-29832D01*
X48000Y-29810D01*
X47889Y-29832D01*
X47795Y-29895D01*
X47732Y-29989D01*
X47710Y-30100D01*
X47710Y-31389D01*
X47640Y-31459D01*
X47575Y-31615D01*
X47575Y-31784D01*
X47639Y-31940D01*
X47759Y-32060D01*
X47879Y-32110D01*
X47600Y-32110D01*
X47489Y-32132D01*
X47395Y-32195D01*
X47394Y-32195D01*
X47394Y-32196D01*
X47175Y-32414D01*
X47175Y-26335D01*
X47175Y-26166D01*
X47111Y-26010D01*
X46991Y-25890D01*
X46835Y-25825D01*
X46666Y-25825D01*
X46510Y-25889D01*
X46390Y-26009D01*
X46325Y-26165D01*
X46325Y-26334D01*
X46389Y-26490D01*
X46460Y-26561D01*
X46460Y-27880D01*
X45765Y-28575D01*
X45666Y-28575D01*
X45510Y-28639D01*
X45390Y-28759D01*
X45325Y-28915D01*
X45325Y-29084D01*
X45389Y-29240D01*
X45509Y-29360D01*
X45665Y-29425D01*
X45834Y-29425D01*
X45990Y-29361D01*
X46110Y-29241D01*
X46175Y-29085D01*
X46175Y-28985D01*
X46955Y-28205D01*
X47018Y-28111D01*
X47040Y-28000D01*
X47040Y-26561D01*
X47110Y-26491D01*
X47175Y-26335D01*
X47175Y-32414D01*
X45416Y-34173D01*
X45298Y-34055D01*
X45164Y-33999D01*
X45297Y-33945D01*
X45445Y-33798D01*
X45448Y-33790D01*
X45500Y-33790D01*
X45611Y-33768D01*
X45705Y-33705D01*
X46205Y-33205D01*
X46268Y-33111D01*
X46290Y-33000D01*
X46290Y-32000D01*
X46268Y-31889D01*
X46205Y-31795D01*
X45205Y-30795D01*
X45111Y-30732D01*
X45000Y-30710D01*
X40372Y-30710D01*
X40425Y-30585D01*
X40425Y-30416D01*
X40361Y-30260D01*
X40241Y-30140D01*
X40205Y-30125D01*
X40240Y-30111D01*
X40311Y-30040D01*
X41750Y-30040D01*
X41861Y-30018D01*
X41955Y-29955D01*
X42370Y-29540D01*
X44380Y-29540D01*
X45075Y-30235D01*
X45075Y-30334D01*
X45139Y-30490D01*
X45259Y-30610D01*
X45415Y-30675D01*
X45584Y-30675D01*
X45740Y-30611D01*
X45860Y-30491D01*
X45925Y-30335D01*
X45925Y-30166D01*
X45861Y-30010D01*
X45741Y-29890D01*
X45585Y-29825D01*
X45485Y-29825D01*
X45175Y-29515D01*
X45175Y-24585D01*
X45175Y-24416D01*
X45111Y-24260D01*
X45040Y-24189D01*
X45040Y-21561D01*
X45110Y-21491D01*
X45175Y-21335D01*
X45175Y-21166D01*
X45111Y-21010D01*
X44991Y-20890D01*
X44835Y-20825D01*
X44666Y-20825D01*
X44510Y-20889D01*
X44390Y-21009D01*
X44325Y-21165D01*
X44325Y-21334D01*
X44389Y-21490D01*
X44460Y-21561D01*
X44460Y-24189D01*
X44390Y-24259D01*
X44325Y-24415D01*
X44325Y-24584D01*
X44389Y-24740D01*
X44509Y-24860D01*
X44665Y-24925D01*
X44834Y-24925D01*
X44990Y-24861D01*
X45110Y-24741D01*
X45175Y-24585D01*
X45175Y-29515D01*
X44705Y-29045D01*
X44611Y-28982D01*
X44500Y-28960D01*
X43019Y-28960D01*
X43019Y-28574D01*
X43019Y-25574D01*
X43019Y-23074D01*
X43008Y-22870D01*
X42952Y-22733D01*
X42861Y-22710D01*
X42571Y-23000D01*
X42861Y-23290D01*
X42952Y-23267D01*
X43019Y-23074D01*
X43019Y-25574D01*
X43008Y-25370D01*
X42952Y-25233D01*
X42861Y-25210D01*
X42790Y-25281D01*
X42790Y-25139D01*
X42767Y-25048D01*
X42574Y-24981D01*
X42370Y-24992D01*
X42233Y-25048D01*
X42210Y-25139D01*
X42500Y-25429D01*
X42790Y-25139D01*
X42790Y-25281D01*
X42571Y-25500D01*
X42861Y-25790D01*
X42952Y-25767D01*
X43019Y-25574D01*
X43019Y-28574D01*
X43008Y-28370D01*
X42952Y-28233D01*
X42861Y-28210D01*
X42790Y-28281D01*
X42790Y-28139D01*
X42790Y-25861D01*
X42500Y-25571D01*
X42210Y-25861D01*
X42233Y-25952D01*
X42426Y-26019D01*
X42630Y-26008D01*
X42767Y-25952D01*
X42790Y-25861D01*
X42790Y-28139D01*
X42767Y-28048D01*
X42574Y-27981D01*
X42370Y-27992D01*
X42233Y-28048D01*
X42210Y-28139D01*
X42500Y-28429D01*
X42790Y-28139D01*
X42790Y-28281D01*
X42571Y-28500D01*
X42861Y-28790D01*
X42952Y-28767D01*
X43019Y-28574D01*
X43019Y-28960D01*
X42747Y-28960D01*
X42767Y-28952D01*
X42790Y-28861D01*
X42500Y-28571D01*
X42429Y-28642D01*
X42429Y-28500D01*
X42139Y-28210D01*
X42048Y-28233D01*
X42006Y-28351D01*
X41945Y-28203D01*
X41798Y-28055D01*
X41605Y-27975D01*
X41396Y-27975D01*
X41203Y-28055D01*
X41055Y-28202D01*
X40996Y-28342D01*
X40952Y-28233D01*
X40861Y-28210D01*
X40790Y-28281D01*
X40790Y-28139D01*
X40767Y-28048D01*
X40574Y-27981D01*
X40370Y-27992D01*
X40233Y-28048D01*
X40210Y-28139D01*
X40500Y-28429D01*
X40790Y-28139D01*
X40790Y-28281D01*
X40571Y-28500D01*
X40861Y-28790D01*
X40952Y-28767D01*
X40993Y-28648D01*
X41055Y-28797D01*
X41202Y-28945D01*
X41395Y-29025D01*
X41604Y-29025D01*
X41797Y-28945D01*
X41945Y-28798D01*
X42003Y-28657D01*
X42048Y-28767D01*
X42139Y-28790D01*
X42429Y-28500D01*
X42429Y-28642D01*
X42210Y-28861D01*
X42233Y-28952D01*
X42256Y-28960D01*
X42250Y-28960D01*
X42139Y-28982D01*
X42045Y-29045D01*
X41630Y-29460D01*
X40790Y-29460D01*
X40790Y-28861D01*
X40500Y-28571D01*
X40210Y-28861D01*
X40233Y-28952D01*
X40426Y-29019D01*
X40630Y-29008D01*
X40767Y-28952D01*
X40790Y-28861D01*
X40790Y-29460D01*
X40311Y-29460D01*
X40241Y-29390D01*
X40085Y-29325D01*
X39916Y-29325D01*
X39760Y-29389D01*
X39640Y-29509D01*
X39575Y-29665D01*
X38826Y-28916D01*
X38945Y-28798D01*
X39000Y-28664D01*
X39055Y-28797D01*
X39202Y-28945D01*
X39395Y-29025D01*
X39604Y-29025D01*
X39797Y-28945D01*
X39945Y-28798D01*
X40003Y-28657D01*
X40048Y-28767D01*
X40139Y-28790D01*
X40429Y-28500D01*
X40139Y-28210D01*
X40048Y-28233D01*
X40006Y-28351D01*
X39945Y-28203D01*
X39798Y-28055D01*
X39605Y-27975D01*
X39396Y-27975D01*
X39203Y-28055D01*
X39055Y-28202D01*
X38999Y-28335D01*
X38945Y-28203D01*
X38798Y-28055D01*
X38790Y-28051D01*
X38790Y-27425D01*
X38834Y-27425D01*
X38990Y-27361D01*
X39110Y-27241D01*
X39175Y-27085D01*
X39175Y-26916D01*
X39111Y-26760D01*
X38991Y-26640D01*
X38835Y-26575D01*
X38666Y-26575D01*
X38510Y-26639D01*
X38390Y-26759D01*
X38325Y-26915D01*
X38325Y-27015D01*
X38295Y-27045D01*
X38290Y-27052D01*
X38290Y-25981D01*
X38395Y-26025D01*
X38604Y-26025D01*
X38797Y-25945D01*
X38945Y-25798D01*
X39000Y-25664D01*
X39055Y-25797D01*
X39202Y-25945D01*
X39395Y-26025D01*
X39604Y-26025D01*
X39797Y-25945D01*
X39945Y-25798D01*
X40000Y-25664D01*
X40055Y-25797D01*
X40202Y-25945D01*
X40395Y-26025D01*
X40604Y-26025D01*
X40797Y-25945D01*
X40945Y-25798D01*
X41000Y-25664D01*
X41055Y-25797D01*
X41202Y-25945D01*
X41395Y-26025D01*
X41604Y-26025D01*
X41797Y-25945D01*
X41945Y-25798D01*
X42003Y-25657D01*
X42048Y-25767D01*
X42139Y-25790D01*
X42429Y-25500D01*
X42139Y-25210D01*
X42048Y-25233D01*
X42006Y-25351D01*
X41945Y-25203D01*
X41798Y-25055D01*
X41790Y-25051D01*
X41790Y-24620D01*
X42205Y-24205D01*
X42268Y-24111D01*
X42290Y-24000D01*
X42290Y-23471D01*
X42426Y-23519D01*
X42630Y-23508D01*
X42767Y-23452D01*
X42790Y-23361D01*
X42535Y-23106D01*
X42500Y-23071D01*
X42429Y-23000D01*
X42500Y-22929D01*
X42535Y-22894D01*
X42790Y-22639D01*
X42767Y-22548D01*
X42574Y-22481D01*
X42370Y-22492D01*
X42290Y-22524D01*
X42290Y-20481D01*
X42395Y-20525D01*
X42604Y-20525D01*
X42797Y-20445D01*
X42945Y-20298D01*
X43025Y-20105D01*
X43025Y-19896D01*
X42945Y-19703D01*
X42798Y-19555D01*
X42605Y-19475D01*
X42396Y-19475D01*
X42290Y-19518D01*
X42290Y-19500D01*
X42268Y-19389D01*
X42205Y-19295D01*
X41705Y-18795D01*
X41611Y-18732D01*
X41500Y-18710D01*
X40811Y-18710D01*
X40741Y-18640D01*
X40585Y-18575D01*
X40416Y-18575D01*
X40290Y-18626D01*
X40290Y-17507D01*
X40391Y-17549D01*
X40609Y-17549D01*
X40811Y-17465D01*
X40965Y-17311D01*
X41000Y-17226D01*
X41035Y-17311D01*
X41189Y-17465D01*
X41391Y-17549D01*
X41609Y-17549D01*
X41811Y-17465D01*
X41965Y-17311D01*
X42000Y-17226D01*
X42035Y-17311D01*
X42189Y-17465D01*
X42387Y-17547D01*
X43044Y-18205D01*
X43045Y-18205D01*
X43139Y-18268D01*
X43250Y-18290D01*
X44500Y-18290D01*
X44611Y-18268D01*
X44705Y-18205D01*
X45120Y-17790D01*
X46377Y-17790D01*
X46325Y-17915D01*
X46325Y-18084D01*
X46389Y-18240D01*
X46460Y-18311D01*
X46460Y-20500D01*
X46482Y-20611D01*
X46545Y-20705D01*
X46575Y-20735D01*
X46575Y-20834D01*
X46639Y-20990D01*
X46759Y-21110D01*
X46915Y-21175D01*
X47084Y-21175D01*
X47240Y-21111D01*
X47360Y-20991D01*
X47425Y-20835D01*
X47425Y-20666D01*
X47361Y-20510D01*
X47241Y-20390D01*
X47085Y-20325D01*
X47040Y-20325D01*
X47040Y-18311D01*
X47110Y-18241D01*
X47175Y-18085D01*
X47175Y-17916D01*
X47123Y-17790D01*
X50130Y-17790D01*
X52075Y-19735D01*
X52075Y-19834D01*
X52139Y-19990D01*
X52259Y-20110D01*
X52415Y-20175D01*
X52584Y-20175D01*
X52740Y-20111D01*
X52860Y-19991D01*
X52925Y-19835D01*
X52925Y-19666D01*
X52861Y-19510D01*
X52741Y-19390D01*
X52585Y-19325D01*
X52485Y-19325D01*
X50505Y-17345D01*
X50610Y-17241D01*
X50675Y-17085D01*
X50675Y-16916D01*
X50611Y-16760D01*
X50491Y-16640D01*
X50335Y-16575D01*
X50166Y-16575D01*
X50010Y-16639D01*
X49939Y-16710D01*
X46197Y-16710D01*
X46205Y-16705D01*
X46870Y-16040D01*
X49439Y-16040D01*
X49509Y-16110D01*
X49665Y-16175D01*
X49834Y-16175D01*
X49990Y-16111D01*
X50110Y-15991D01*
X50175Y-15835D01*
X50175Y-15666D01*
X50111Y-15510D01*
X50101Y-15500D01*
X50110Y-15491D01*
X50175Y-15335D01*
X50175Y-15166D01*
X50111Y-15010D01*
X49991Y-14890D01*
X49835Y-14825D01*
X49666Y-14825D01*
X49510Y-14889D01*
X49439Y-14960D01*
X49122Y-14960D01*
X49175Y-14835D01*
X49175Y-14666D01*
X49111Y-14510D01*
X48991Y-14390D01*
X48835Y-14325D01*
X48735Y-14325D01*
X48455Y-14045D01*
X48361Y-13982D01*
X48250Y-13960D01*
X47561Y-13960D01*
X47491Y-13890D01*
X47335Y-13825D01*
X47370Y-13790D01*
X48250Y-13790D01*
X48361Y-13768D01*
X48455Y-13705D01*
X48485Y-13675D01*
X48584Y-13675D01*
X48740Y-13611D01*
X48860Y-13491D01*
X48925Y-13335D01*
X48925Y-13166D01*
X48861Y-13010D01*
X48741Y-12890D01*
X48585Y-12825D01*
X48416Y-12825D01*
X48260Y-12889D01*
X48140Y-13009D01*
X48075Y-13165D01*
X48075Y-13210D01*
X47250Y-13210D01*
X47139Y-13232D01*
X47107Y-13253D01*
X47044Y-13295D01*
X45879Y-14460D01*
X42450Y-14460D01*
X42705Y-14205D01*
X42768Y-14111D01*
X42790Y-14000D01*
X42790Y-13250D01*
X42768Y-13139D01*
X42705Y-13045D01*
X42205Y-12545D01*
X42111Y-12482D01*
X42000Y-12460D01*
X41370Y-12460D01*
X40955Y-12045D01*
X40861Y-11982D01*
X40750Y-11960D01*
X36620Y-11960D01*
X36560Y-11900D01*
X55675Y-11900D01*
X55675Y-72675D01*
M02*
